<svg id="Capa_1" enable-background="new 0 0 512 512" height="512" viewBox="0 0 512 512" width="512" xmlns="http://www.w3.org/2000/svg"><g><path d="m512 256c0 5.115-.142 10.253-.46 15.34-7.93 134.24-119.31 240.66-255.54 240.66-59.85 0-114.9-20.54-158.49-54.95-59.39-46.88 13.32-93.197 13.32-174.727 0-13.27-1.96-34.168 0-46.888.95-6.28-21.439-2.757-20.029-8.867.4-1.73-83.471-31.628-83.031-33.348 27.98-111.03 128.51-193.22 248.23-193.22 141.38 0 256 114.62 256 256z" fill="#524798"/><g><g><path d="m511.99 265.45c-.036 3.382-.435 6.662-1.22 9.91-1.92 7.84-5.95 14.83-11.46 20.37-7.85 7.84-18.69 12.68-30.67 12.68h-44.8c23.97 0 43.38 19.41 43.38 43.37 0 11.96-4.84 22.8-12.71 30.67-7.84 7.84-18.66 12.68-30.64 12.68h-87.16c9.73 0 18.55 3.96 24.94 10.35 6.37 6.37 10.33 15.19 10.33 24.95 0 19.49-15.79 35.27-35.27 35.27h-186.2c-18.11 0-36.01-2.95-53-8.65-59.39-46.88-97.51-119.52-97.51-201.05 0-19.81 2.25-39.1 6.52-57.61 1.68-1.73 3.38-3.46 5.09-5.17h1.69c13.32 0 26.11-5.3 35.55-14.72l155.25-155.25c9.4-9.42 21.72-14.13 34.06-14.13s24.66 4.71 34.06 14.1c2.2 2.2 4.14 4.58 5.82 7.07 12.73 18.76 10.79 44.46-5.82 61.07l-43.61 43.63h202.12c11.98 0 22.82 4.87 30.66 12.71s12.71 18.68 12.71 30.64c0 23.86-19.28 43.22-43.09 43.37h36.88c23.11 0 42.73 18.18 44.03 40.97.05.91.08 1.84.07 2.77z" fill="#ffddce"/></g><g><path d="m234.422 395.133h102.28c19.495 0 35.291 15.796 35.291 35.28 0 2.845-.346 5.608-.982 8.259-3.719-15.499-17.661-27.022-34.309-27.022h-85.763c-9.122 0-16.517-7.395-16.517-16.517z" fill="#ffcbbe"/></g><g fill="#ffcbbe"><path d="m472.849 188.67c-1.909-7.822-5.934-14.819-11.456-20.33-7.844-7.844-18.681-12.704-30.659-12.704h-212.179v-10.599l10.046-10.046h202.133c11.977 0 22.815 4.86 30.659 12.704 7.854 7.844 12.704 18.692 12.704 30.658-.001 3.558-.435 7.008-1.248 10.317z"/><path d="m510.758 275.362c-1.914-7.814-5.936-14.814-11.447-20.307-7.85-7.85-18.677-12.705-30.656-12.705h-170.643c-11.403-.009-20.644-9.25-20.644-20.644h153.632 36.875c24.046 0 44.326 19.678 44.123 43.733-.035 3.42-.452 6.742-1.24 9.923z"/><path d="m276.01 308.418h147.846c11.977 0 22.815 4.86 30.658 12.704 7.854 7.844 12.704 18.692 12.704 30.658 0 3.558-.434 7.008-1.248 10.317-1.909-7.822-5.934-14.819-11.456-20.331-7.844-7.844-18.681-12.704-30.658-12.704h-127.201c-11.402.001-20.645-9.242-20.645-20.644z"/></g><g><path d="m281.95 37.22c-4.25-1.94-8.72-3.229-13.28-3.85-2.22-.34-4.5-.5-6.75-.5-12.35 0-24.67 4.71-34.09 14.11l-155.24 155.25c-9.42 9.44-22.21 14.75-35.54 14.75h-34.08c.95-6.28 2.14-12.48 3.55-18.59.4-1.73.81-3.45 1.25-5.17h5.53c13.32 0 26.11-5.3 35.55-14.72l155.25-155.25c9.4-9.42 21.72-14.13 34.06-14.13 12.32 0 24.66 4.71 34.06 14.13 2.2 2.2 4.14 4.55 5.82 7.04 1.5 2.22 2.79 4.53 3.91 6.93z" fill="#ffcbbe"/></g></g><path d="m115.473 268.272c0-5.18 3.957-9.501 9.118-9.955 52.585-4.63 93.964-48.915 93.964-102.682l9.995-5.355 10.005 5.355c0 64.231-49.456 117.129-112.288 122.613-5.814.507-10.794-4.14-10.794-9.976z" fill="#ffcbbe"/><path d="m234.528 315.532h-97.204c-6.979 0-12.637-5.658-12.637-12.637 0-6.979 5.658-12.637 12.637-12.637h97.204c6.979 0 12.637 5.658 12.637 12.637 0 6.979-5.658 12.637-12.637 12.637z" fill="#aa3684"/><g><path d="m185.616 338.948-34.015-34.015-34.015 34.015c-18.786 18.786-18.786 49.244 0 68.03 18.786 18.786 49.244 18.786 68.03 0 18.786-18.786 18.786-49.244 0-68.03z" fill="#da387d"/><path d="m151.609 421.068c-12.315 0-24.629-4.697-34.022-14.09-18.777-18.787-18.777-49.24 0-68.026l34.022-34.013-10.164 34.013c-5.608 18.787-5.608 49.24 0 68.026 2.8 9.393 6.482 14.09 10.164 14.09z" fill="#aa3684"/></g><g><path d="m236.933 426.776-27.173-27.173-27.173 27.173c-15.007 15.007-15.007 39.339 0 54.347 15.007 15.007 39.339 15.007 54.347 0 15.006-15.008 15.006-39.34-.001-54.347z" fill="#da387d"/><path d="m209.765 492.378c-9.838 0-19.675-3.752-27.179-11.256-15-15.008-15-39.336 0-54.344l27.179-27.172-8.119 27.172c-4.48 15.008-4.48 39.336 0 54.344 2.236 7.504 5.178 11.256 8.119 11.256z" fill="#aa3684"/></g></g></svg>