<svg id="Capa_1" enable-background="new 0 0 512 512" height="512" viewBox="0 0 512 512" width="512" xmlns="http://www.w3.org/2000/svg"><g><path d="m512 256c0 141.38-114.62 256-256 256-41.26 0-80.24-9.76-114.76-27.11-18.772-9.426-11.103-60.047-26.883-73.607-17.987-15.456-58.922 5.584-72.047-14.263-26.74-40.44-42.31-88.91-42.31-141.02s15.57-100.58 42.31-141.02c10.12-15.3 21.83-29.44 34.9-42.2 46.15-45.03 109.23-72.78 178.79-72.78 141.38 0 256 114.62 256 256z" fill="#80b4fb"/><g><path d="m348.878 462.319h-50.586v-178.178h50.586c15.36 0 27.812 12.452 27.812 27.812v122.553c0 15.361-12.452 27.813-27.812 27.813z" fill="#30579d"/><path d="m376.69 383.73v50.776c0 15.36-12.449 27.818-27.808 27.818h-50.589v-50.786h50.589c15.36 0 27.808-12.448 27.808-27.808z" fill="#26457d"/><path d="m66.661 42.905v50.586h178.178v-50.586c0-15.36-12.452-27.812-27.812-27.812h-122.554c-15.36 0-27.812 12.452-27.812 27.812z" fill="#f9f6f9"/><path d="m145.25 15.093h-50.777c-15.36 0-27.818 12.449-27.818 27.808v50.589h50.786v-50.589c0-15.36 12.449-27.808 27.809-27.808z" fill="#e2d8ec"/><path d="m344.05 296.43v151.23c0 20.56-16.67 37.23-37.23 37.23h-165.58c-40.17-20.17-74.29-50.61-98.93-87.87v-287.08c0-19.79 15.43-35.97 34.9-37.16.77-.06 1.55-.08 2.33-.08h151.23c20.56 0 37.23 16.67 37.23 37.24v149.26h38.82c20.56 0 37.23 16.67 37.23 37.23z" fill="#95d6a4"/><path d="m344.05 438.57v9.09c0 20.56-16.67 37.23-37.24 37.23h-165.57c-40.17-20.17-74.29-50.61-98.93-87.87v-287.09c0-19.78 15.42-35.96 34.9-37.15.77-.06 1.55-.08 2.33-.08h31.44c-16.84 3.56-29.48 18.52-29.48 36.42v301.75c0 23.17 18.78 41.94 41.95 41.94h191.31c11.88 0 22.46-5.57 29.29-14.24z" fill="#78c2a4"/></g><g fill="#f6e266"><path d="m418.274 453.135 1.181-2.088c4.164-7.363 13.318-10.245 20.948-6.595l23.472 11.227c8.407 4.021 11.65 14.322 7.063 22.435l-2.933 5.188c-4.587 8.112-15.086 10.643-22.865 5.511l-21.719-14.327c-7.062-4.658-9.311-13.988-5.147-21.351z"/><path d="m438.815 376.114-.022-2.398c-.076-8.458 6.411-15.531 14.844-16.186l25.941-2.013c9.292-.721 17.251 6.578 17.334 15.897l.053 5.959c.083 9.319-7.743 16.76-17.046 16.206l-25.973-1.548c-8.443-.503-15.056-7.459-15.131-15.917z"/><path d="m418.093 299.14-1.218-2.066c-4.295-7.287-2.214-16.656 4.763-21.439l21.459-14.714c7.686-5.27 18.229-2.928 22.961 5.101l3.026 5.134c4.732 8.029 1.674 18.386-6.66 22.558l-23.267 11.646c-7.565 3.785-16.769 1.068-21.064-6.22z"/></g></g></svg>