<svg id="Capa_1" enable-background="new 0 0 512 512" height="512" viewBox="0 0 512 512" width="512" xmlns="http://www.w3.org/2000/svg"><g><path d="m512 256c0 58.4-19.56 112.23-52.48 155.3-.08.1-.16.21-.24.32-46.79 61.03-120.44 7.517-203.28 7.517s-156.49 53.513-203.28-7.517c-.08-.11-.16-.22-.24-.32-32.92-43.07-52.48-96.9-52.48-155.3s19.56-112.23 52.48-155.3c27.93-36.55 65.48-65.36 108.88-82.63 29.28-11.66 61.21-18.07 94.64-18.07s65.36 6.41 94.64 18.07c43.4 17.27 80.95 46.08 108.88 82.63 32.92 43.07 52.48 96.9 52.48 155.3z" fill="#524798"/><path d="m459.52 94.77v316.53c-.08.1-.16.21-.24.32-11.53 15.04-24.69 28.76-39.21 40.89-11.921 9.97-29.263 2.181-42.88 9.87-9.766 5.515-15.432 27.096-25.94 31.31-29.45 11.81-61.59 18.31-95.25 18.31s-65.8-6.5-95.25-18.31c-11.365-4.557-13.999-25.235-24.49-31.31-12.162-7.042-32.019.27-42.81-8.61-15.13-12.44-28.8-26.59-40.73-42.15-.08-.11-.16-.22-.24-.32v-316.53c0-42.36 34.34-76.7 76.7-76.7h253.64c42.36 0 76.7 34.34 76.7 76.7z" fill="#f9f6f9"/><path d="m149.13 18.07c-35.51 0-65.38 24.13-74.11 56.88-1.69 6.32-2.59 12.97-2.59 19.82v339.64c-7.1-7.3-13.76-15.01-19.95-23.11v-316.53c0-42.36 34.34-76.7 76.7-76.7z" fill="#e2d8ec"/><g><path d="m242.98 450.772c0 11.849-4.803 22.582-12.57 30.349s-18.5 12.57-30.349 12.57h-31.907l-10.748-46.62 10.748-39.218h31.907c23.698 0 42.919 19.209 42.919 42.919z" fill="#80b4fb"/><path d="m168.15 407.85v85.84h-7.4c-24.54-9.84-47.2-23.38-67.3-39.92-.08-.99-.11-1.99-.11-3 0-11.86 4.8-22.58 12.57-30.35 7.77-7.76 18.5-12.57 30.35-12.57z" fill="#f6e266"/><path d="m242.98 450.772c0 11.849-4.803 22.582-12.57 30.349s-18.5 12.57-30.349 12.57h-31.907l-8.087-16.026 8.087-15.288h31.907c11.849 0 22.581-4.802 30.349-12.57 4.151-4.151 7.453-9.14 9.628-14.686 1.896 4.848 2.942 10.128 2.942 15.651z" fill="#61a2f9"/><path d="m168.15 462.38v31.31h-7.4c-24.54-9.84-47.2-23.38-67.3-39.92-.08-.99-.11-1.99-.11-3 0-5.52 1.05-10.8 2.94-15.66 6.26 15.96 21.79 27.27 39.98 27.27z" fill="#ffd064"/></g><g><path d="m420.107 105.909c0 11.849-4.802 22.582-12.57 30.349-7.767 7.767-18.5 12.57-30.349 12.57h-31.907l-14.51-44.053 14.51-41.785h31.907c23.698 0 42.919 19.209 42.919 42.919z" fill="#da387d"/><path d="m345.281 62.99v85.838h-31.895c-23.71 0-42.919-19.221-42.919-42.919 0-11.86 4.802-22.582 12.57-30.349s18.5-12.57 30.349-12.57z" fill="#95d6a4"/><path d="m420.107 105.909c0 11.849-4.802 22.582-12.57 30.349-7.767 7.767-18.5 12.57-30.349 12.57h-31.907l-10.52-16.119 10.52-15.195h31.907c11.849 0 22.581-4.802 30.349-12.57 4.151-4.151 7.453-9.14 9.628-14.686 1.896 4.849 2.942 10.128 2.942 15.651z" fill="#aa3684"/><path d="m345.281 117.514v31.314h-31.895c-23.71 0-42.919-19.221-42.919-42.919 0-5.523 1.046-10.802 2.942-15.663 6.256 15.965 21.791 27.268 39.977 27.268z" fill="#78c2a4"/></g><g><path d="m420.107 220.863c0 11.849-4.802 22.582-12.57 30.349-7.767 7.767-18.5 12.57-30.349 12.57h-31.907l-14.953-51.707 14.953-34.131h31.907c23.698 0 42.919 19.21 42.919 42.919z" fill="#da387d"/><path d="m345.281 177.944v85.838h-31.895c-23.71 0-42.919-19.221-42.919-42.919 0-11.86 4.802-22.582 12.57-30.349s18.5-12.57 30.349-12.57z" fill="#95d6a4"/><path d="m420.107 220.863c0 11.849-4.802 22.582-12.57 30.349-7.767 7.767-18.5 12.57-30.349 12.57h-31.907l-7.416-15.349 7.416-15.965h31.907c11.849 0 22.581-4.802 30.349-12.57 4.151-4.151 7.453-9.14 9.628-14.686 1.896 4.849 2.942 10.128 2.942 15.651z" fill="#aa3684"/><path d="m345.281 232.468v31.314h-31.895c-23.71 0-42.919-19.221-42.919-42.919 0-5.523 1.046-10.802 2.942-15.663 6.256 15.965 21.791 27.268 39.977 27.268z" fill="#78c2a4"/></g><g><path d="m420.107 335.817c0 11.849-4.802 22.582-12.57 30.349-7.767 7.767-18.5 12.57-30.349 12.57h-31.907l-13.623-53.597 13.623-32.24h31.907c23.698 0 42.919 19.209 42.919 42.918z" fill="#da387d"/><path d="m345.281 292.899v85.838h-31.895c-23.71 0-42.919-19.221-42.919-42.919 0-11.86 4.802-22.582 12.57-30.349s18.5-12.57 30.349-12.57z" fill="#95d6a4"/><path d="m420.107 335.818c0 11.849-4.802 22.582-12.57 30.349-7.767 7.767-18.5 12.57-30.349 12.57h-31.907l-12.736-13.249 12.736-18.065h31.907c11.849 0 22.581-4.802 30.349-12.57 4.151-4.151 7.453-9.14 9.628-14.686 1.896 4.848 2.942 10.127 2.942 15.651z" fill="#aa3684"/><path d="m345.281 347.422v31.314h-31.895c-23.71 0-42.919-19.221-42.919-42.919 0-5.523 1.046-10.802 2.942-15.663 6.256 15.965 21.791 27.268 39.977 27.268z" fill="#78c2a4"/></g><g><path d="m420.11 450.77c0 .58-.01 1.16-.04 1.74-20.47 17.12-43.66 31.09-68.82 41.18h-5.97l-13.179-51.053 13.179-34.787h31.91c23.7 0 42.92 19.21 42.92 42.92z" fill="#da387d"/><path d="m345.281 407.853v85.838h-31.895c-23.71 0-42.919-19.221-42.919-42.919 0-11.86 4.802-22.582 12.57-30.349s18.5-12.57 30.349-12.57z" fill="#95d6a4"/><path d="m420.11 450.77c0 .58-.01 1.16-.04 1.74-20.47 17.12-43.66 31.09-68.82 41.18h-5.97l-7.858-17.356 7.858-13.954h31.91c11.85 0 22.58-4.81 30.35-12.57 4.15-4.15 7.45-9.14 9.63-14.69 1.89 4.85 2.94 10.13 2.94 15.65z" fill="#aa3684"/><path d="m345.281 462.376v31.314h-31.895c-23.71 0-42.919-19.221-42.919-42.919 0-5.523 1.046-10.802 2.942-15.663 6.256 15.965 21.791 27.268 39.977 27.268z" fill="#78c2a4"/></g><g><path d="m241.533 105.909c0 11.849-4.803 22.582-12.57 30.349s-18.5 12.57-30.349 12.57h-31.907l-11.961-40.062 11.961-45.776h31.907c23.698 0 42.919 19.209 42.919 42.919z" fill="#80b4fb"/><path d="m166.707 62.99v85.838h-31.895c-23.71 0-42.919-19.221-42.919-42.919 0-11.86 4.802-22.582 12.57-30.349s18.5-12.57 30.349-12.57z" fill="#f6e266"/><path d="m241.533 105.909c0 11.849-4.803 22.582-12.57 30.349s-18.5 12.57-30.349 12.57h-31.907l-6.196-15.676 6.196-15.638h31.907c11.849 0 22.581-4.802 30.349-12.57 4.151-4.151 7.453-9.14 9.628-14.686 1.895 4.849 2.942 10.128 2.942 15.651z" fill="#61a2f9"/><path d="m166.707 117.514v31.314h-31.895c-23.71 0-42.919-19.221-42.919-42.919 0-5.523 1.046-10.802 2.942-15.663 6.256 15.965 21.791 27.268 39.977 27.268z" fill="#ffd064"/></g><g><path d="m242.98 220.863c0 11.849-4.803 22.582-12.57 30.349s-18.5 12.57-30.349 12.57h-31.907l-11.961-40.062 11.961-45.776h31.907c23.698 0 42.919 19.21 42.919 42.919z" fill="#80b4fb"/><path d="m168.154 177.944v85.838h-31.895c-23.71 0-42.919-19.221-42.919-42.919 0-11.86 4.802-22.582 12.57-30.349s18.5-12.57 30.349-12.57z" fill="#f6e266"/><path d="m242.98 220.863c0 11.849-4.803 22.582-12.57 30.349s-18.5 12.57-30.349 12.57h-31.907l-6.196-15.676 6.196-15.638h31.907c11.849 0 22.581-4.802 30.349-12.57 4.151-4.151 7.453-9.14 9.628-14.686 1.896 4.849 2.942 10.128 2.942 15.651z" fill="#61a2f9"/><path d="m168.154 232.468v31.314h-31.895c-23.71 0-42.919-19.221-42.919-42.919 0-5.523 1.046-10.802 2.942-15.663 6.256 15.965 21.791 27.268 39.977 27.268z" fill="#ffd064"/></g><g><path d="m242.98 335.817c0 11.849-4.803 22.582-12.57 30.349s-18.5 12.57-30.349 12.57h-31.907l-11.961-40.062 11.961-45.776h31.907c23.698.001 42.919 19.21 42.919 42.919z" fill="#80b4fb"/><path d="m168.154 292.899v85.838h-31.895c-23.71 0-42.919-19.221-42.919-42.919 0-11.86 4.802-22.582 12.57-30.349s18.5-12.57 30.349-12.57z" fill="#f6e266"/><path d="m242.98 335.817c0 11.849-4.803 22.582-12.57 30.349s-18.5 12.57-30.349 12.57h-31.907l-6.196-15.676 6.196-15.638h31.907c11.849 0 22.581-4.802 30.349-12.57 4.151-4.151 7.453-9.14 9.628-14.686 1.896 4.849 2.942 10.128 2.942 15.651z" fill="#61a2f9"/><path d="m168.154 347.422v31.314h-31.895c-23.71 0-42.919-19.221-42.919-42.919 0-5.523 1.046-10.802 2.942-15.663 6.256 15.965 21.791 27.268 39.977 27.268z" fill="#ffd064"/></g></g></svg>