<svg id="Capa_1" enable-background="new 0 0 512 512" height="512" viewBox="0 0 512 512" width="512" xmlns="http://www.w3.org/2000/svg"><g><path d="m512 256c0 57.369-18.869 110.325-50.742 153.008-10.64 14.248-22.729-4.206-36.048 7.535-45.12 39.77-104.35 34.584-169.21 34.584-104.22 0-169.182-3.002-233.83-90.787-14.25-31.87-22.17-67.18-22.17-104.34s7.92-72.47 22.17-104.34c27.84-62.31 79.86-111.46 144.14-135.5 27.91-10.45 58.13-16.16 89.69-16.16s61.78 5.71 89.69 16.16c29.07 10.87 55.63 26.88 78.58 46.92 53.76 46.92 87.73 115.95 87.73 192.92z" fill="#95d6a4"/><path d="m425.21 73.47v374.63c-45.12 39.77-104.35 63.9-169.21 63.9-104.22 0-193.9-62.28-233.83-151.66v-286.87c0-31.65 25.66-57.31 57.31-57.31h288.43c28.1 0 51.48 20.23 56.36 46.92.62 3.37.94 6.84.94 10.39z" fill="#f9f6f9"/><g><path d="m432.655 381.361c-19.343 0-35.023-15.68-35.023-35.023v-125.963c0-7.804 6.326-14.13 14.13-14.13h41.787c7.804 0 14.13 6.326 14.13 14.13v125.962c-.001 19.343-15.681 35.024-35.024 35.024z" fill="#f6e266"/><path d="m442.736 379.886c-3.191.958-6.582 1.476-10.085 1.476-19.341 0-35.019-15.678-35.019-35.019v-125.968c0-7.803 6.327-14.122 14.13-14.122h20.162c-7.803 0-14.13 6.319-14.13 14.122v125.968c0 15.838 10.508 29.219 24.942 33.543z" fill="#ffd064"/><path d="m432.655 506.446c-6.589 0-11.93-5.341-11.93-11.93v-47.721h23.861v47.721c0 6.588-5.342 11.93-11.931 11.93z" fill="#9dbfce"/><path d="m420.725 446.8h9.093v47.716c0 4.978 3.054 9.249 7.389 11.038-1.4.58-2.934.898-4.547.898-6.59 0-11.936-5.346-11.936-11.936z" fill="#87acb9"/><path d="m444.59 446.793.007.007h-14.779z" fill="#9dbfce"/><path d="m432.655 485.219c-27.633 0-50.033-22.401-50.033-50.033v-179.948c0-11.148 9.037-20.185 20.185-20.185h59.696c11.148 0 20.185 9.037 20.185 20.185v179.948c.001 27.633-22.4 50.033-50.033 50.033z" fill="#da387d"/><path d="m447.057 483.113c-4.559 1.368-9.404 2.109-14.407 2.109-27.63 0-50.027-22.398-50.027-50.027v-179.957c0-11.148 9.039-20.175 20.186-20.175h28.804c-11.148 0-20.186 9.027-20.186 20.175v179.956c-.002 22.626 15.01 41.741 35.63 47.919z" fill="#aa3684"/><path d="m473.407 366.201h-10.613c-14.128 0-25.581-11.453-25.581-25.581v-94.664c0-14.128 11.453-25.581 25.581-25.581h10.613z" fill="#ffd064"/><path d="m473.407 366.201c-14.128 0-25.581-11.453-25.581-25.581v-94.664c0-14.128 11.453-25.581 25.581-25.581 14.128 0 25.581 11.453 25.581 25.581v94.664c-.001 14.128-11.454 25.581-25.581 25.581z" fill="#f6e266"/></g><path d="m188.06 180.025-34.752-36.8 29.402-31.091c3.459-3.659 3.299-9.43-.36-12.889-3.66-3.46-9.43-3.299-12.889.36l-28.693 30.342-18.365-19.447c10.363-5.624 17.378-16.3 17.378-28.528 0-18.057-15.29-32.747-34.083-32.747h-24.161c-2.423 0-4.746.965-6.457 2.681s-2.669 4.043-2.66 6.466c0 .001-.03 90.891-.03 90.891 0 5.036 4.082 9.118 9.118 9.118s9.118-4.082 9.118-9.118v-34.489c3.481-.018 7.414-.036 10.688-.046l26.903 28.489-34.804 36.803c-3.459 3.659-3.299 9.43.36 12.889 1.763 1.667 4.015 2.493 6.264 2.493 2.418 0 4.833-.957 6.626-2.853l34.096-36.054 34.043 36.049c1.794 1.899 4.21 2.858 6.63 2.858 2.246 0 4.497-.825 6.259-2.489 3.661-3.456 3.826-9.227.369-12.888zm-97.378-112.564h15.016c8.591 0 15.848 6.645 15.848 14.512 0 7.866-7.257 14.512-15.848 14.512-3.445 0-9.673.027-14.928.054-.027-5.159-.072-23.687-.088-29.078z" fill="#da387d"/><g><g fill="#30579d"><path d="m351.588 264.671h-174.283c-9.845 0-17.826-7.981-17.826-17.826 0-9.845 7.981-17.826 17.826-17.826h174.283c9.845 0 17.826 7.981 17.826 17.826 0 9.845-7.981 17.826-17.826 17.826z"/><path d="m351.588 333.94h-174.283c-9.845 0-17.826-7.981-17.826-17.826 0-9.845 7.981-17.826 17.826-17.826h174.283c9.845 0 17.826 7.981 17.826 17.826 0 9.845-7.981 17.826-17.826 17.826z"/><path d="m351.588 403.208h-174.283c-9.845 0-17.826-7.981-17.826-17.826 0-9.845 7.981-17.826 17.826-17.826h174.283c9.845 0 17.826 7.981 17.826 17.826 0 9.845-7.981 17.826-17.826 17.826z"/></g><g fill="#80b4fb"><path d="m118.389 264.671h-22.591c-9.845 0-17.826-7.981-17.826-17.826 0-9.845 7.981-17.826 17.826-17.826h22.591c9.845 0 17.826 7.981 17.826 17.826 0 9.845-7.981 17.826-17.826 17.826z"/><path d="m118.389 333.94h-22.591c-9.845 0-17.826-7.981-17.826-17.826 0-9.845 7.981-17.826 17.826-17.826h22.591c9.845 0 17.826 7.981 17.826 17.826 0 9.845-7.981 17.826-17.826 17.826z"/><path d="m118.389 403.208h-22.591c-9.845 0-17.826-7.981-17.826-17.826 0-9.845 7.981-17.826 17.826-17.826h22.591c9.845 0 17.826 7.981 17.826 17.826 0 9.845-7.981 17.826-17.826 17.826z"/></g></g><path d="m374.403 105.084h-20.684v-20.684c0-4.673-3.788-8.461-8.461-8.461h-24.713c-4.673 0-8.461 3.788-8.461 8.461v20.684h-20.684c-4.673 0-8.461 3.788-8.461 8.461v24.713c0 4.673 3.788 8.461 8.461 8.461h20.684v20.684c0 4.673 3.788 8.461 8.461 8.461h24.713c4.673 0 8.461-3.788 8.461-8.461v-20.683h20.684c4.673 0 8.461-3.788 8.461-8.461v-24.713c.001-4.674-3.788-8.462-8.461-8.462z" fill="#e2d8ec"/></g></svg>