<svg id="Capa_1" enable-background="new 0 0 512 512" height="512" viewBox="0 0 512 512" width="512" xmlns="http://www.w3.org/2000/svg"><g><path d="m512 256c0 92.99-49.58 174.4-123.75 219.23-10.2 6.17-20.86-23.033-31.92-18.323-7.79 3.33-15.78 40.953-23.95 43.503-18.848 5.884-38.637 9.649-59.08 11.014-5.718.382-11.487-63.496-17.3-63.496-72.43 0-137.836 33.989-184.405-14.363-44.333-46.029-71.595-108.615-71.595-177.565 0-141.38 114.62-256 256-256s256 114.62 256 256z" fill="#f6e266"/><path d="m388.25 418.07v57.16c-17.38 10.51-36.11 19.01-55.87 25.18v-82.34l30.76-7.15z" fill="#f9f6f9"/><path d="m345.855 351.229c-7.438 0-13.468 6.03-13.468 13.468v45.565h26.936v-45.565c0-7.438-6.03-13.468-13.468-13.468z" fill="#a26e5a"/><path d="m356.33 418.07v73.51c-7.79 3.33-15.78 6.28-23.95 8.83v-82.34z" fill="#e2d8ec"/><path d="m429.655 383.153h-70.159c-14.972 0-27.109 12.137-27.109 27.109v7.808h97.268c9.642 0 17.458-7.816 17.458-17.458.001-9.643-7.816-17.459-17.458-17.459z" fill="#b18578"/><g><path d="m489.818 317.526c-8.378 8.378-19.363 12.572-30.348 12.572s-21.97-4.193-30.348-12.572l-22.562-22.562 19.871-36.786 40.826-23.911 22.562 22.562c16.756 16.757 16.764 43.932-.001 60.697z" fill="#da387d"/><path d="m467.256 234.267-60.696 60.696-22.553-22.553c-16.765-16.765-16.757-43.94 0-60.696 8.387-8.387 19.363-12.572 30.348-12.572s21.97 4.193 30.348 12.572z" fill="#95d6a4"/><path d="m489.818 317.526c-8.378 8.378-19.363 12.572-30.348 12.572s-21.97-4.193-30.348-12.572l-22.562-22.562 6.703-15.466 15.44-6.676 22.562 22.562c8.378 8.378 19.363 12.572 30.348 12.572 5.871 0 11.733-1.192 17.193-3.577-2.09 4.768-5.082 9.241-8.988 13.147z" fill="#aa3684"/><path d="m428.702 272.822-22.142 22.142-22.553-22.553c-16.765-16.765-16.757-43.939 0-60.696 3.906-3.906 8.378-6.899 13.156-8.995-6.866 15.713-3.873 34.689 8.987 47.549z" fill="#78c2a4"/></g><g><path d="m469.447 302.772c0 11.849-4.802 22.582-12.57 30.349-7.767 7.767-18.5 12.57-30.349 12.57h-31.908l-11.961-40.062 11.961-45.776h31.907c23.698.001 42.92 19.21 42.92 42.919z" fill="#80b4fb"/><path d="m394.62 259.854v85.838h-31.895c-23.71 0-42.919-19.221-42.919-42.919 0-11.86 4.802-22.582 12.57-30.349s18.5-12.57 30.349-12.57z" fill="#f9f6f9"/><path d="m469.447 302.773c0 11.849-4.802 22.582-12.57 30.349-7.767 7.767-18.5 12.57-30.349 12.57h-31.908l-6.197-15.676 6.197-15.638h31.907c11.849 0 22.581-4.802 30.349-12.57 4.151-4.151 7.453-9.14 9.628-14.686 1.896 4.848 2.943 10.127 2.943 15.651z" fill="#61a2f9"/><path d="m394.62 314.377v31.314h-31.895c-23.71 0-42.919-19.221-42.919-42.919 0-5.523 1.046-10.802 2.942-15.663 6.256 15.965 21.791 27.268 39.977 27.268z" fill="#e2d8ec"/></g><g><path d="m300.913 298.815v-174.16c0-60.269-48.858-109.127-109.127-109.127h-12.177c-60.269 0-109.127 48.858-109.127 109.127v172.239h-1.524c-12.121 0-21.948 9.826-21.948 21.948 0 12.121 9.826 21.948 21.948 21.948h222.977c12.121 0 21.948-9.826 21.948-21.948-.001-8.922-5.327-16.595-12.97-20.027z" fill="#30579d"/><path d="m215.121 18.045c-49.06 10.68-85.78 54.36-85.78 106.61v172.24h-1.53c-12.12 0-21.95 9.83-21.95 21.95 0 6.06 2.46 11.55 6.43 15.52s9.46 6.43 15.52 6.43h-58.86c-6.06 0-11.55-2.46-15.52-6.43s-6.43-9.46-6.43-15.52c0-12.12 9.83-21.95 21.95-21.95h1.53v-172.24c0-60.26 48.85-109.12 109.12-109.12h12.18c8.01 0 15.82.86 23.34 2.51z" fill="#26457d"/><path d="m273.3 438.38v73.04c-5.07.34-10.19.53-15.34.57h-.01c-.65.01-1.3.01-1.95.01-19.74 0-38.96-2.23-57.42-6.47-8.021-1.835-15.899-28.76-23.613-31.331-8.557-2.852-16.912 18.568-25.038 14.861-29.55-13.47-56.09-32.4-78.34-55.49 2.17-33.42 26.78-60.73 58.91-67 4.56-.9 9.28 6.59 14.11 6.59h55.53c4.83 0 9.54-7.49 14.11-6.59 33.661 6.57 59.051 36.23 59.051 71.81z" fill="#f9f6f9"/><path d="m198.58 390.18v115.35c-16.92-3.87-33.2-9.42-48.65-16.47v-98.88z" fill="#80b4fb"/><path d="m144.61 373.16 25.28-4.13c-28.93 9.76-49.76 37.12-49.76 69.35v34.62c-17.76-11.14-34.06-24.4-48.54-39.43 2.16-33.21 26.45-60.36 58.27-66.87 4.77-.98 9.7 6.46 14.75 6.46z" fill="#e2d8ec"/><path d="m193.29 365.21-23.4 3.82c7.35-2.48 15.22-3.82 23.4-3.82z" fill="#856fb2"/><path d="m237.443 401.617c0 7.323-2.79 14.646-8.382 20.227-11.173 11.173-29.281 11.173-40.454 0l-16.23-16.218-16.23 16.218c-5.592 5.581-12.904 8.382-20.227 8.382s-14.635-2.802-20.227-8.382c-11.184-11.173-11.184-29.282 0-40.466l14.806-14.806c4.567-.9 9.282-1.367 14.111-1.367h55.533c4.829 0 9.544.467 14.111 1.367l14.806 14.806c5.593 5.593 8.383 12.916 8.383 20.239z" fill="#e2d8ec"/><path d="m207.297 287.002v86.524c0 9.128-3.702 17.388-9.683 23.36-5.971 5.981-14.232 9.683-23.36 9.683-6.429 0-12.43-1.831-17.496-5.017-9.332-5.835-15.547-16.21-15.547-28.026v-86.524z" fill="#b18578"/><g fill="#a26e5a"><path d="m207.297 287.002v82.462c-4.501.633-9.089.955-13.765.955-19.2 0-37.134-5.455-52.321-14.904v-68.512h66.086z"/><path d="m156.758 320.59v80.961c-9.332-5.835-15.547-16.21-15.547-28.026v-52.935z"/><path d="m299.096 229.448h-219.565c-14.215 0-25.738-11.523-25.738-25.738 0-14.215 11.524-25.738 25.738-25.738h219.565c14.215 0 25.738 11.524 25.738 25.738 0 14.215-11.523 25.738-25.738 25.738z"/></g><path d="m79.531 214.705c-6.063 0-10.996-4.933-10.996-10.996s4.933-10.996 10.996-10.996h219.565c6.063 0 10.996 4.933 10.996 10.996s-4.933 10.996-10.996 10.996z" fill="#945e4f"/><path d="m292.809 159.926v96.311c0 54.824-44.443 99.279-99.279 99.279-54.824 0-99.279-44.455-99.279-99.279v-96.311c0-5.259.413-10.426 1.203-15.468h82.104c5.74 0 11.286-.836 16.522-2.406 9.727-2.887 18.389-8.272 25.218-15.41 5.11-5.316 9.212-11.606 11.996-18.561 8.547 21.311 29.377 36.377 53.747 36.377h6.565c.791 5.042 1.203 10.209 1.203 15.468z" fill="#b18578"/><path d="m218.68 352.297c-8.032 2.108-16.464 3.22-25.149 3.22-54.824 0-99.279-44.455-99.279-99.279v-96.311c0-5.259.412-10.426 1.203-15.468h50.287c-.79 5.041-1.203 10.209-1.203 15.468v96.311c0 46.139 31.485 84.933 74.141 96.059z" fill="#a26e5a"/><path d="m219.298 126.643v103.335h-25.218v-87.924c9.728-2.889 18.39-8.274 25.218-15.411z" fill="#a26e5a"/><path d="m221.789 211.472h-20.311c-7.801 0-14.124 6.324-14.124 14.124 0 7.801 6.324 14.124 14.124 14.124h20.311c7.801 0 14.124-6.324 14.124-14.124 0-7.8-6.324-14.124-14.124-14.124z" fill="#a26e5a"/><path d="m151.773 175.347c-6.738 0-13.474-2.564-18.603-7.693-3.132-3.132-3.132-8.21 0-11.342s8.21-3.132 11.342 0c4.004 4.004 10.518 4.003 14.522 0 3.132-3.132 8.211-3.131 11.342.001 3.132 3.132 3.132 8.21 0 11.342-5.128 5.127-11.866 7.692-18.603 7.692z" fill="#524798"/><path d="m261.227 175.347c-6.737 0-13.474-2.564-18.603-7.693-3.132-3.132-3.132-8.21 0-11.342s8.209-3.132 11.342-.001c4.003 4.003 10.518 4.004 14.522 0 3.132-3.132 8.21-3.132 11.342 0s3.132 8.21 0 11.342c-5.129 5.13-11.866 7.694-18.603 7.694z" fill="#524798"/><path d="m190.614 295.163c-23.855 0-43.262-19.407-43.262-43.262 0-4.113 3.334-7.447 7.447-7.447s7.447 3.334 7.447 7.447c0 15.642 12.726 28.367 28.367 28.367 4.113 0 7.447 3.334 7.447 7.447s-3.333 7.448-7.446 7.448z" fill="#945e4f"/><path d="m167.818 204.235c-6.962 0-12.607-5.644-12.607-12.607v-26.264c0-6.962 5.644-12.607 12.607-12.607 6.962 0 12.607 5.644 12.607 12.607v26.264c0 6.963-5.644 12.607-12.607 12.607z" fill="#26457d"/><path d="m245.559 204.235c-6.962 0-12.607-5.644-12.607-12.607v-26.264c0-6.962 5.644-12.607 12.607-12.607 6.962 0 12.607 5.644 12.607 12.607v26.264c0 6.963-5.644 12.607-12.607 12.607z" fill="#26457d"/></g></g></svg>