<svg id="Capa_1" enable-background="new 0 0 512 512" height="512" viewBox="0 0 512 512" width="512" xmlns="http://www.w3.org/2000/svg"><g><path d="m512 256c0 122.8-86.47 225.41-201.84 250.26-17.46 3.76-35.58-19.284-54.16-19.284-2.93 0-5.85-.05-8.76-.15-15.52-.52-30.7 22.604-45.4 19.434-115.37-24.85-201.84-127.46-201.84-250.26 0-141.38 114.62-256 256-256s256 114.62 256 256z" fill="#f6e266"/><path d="m321.64 379.14v99.3c0 10.86-4.39 20.69-11.48 27.82-17.46 3.76-35.58 5.74-54.16 5.74s-36.7-1.98-54.16-5.74c-7.09-7.13-11.48-16.96-11.48-27.82v-99.3z" fill="#f9f6f9"/><path d="m247.24 511.85c-15.52-.52-30.7-2.42-45.4-5.59-7.09-7.13-11.48-16.96-11.48-27.82v-99.3h38.42v99.3c0 14.07 7.37 26.43 18.46 33.41z" fill="#e2d8ec"/><path d="m318.85 414.113h-125.7c-6.979 0-12.637-5.658-12.637-12.637 0-6.979 5.658-12.637 12.637-12.637h125.7c6.979 0 12.637 5.658 12.637 12.637 0 6.979-5.658 12.637-12.637 12.637z" fill="#e2d8ec"/><path d="m297.198 396.221h-82.396c-65.966 0-119.441-53.476-119.441-119.441v-237.597c0-13.852 11.229-25.081 25.081-25.081h271.117c13.852 0 25.081 11.229 25.081 25.081v237.597c0 65.966-53.476 119.441-119.442 119.441z" fill="#95d6a4"/><g fill="#78c2a4"><path d="m229.592 396.225h-14.786c-65.971 0-119.445-53.474-119.445-119.445v-237.596c0-13.845 11.234-25.079 25.079-25.079h48.66c-8.88 0-16.081 11.234-16.081 25.079v237.596c-.001 65.971 34.279 119.445 76.573 119.445z"/><g><path d="m131.117 92.02c-6.19 0-11.207-5.018-11.207-11.207v-38.425c0-6.19 5.018-11.207 11.207-11.207 6.19 0 11.207 5.018 11.207 11.207v38.425c.001 6.19-5.017 11.207-11.207 11.207z"/><path d="m172.745 92.02c-6.19 0-11.207-5.018-11.207-11.207v-38.425c0-6.19 5.018-11.207 11.207-11.207 6.19 0 11.207 5.018 11.207 11.207v38.425c0 6.19-5.017 11.207-11.207 11.207z"/><path d="m214.372 92.02c-6.19 0-11.207-5.018-11.207-11.207v-38.425c0-6.19 5.018-11.207 11.207-11.207 6.19 0 11.207 5.018 11.207 11.207v38.425c.001 6.19-5.017 11.207-11.207 11.207z"/><path d="m256 92.02c-6.19 0-11.207-5.018-11.207-11.207v-38.425c0-6.19 5.018-11.207 11.207-11.207 6.19 0 11.207 5.018 11.207 11.207v38.425c0 6.19-5.017 11.207-11.207 11.207z"/><path d="m297.628 92.02c-6.19 0-11.207-5.018-11.207-11.207v-38.425c0-6.19 5.018-11.207 11.207-11.207 6.19 0 11.207 5.018 11.207 11.207v38.425c0 6.19-5.018 11.207-11.207 11.207z"/><path d="m339.255 92.02c-6.19 0-11.207-5.018-11.207-11.207v-38.425c0-6.19 5.018-11.207 11.207-11.207 6.19 0 11.207 5.018 11.207 11.207v38.425c0 6.19-5.017 11.207-11.207 11.207z"/><path d="m380.883 92.02c-6.19 0-11.207-5.018-11.207-11.207v-38.425c0-6.19 5.018-11.207 11.207-11.207 6.19 0 11.207 5.018 11.207 11.207v38.425c0 6.19-5.018 11.207-11.207 11.207z"/></g><circle cx="256" cy="247.132" r="110.456"/></g><circle cx="256" cy="247.132" fill="#f9f6f9" r="91.964"/><path d="m304.468 222.82h-24.156v-24.156c0-5.458-4.424-9.882-9.882-9.882h-28.861c-5.457 0-9.882 4.424-9.882 9.882v24.156h-24.156c-5.457 0-9.882 4.424-9.882 9.882v28.861c0 5.457 4.424 9.882 9.882 9.882h24.156v24.155c0 5.457 4.424 9.882 9.882 9.882h28.861c5.457 0 9.882-4.424 9.882-9.882v-24.156h24.156c5.457 0 9.882-4.424 9.882-9.882v-28.861c0-5.457-4.424-9.881-9.882-9.881z" fill="#da387d"/><path d="m190.357 458.129h131.287v20.311h-131.287z" fill="#e2d8ec"/><path d="m95.36 100.915h321.279v21.198h-321.279z" fill="#78c2a4"/><path d="m288.497 436.429h-27.842c-10.433 0-18.89 8.457-18.89 18.89v8.6h65.621v-8.6c.001-10.432-8.457-18.89-18.889-18.89z" fill="#e2d8ec"/></g></svg>