<svg id="Capa_1" enable-background="new 0 0 512 512" height="512" viewBox="0 0 512 512" width="512" xmlns="http://www.w3.org/2000/svg"><g><path d="m512 256c0 116.8-78.23 215.34-185.15 246.07-10.38 2.98-21.04-23.133-31.92-21.483-7.87 1.21-15.86 30.513-23.95 30.973-4.95.29-9.95.44-14.98.44-9.46 0-18.8-.51-27.99-1.52-38.305-4.161-58.38-61.94-89.71-81.104-32.663-19.979-76.194-1.912-97.05-33.966-.02-.04-.04-.08-.06-.11-26.05-40.09-41.19-87.93-41.19-139.3 0-141.38 114.62-256 256-256s256 114.62 256 256z" fill="#f6e266"/><g><path d="m58.139 103.956c-22.905 0-41.473 18.568-41.473 41.473s18.568 41.473 41.473 41.473" fill="#26457d"/><path d="m69.862 190.494c-22.905 0-41.473 18.568-41.473 41.473s18.568 41.473 41.473 41.473" fill="#26457d"/><path d="m252.949 227.984h-226.408c-14.658 0-26.541-11.882-26.541-26.54 0-14.658 11.883-26.541 26.541-26.541h226.409c14.658 0 26.541 11.883 26.541 26.541-.001 14.658-11.884 26.54-26.542 26.54z" fill="#ffcbbe"/><path d="m26.541 212.782c-6.252 0-11.339-5.086-11.339-11.338s5.086-11.339 11.339-11.339h226.408c6.252 0 11.339 5.086 11.339 11.338s-5.086 11.339-11.339 11.339z" fill="#eaac9d"/><path d="m253.589 87.585h-31.869v105.928c0 8.8 7.134 15.934 15.934 15.934 8.8 0 15.934-7.134 15.934-15.934v-105.928z" fill="#30579d"/><path d="m228.43 446.72v63.8c-.14-.02-.28-.03-.42-.04-26.04-2.83-50.9-9.57-74-19.62-9.275-4.029-18.265-40.241-26.93-45.3-11.488-6.706-22.405 17.367-32.66 9.01-20.64-16.81-38.61-36.78-53.17-59.16-.02-.04-.04-.08-.06-.11-.03-.05-.06-.1-.09-.15 10.58-11.25 24.58-19.26 40.34-22.34 4.7-.92 9.56-1.4 14.53-1.4h57.16c2.02 0 4.03.08 6.01.24 38.78 3.06 69.29 35.5 69.29 75.07z" fill="#f9f6f9"/><path d="m154.01 392.32v98.54c-21.57-9.37-41.6-21.63-59.59-36.29v-62.25z" fill="#80b4fb"/><g fill="#e2d8ec"><path d="m187.204 427.696c-8.942 8.942-23.439 8.942-32.381 0l-42.51-42.51 32.381-32.381 42.51 42.51c8.942 8.942 8.942 23.44 0 32.381z"/><path d="m60.562 427.695c8.942 8.942 23.439 8.942 32.381 0l42.51-42.51-32.381-32.381-42.51 42.51c-8.942 8.942-8.942 23.439 0 32.381z"/></g><path d="m158.289 287.332v89.22c0 9.412-3.817 17.93-9.985 24.088-6.158 6.168-14.676 9.985-24.088 9.985-6.63 0-12.818-1.888-18.041-5.173-9.623-6.017-16.032-16.715-16.032-28.9v-89.22z" fill="#ffddce"/><path d="m158.289 287.332v85.032c-4.641.653-9.372.984-14.194.984-19.799 0-38.292-5.625-53.952-15.369v-70.647z" fill="#ffcbbe"/><path d="m106.175 321.967v83.485c-9.623-6.017-16.032-16.715-16.032-28.9v-54.585z" fill="#ffcbbe"/><path d="m144.095 357.98c-56.538 0-102.371-45.833-102.371-102.371v-62.095c0-56.538 45.833-154.506 102.371-154.506 56.538 0 102.371 45.833 102.371 102.371v114.23c0 56.538-45.833 102.371-102.371 102.371z" fill="#ffddce"/><path d="m173.727 353.617c-9.378 2.837-19.318 4.361-29.622 4.361h-.012c-56.536 0-102.37-45.834-102.37-102.37v-62.095c0-56.536 45.834-154.507 102.37-154.507h.012c10.304 0 20.244 1.524 29.622 4.361-42.094 12.695-72.748 51.777-72.748 98.009v114.232c0 46.233 30.654 85.314 72.748 98.009z" fill="#ffcbbe"/><path d="m117.58 201.985c-7.179 0-13-5.82-13-13v-27.082c0-7.179 5.82-13 13-13 7.179 0 13 5.82 13 13v27.082c0 7.18-5.82 13-13 13z" fill="#26457d"/><path d="m197.744 201.985c-7.179 0-13-5.82-13-13v-27.082c0-7.179 5.82-13 13-13 7.179 0 13 5.82 13 13v27.082c-.001 7.18-5.821 13-13 13z" fill="#26457d"/><path d="m170.662 228.526h-25.999v-134.87c0-7.179 5.82-13 13-13 7.179 0 13 5.82 13 13v134.87z" fill="#ffcbbe"/><path d="m152.508 287.294c-24.406 0-44.261-19.856-44.261-44.261 0-4.208 3.411-7.619 7.619-7.619s7.619 3.411 7.619 7.619c0 16.003 13.02 29.023 29.023 29.023 4.208 0 7.619 3.411 7.619 7.619s-3.411 7.619-7.619 7.619z" fill="#eaac9d"/><path d="m73.592 87.585h-31.868v105.928c0 8.8 7.134 15.934 15.934 15.934 8.8 0 15.934-7.134 15.934-15.934z" fill="#26457d"/><path d="m173.233 209.448h-20.944c-8.044 0-14.564 6.521-14.564 14.564 0 8.044 6.521 14.564 14.564 14.564h20.944c8.044 0 14.564-6.521 14.564-14.564 0-8.043-6.521-14.564-14.564-14.564z" fill="#ffcbbe"/><circle cx="73.491" cy="60.299" fill="#30579d" r="56.719"/><path d="m93.821 113.259c-6.307 2.438-13.164 3.763-20.326 3.763-31.322 0-56.723-25.402-56.723-56.723 0-31.322 25.402-56.723 56.723-56.723 7.162 0 14.02 1.325 20.326 3.763-21.287 8.159-36.409 28.801-36.409 52.961s15.122 44.801 36.409 52.959z" fill="#26457d"/><path d="m311.681.69h-132.093c-31.414 0-56.88 25.466-56.88 56.88 0 31.414 25.466 56.88 56.88 56.88h37.854c52.047 0 94.239-42.192 94.239-94.239z" fill="#30579d"/><path d="m174.192 97.789c10.292 10.304 24.511 16.669 40.219 16.669h-34.827c-15.708 0-29.927-6.365-40.219-16.669-10.292-10.292-16.657-24.511-16.657-40.219 0-31.415 25.46-56.876 56.876-56.876h34.827c-31.415 0-56.888 25.46-56.888 56.876 0 15.708 6.365 29.927 16.669 40.219z" fill="#26457d"/></g><path d="m326.85 418.07v84c-17.89 5.14-36.59 8.39-55.87 9.49v-93.49l30.76-7.15z" fill="#f9f6f9"/><path d="m284.452 351.229c-7.438 0-13.468 6.03-13.468 13.468v45.565h26.936v-45.565c0-7.438-6.03-13.468-13.468-13.468z" fill="#ffcbbe"/><path d="m294.93 418.07v90.98c-7.87 1.21-15.86 2.05-23.95 2.51v-93.49z" fill="#e2d8ec"/><path d="m368.252 383.153h-70.159c-14.972 0-27.109 12.137-27.109 27.109v7.808h97.268c9.642 0 17.458-7.816 17.458-17.458 0-9.643-7.816-17.459-17.458-17.459z" fill="#ffddce"/><g><path d="m428.415 317.526c-8.378 8.378-19.363 12.572-30.348 12.572s-21.97-4.193-30.348-12.572l-22.562-22.562 19.871-36.786 40.826-23.911 22.562 22.562c16.756 16.757 16.764 43.932-.001 60.697z" fill="#da387d"/><path d="m405.853 234.267-60.696 60.696-22.553-22.553c-16.765-16.765-16.757-43.94 0-60.696 8.387-8.387 19.363-12.572 30.348-12.572s21.97 4.193 30.348 12.572z" fill="#95d6a4"/><path d="m428.415 317.526c-8.378 8.378-19.363 12.572-30.348 12.572s-21.97-4.193-30.348-12.572l-22.562-22.562 6.703-15.466 15.44-6.676 22.562 22.562c8.378 8.378 19.363 12.572 30.348 12.572 5.871 0 11.733-1.192 17.193-3.577-2.09 4.768-5.083 9.241-8.988 13.147z" fill="#aa3684"/><path d="m367.299 272.822-22.142 22.142-22.553-22.553c-16.765-16.765-16.757-43.939 0-60.696 3.906-3.906 8.378-6.899 13.156-8.995-6.866 15.713-3.873 34.689 8.987 47.549z" fill="#78c2a4"/></g><g><path d="m408.043 302.772c0 11.849-4.803 22.582-12.57 30.349s-18.5 12.57-30.349 12.57h-31.907l-11.961-40.062 11.961-45.776h31.907c23.698.001 42.919 19.21 42.919 42.919z" fill="#80b4fb"/><path d="m333.217 259.854v85.838h-31.895c-23.71 0-42.919-19.221-42.919-42.919 0-11.86 4.802-22.582 12.57-30.349s18.5-12.57 30.349-12.57z" fill="#f9f6f9"/><path d="m408.043 302.773c0 11.849-4.803 22.582-12.57 30.349s-18.5 12.57-30.349 12.57h-31.907l-6.197-15.676 6.197-15.638h31.907c11.849 0 22.581-4.802 30.349-12.57 4.151-4.151 7.453-9.14 9.628-14.686 1.895 4.848 2.942 10.127 2.942 15.651z" fill="#61a2f9"/><path d="m333.217 314.377v31.314h-31.895c-23.71 0-42.919-19.221-42.919-42.919 0-5.523 1.046-10.802 2.942-15.663 6.256 15.965 21.791 27.268 39.977 27.268z" fill="#e2d8ec"/></g><g fill="#ffd064"><path d="m452.32 221.369-.671-2.416c-2.365-8.521 2.271-17.418 10.61-20.361l25.65-9.052c9.188-3.242 19.199 1.975 21.805 11.363l1.666 6.003c2.606 9.388-3.284 19.019-12.829 20.977l-26.646 5.464c-8.66 1.778-17.22-3.457-19.585-11.978z"/><path d="m410.569 149.249-1.789-1.757c-6.309-6.197-6.742-16.22-.992-22.938l17.688-20.664c6.336-7.402 17.615-7.889 24.565-1.062l4.445 4.366c6.951 6.827 6.665 18.113-.622 24.58l-20.344 18.055c-6.613 5.871-16.642 5.617-22.951-.58z"/><path d="m338.351 107.667-2.428-.627c-8.562-2.212-13.949-10.676-12.328-19.369l4.986-26.74c1.786-9.578 11.31-15.64 20.743-13.202l6.032 1.559c9.433 2.437 14.829 12.354 11.752 21.598l-8.591 25.808c-2.791 8.39-11.604 13.185-20.166 10.973z"/></g></g></svg>