<svg id="Capa_1" enable-background="new 0 0 512 512" height="512" viewBox="0 0 512 512" width="512" xmlns="http://www.w3.org/2000/svg"><g><path d="m512 256c0 73.72-31.17 140.17-81.04 186.88-45.77 42.87-107.3-12.06-174.96-12.06-26.41 0-51.88-4-75.85-11.42-37.44-11.6-71.2 49.62-99.11 23.48-49.87-46.71-81.04-113.16-81.04-186.88 0-141.38 114.62-256 256-256s256 114.62 256 256z" fill="#8b5e5e"/><g><g><path d="m256 0c14.782 0 27.206 11.103 28.861 25.792l21.136 187.593h-99.994l21.136-187.593c1.655-14.689 14.079-25.792 28.861-25.792z" fill="#f9f6f9"/><path d="m255.991 0c-4.051.023-7.431 11.117-7.886 25.796l-5.78 187.583h-36.322l21.131-187.583c1.661-14.69 14.076-25.796 28.857-25.796z" fill="#e2d8ec"/></g><path d="m325.621 121.169h-139.241c-34.236 0-61.989 27.754-61.989 61.989v139.241c0 34.236 27.754 61.989 61.989 61.989h139.241c34.236 0 61.989-27.754 61.989-61.989v-139.241c0-34.235-27.754-61.989-61.989-61.989z" fill="#f9f6f9"/><path d="m251.595 384.386h-65.217c-34.238 0-61.988-27.751-61.988-61.988v-139.24c0-34.238 27.751-61.988 61.988-61.988h65.217c-34.238 0-61.988 27.75-61.988 61.988v139.239c0 34.238 27.75 61.989 61.988 61.989z" fill="#e2d8ec"/><path d="m430.96 264.48v178.4c-45.77 42.87-107.3 69.12-174.96 69.12s-129.19-26.25-174.96-69.12v-178.4c0-45.51 36.89-82.41 82.41-82.41h185.1c45.52 0 82.41 36.9 82.41 82.41z" fill="#524798"/><path d="m162.49 264.48v185.12c0 19.25 6.6 36.95 17.66 50.98-37.44-11.6-71.2-31.56-99.11-57.7v-178.4c0-45.51 36.89-82.4 82.41-82.4h81.45c-45.52 0-82.41 36.89-82.41 82.4z" fill="#543673"/><path d="m370.921 315.177v70.297c0 28.475-23.084 51.559-51.559 51.559h-126.719c-11.258 0-21.666-3.611-30.151-9.737-12.975-9.354-21.418-24.605-21.418-41.822v-70.297c0-17.217 8.443-32.469 21.418-41.822 8.484-6.126 18.893-9.737 30.151-9.737h126.719c28.475 0 51.559 23.084 51.559 51.559z" fill="#f6e266"/><path d="m162.493 273.354v153.941c-12.975-9.354-21.418-24.605-21.418-41.822v-70.297c-.001-17.217 8.443-32.468 21.418-41.822z" fill="#ffd064"/><ellipse cx="256" cy="350.325" fill="#f9f6f9" rx="91.258" ry="54.073"/><circle cx="256" cy="350.325" fill="#30579d" r="36.472"/></g><g><path d="m484.006 46.064-45.491-45.491-45.491 45.491c-25.124 25.124-25.124 65.858 0 90.982 25.124 25.124 65.858 25.124 90.982 0 25.124-25.124 25.124-65.858 0-90.982z" fill="#d3effb"/><path d="m438.525 155.89c-16.469 0-32.939-6.281-45.501-18.844-25.112-25.125-25.112-65.852 0-90.977l45.501-45.489-13.593 45.489c-7.5 25.125-7.5 65.852 0 90.977 3.744 12.563 8.668 18.844 13.593 18.844z" fill="#b1e4f9"/></g></g></svg>