<svg id="Capa_1" enable-background="new 0 0 512 512" height="512" viewBox="0 0 512 512" width="512" xmlns="http://www.w3.org/2000/svg"><g><path d="m0 256c0 50.74 14.77 98.03 40.23 137.82 27.77 43.4 68.29 41.071 116.26 61.331 7.91 3.33 320.28-68.521 327.5-82.601 17.91-34.96 28.01-74.57 28.01-116.55s-10.1-81.59-28.01-116.55c-7.22-14.08-15.7-27.4-25.29-39.82-5.92-7.68-12.28-15-19.02-21.95-17.21-17.72-36.97-32.97-58.69-45.14-13.51-7.58-27.79-13.97-42.68-19.01-25.83-8.77-53.52-13.53-82.31-13.53-141.38 0-256 114.62-256 256z" fill="#30579d"/><path d="m180.86 47.25v436.8c0 6.76 1.99 13.06 5.41 18.33 21.67 6.13 44.52 9.47 68.12 9.61.54.01 1.07.01 1.61.01 28.49 0 55.9-4.66 81.5-13.25 39.14-13.13 74.05-35.47 102.18-64.43 6.74-6.95 13.1-14.27 19.02-21.95 9.59-12.42 18.07-25.74 25.29-39.82v-325.3c0-18.62-15.1-33.72-33.72-33.72h-235.69c-18.63 0-33.72 15.1-33.72 33.72z" fill="#785252"/><path d="m155.56 47.25v436.8c0 2.72.32-31.429.93-28.899 7.91 3.33 72.3 56.689 97.9 56.839.54.01 1.07.01 1.61.01 28.49 0 55.9-4.66 81.5-13.25 39.14-13.13 74.05-35.47 102.18-64.43 6.74-6.95 13.1-14.27 19.02-21.95v-365.12c0-18.62-15.1-33.72-33.72-33.72h-235.7c-18.62 0-33.72 15.1-33.72 33.72z" fill="#8b5e5e"/><path d="m174.58 47.25v436.79c0 8.13 6.58 14.71 14.7 14.71h148.22c39.14-13.13 74.05-35.47 102.18-64.43v-387.07c0-8.12-6.58-14.71-14.7-14.71h-235.7c-8.12 0-14.7 6.59-14.7 14.71z" fill="#785252"/><circle cx="378.872" cy="273.65" fill="#f1ce58" r="32.251"/><path d="m389.208 304.21c-3.242 1.093-6.722 1.692-10.335 1.692-17.809 0-32.251-14.433-32.251-32.252 0-17.809 14.443-32.242 32.251-32.242 3.613 0 7.093.59 10.335 1.692-12.741 4.307-21.907 16.354-21.907 30.55s9.166 26.252 21.907 30.56z" fill="#edba59"/><circle cx="307.13" cy="159.952" fill="#30579d" r="19.952"/><ellipse cx="317.515" cy="159.952" fill="#3b66c1" rx="9.568" ry="17.013"/><path d="m98.711 137.339h27.656c5.219 0 9.45-4.231 9.45-9.45v-27.656c0-5.219-4.231-9.45-9.45-9.45h-27.656c-5.219 0-9.45 4.231-9.45 9.45v27.656c0 5.22 4.231 9.45 9.45 9.45z" fill="#e8ebf0"/><path d="m87.888 137.339h27.656c5.219 0 9.45-4.231 9.45-9.45v-27.656c0-5.219-4.231-9.45-9.45-9.45h-27.656c-5.219 0-9.45 4.231-9.45 9.45v27.656c0 5.22 4.231 9.45 9.45 9.45z" fill="#e2d8ec"/><circle cx="101.716" cy="114.062" fill="#3b66c1" r="13.523"/><g fill="#d0eff9"><path d="m101.168 293.298 1.713-.989c6.041-3.488 8.349-11.057 5.283-17.322l-9.431-19.271c-3.378-6.903-11.896-9.501-18.551-5.658l-4.256 2.457c-6.655 3.843-8.664 12.518-4.375 18.895l11.974 17.803c3.893 5.788 11.602 7.573 17.643 4.085z"/><path d="m154.571 275.792h1.978c6.975 0 12.759-5.401 13.237-12.36l1.468-21.405c.526-7.667-5.552-14.176-13.237-14.176h-4.914c-7.685 0-13.763 6.509-13.237 14.176l1.468 21.405c.478 6.959 6.262 12.36 13.237 12.36z"/><path d="m208.239 292.309 1.713.989c6.041 3.488 13.75 1.702 17.643-4.086l11.974-17.803c4.289-6.377 2.28-15.052-4.375-18.895l-4.256-2.457c-6.655-3.842-15.173-1.245-18.551 5.658l-9.431 19.271c-3.066 6.266-.757 13.836 5.283 17.323z"/></g><g><path d="m90.773 322.495h144.386c25.424 0 46.034 20.61 46.034 46.034v97.437c0 25.424-20.61 46.034-46.034 46.034h-144.386c-25.424 0-46.034-20.61-46.034-46.034v-97.437c0-25.424 20.61-46.034 46.034-46.034z" fill="#f9f6f9"/><path d="m126.599 511.999h-35.83c-25.42 0-46.03-20.61-46.03-46.03v-97.44c0-25.43 20.61-46.04 46.03-46.04h35.83c-25.43 0-46.04 20.61-46.04 46.04v97.44c0 25.42 20.61 46.03 46.04 46.03z" fill="#e2d8ec"/><path d="m215.903 390.693h-26.383v-26.383c0-5.961-4.832-10.793-10.793-10.793h-31.523c-5.961 0-10.793 4.832-10.793 10.793v26.383h-26.383c-5.961 0-10.793 4.832-10.793 10.793v31.523c0 5.961 4.832 10.793 10.793 10.793h26.383v26.383c0 5.961 4.832 10.793 10.793 10.793h31.523c5.961 0 10.793-4.832 10.793-10.793v-26.383h26.383c5.961 0 10.793-4.832 10.793-10.793v-31.523c0-5.961-4.832-10.793-10.793-10.793z" fill="#da387d"/></g></g></svg>