<svg id="Capa_1" enable-background="new 0 0 512 512" height="512" viewBox="0 0 512 512" width="512" xmlns="http://www.w3.org/2000/svg"><g><path d="m512 256c0 141.38-114.62 256-256 256-44.51 0-86.36-11.36-122.82-31.34-26.87-14.72-24.924-40.109-44.854-63.099-11.87-13.711-48.206-22.711-56.986-38.741-19.98-36.46-31.34-78.31-31.34-122.82 0-141.38 114.62-256 256-256s256 114.62 256 256z" fill="#da387d"/><path d="m495.2 46.43-96.88 96.88-21.63-21.63 112.86-112.87 2.1 14.01z" fill="#f9f6f9"/><path d="m491.65 22.82-106.91 106.91-8.05-8.05 112.86-112.87z" fill="#e2d8ec"/><g><path d="m403.458 130.259-21.717-21.717c-6.86-6.86-17.982-6.86-24.841 0l-28.494 28.494 46.558 46.558 28.494-28.494c6.86-6.86 6.86-17.981 0-24.841z" fill="#95d6a4"/><path d="m399.368 126.177c-6.859-6.859-17.975-6.859-24.834 0l-28.496 28.496-17.635-17.635 28.496-28.496c6.859-6.859 17.975-6.859 24.834 0z" fill="#78c2a4"/><path d="m387.191 174.659-49.85-49.85c-6.234-6.234-16.34-6.234-22.574 0-6.234 6.234-6.234 16.34 0 22.574l49.85 49.85c6.234 6.234 16.34 6.234 22.574 0 6.234-6.234 6.234-16.341 0-22.574z" fill="#f9f6f9"/><path d="m332.431 158.439c-.007 4.08 1.563 8.167 4.674 11.278l-22.337-22.337c-3.118-3.118-4.681-7.198-4.681-11.285.007-4.08 1.563-8.167 4.681-11.285 6.237-6.237 16.334-6.237 22.571 0l22.337 22.337c-6.23-6.23-16.334-6.237-22.571 0-3.118 3.118-4.674 7.205-4.674 11.292z" fill="#e2d8ec"/><path d="m227.295 415.444-130.739-130.739 151.637-151.637c14.951-14.951 39.191-14.951 54.141 0l76.598 76.598c14.951 14.951 14.951 39.191 0 54.141z" fill="#d3effb"/><path d="m186.173 236.041h31.924v147.648h-31.924z" fill="#a2dae8" transform="matrix(.707 .707 -.707 .707 278.312 -52.173)"/><path d="m111.162 334.331h31.924v101.091h-31.924z" fill="#f9f6f9" transform="matrix(.707 .707 -.707 .707 309.382 22.838)"/><path d="m130.913 342.513h31.924v45.224h-31.924z" fill="#e2d8ec" transform="matrix(.707 .707 -.707 .707 301.201 3.086)"/><path d="m114.132 327.159h11.639v101.091h-11.639z" fill="#e2d8ec" transform="matrix(.707 .707 -.707 .707 302.211 25.809)"/><path d="m345.844 176.569c-14.948-14.948-39.188-14.948-54.143.007l-151.632 151.632-43.508-43.508 151.632-151.632c14.955-14.955 39.195-14.955 54.143-.007z" fill="#b1e4f9"/><path d="m364.791 249.67-70.463 70.463-102.46-102.46 70.463-70.463c7.128-7.128 18.731-7.135 25.866 0l76.594 76.594c7.128 7.128 7.128 18.738 0 25.866z" fill="#80b4fb"/><path d="m242.498 413.717-144.215-144.215c-7.532-7.532-19.744-7.532-27.276 0-7.532 7.532-7.532 19.744 0 27.276l144.216 144.216c7.532 7.532 19.744 7.532 27.276 0 7.531-7.532 7.531-19.744-.001-27.277z" fill="#f9f6f9"/><path d="m143.42 463.62c0 4.93-1.88 9.87-5.65 13.64-1.39 1.39-2.94 2.52-4.59 3.4-42.9-23.5-78.34-58.94-101.84-101.84.88-1.65 2.01-3.2 3.4-4.59 7.54-7.53 19.75-7.53 27.28 0l75.75 75.75c3.77 3.76 5.65 8.7 5.65 13.64z" fill="#f9f6f9"/><path d="m95.18 407.39c-7.53-7.53-19.75-7.53-27.28 0-3.76 3.76-5.64 8.7-5.64 13.63 0 .84.05 1.68.17 2.52-11.87-13.71-22.31-28.69-31.09-44.72.88-1.65 2.01-3.2 3.4-4.59 7.53-7.53 19.75-7.53 27.28 0z" fill="#e2d8ec"/><path d="m307.911 166.924c-5.94 1.754-11.533 4.971-16.214 9.652l-70.463 70.463-29.366-29.366 70.463-70.463c7.128-7.128 18.731-7.135 25.866 0z" fill="#61a2f9"/><path d="m112.619 330.405c0 4.936 1.881 9.871 5.643 13.633l-47.263-47.263c-3.762-3.762-5.643-8.697-5.643-13.633s1.881-9.871 5.65-13.64c7.531-7.531 19.742-7.538 27.273-.007l47.263 47.263c-7.531-7.531-19.742-7.524-27.273.007-3.769 3.769-5.65 8.704-5.65 13.64z" fill="#e2d8ec"/><path d="m161.807 264.741h144.9v26.006h-144.9z" fill="#a2dae8" transform="matrix(.707 .707 -.707 .707 265.007 -84.295)"/></g><path d="m276.495 116.057h-16.485v-16.486c0-9.773-7.923-17.695-17.696-17.695-9.773 0-17.696 7.923-17.696 17.695v16.485h-16.485c-9.773 0-17.695 7.923-17.695 17.696 0 9.773 7.923 17.696 17.695 17.696h16.485v16.485c0 9.773 7.923 17.696 17.696 17.696 9.773 0 17.696-7.923 17.696-17.696v-16.485h16.485c9.773 0 17.696-7.923 17.696-17.696 0-9.773-7.923-17.695-17.696-17.695z" fill="#fff"/></g></svg>