<svg id="Capa_1" enable-background="new 0 0 512 512" height="512" viewBox="0 0 512 512" width="512" xmlns="http://www.w3.org/2000/svg"><g><path d="m512 256c0 55.57-17.71 107.01-47.8 148.98-46.44 64.8-122.39-3.104-208.2-3.104-48.38 0-93.63-13.42-132.22-36.75-29.85-18.04-55.72 68.114-75.98 39.854-30.09-41.97-47.8-93.41-47.8-148.98s17.71-107.01 47.8-148.98c11.21-15.64 24.14-29.97 38.52-42.71 0-.01 0-.01.01-.01 11.59-10.27 24.12-19.5 37.45-27.55 38.59-23.33 83.84-36.75 132.22-36.75s93.63 13.42 132.22 36.75c74.18 44.83 123.78 126.25 123.78 219.25z" fill="#80b4fb"/><g><g><path d="m438.497 54.97c1.659-5.789 4.038-11.888 7.335-18.224l-30.813-16.844h-316.472l-33.955 52.973 35.315 96.435 345.925-54.095s-4.667-6.459-7.788-17.626c-1.247-4.44-2.246-9.622-2.606-15.453-.237-3.657-.216-7.572.155-11.713.431-4.852 1.348-10.024 2.904-15.453z" fill="#f9f6f9"/><path d="m458.82 120.59c3.33 3.33 5.38 7.93 5.38 13v271.39c-46.44 64.8-122.39 107.02-208.2 107.02s-161.76-42.22-208.2-107.02v-329c0-35.48 24.45-65.36 57.39-73.67 5.95-1.51 12.18-2.31 18.59-2.31h322.04c10.15 0 18.38 8.22 18.38 18.37s-8.23 18.38-18.38 18.38h-322.04c-4.92 0-9.64.91-13.99 2.58-11.16 4.27-19.89 13.5-23.47 24.98-1.16 3.69-1.78 7.61-1.78 11.67 0 20.09 15.16 36.68 34.65 38.96 1.51.18 3.04.27 4.59.27h322.04c5.08 0 9.67 2.07 13 5.38z" fill="#da387d"/><path d="m464.2 133.59c0 10.15-8.22 18.38-18.37 18.38h-322.05v323.28c-29.85-18.04-55.72-42.01-75.98-70.27v-329c0-41.89 34.08-75.98 75.98-75.98h322.05c10.15 0 18.37 8.23 18.37 18.37 0 10.15-8.22 18.38-18.37 18.38h-322.05c-17.56 0-32.47 11.6-37.45 27.55-.01 0-.01 0-.01.01-1.15 3.68-1.77 7.61-1.77 11.67 0 20.07 15.14 36.66 34.6 38.96h.04c1.51.18 3.04.28 4.59.28h322.05c10.15 0 18.37 8.23 18.37 18.37z" fill="#aa3684"/><g fill="#e2d8ec"><path d="m438.043 97.589c-1.247-4.44-2.246-9.622-2.606-15.453h-310.219c-4.265 0-7.726 3.451-7.726 7.726 0 4.265 3.461 7.726 7.726 7.726h312.825z"/><path d="m438.497 54.97h-190.975c-4.265 0-7.726 3.462-7.726 7.726 0 4.265 3.461 7.726 7.726 7.726h188.07c.432-4.851 1.349-10.023 2.905-15.452z"/></g></g><path d="m361.008 456.907h-156.639c-29.474 0-53.367-23.893-53.367-53.367v-151.65c0-29.474 23.893-53.367 53.367-53.367h156.639c29.474 0 53.367 23.893 53.367 53.367v151.65c0 29.474-23.893 53.367-53.367 53.367z" fill="#f9f6f9"/><g><g><path d="m366.822 347.876c-8.955 8.955-20.695 13.436-32.435 13.436s-23.48-4.482-32.435-13.436l-24.113-24.113 21.237-39.315 43.633-25.555 24.113 24.113c17.91 17.909 17.918 46.952 0 64.87z" fill="#da387d"/><path d="m342.709 258.892-64.87 64.87-24.104-24.104c-17.918-17.918-17.909-46.961 0-64.87 8.963-8.963 20.695-13.436 32.435-13.436s23.481 4.482 32.435 13.436z" fill="#95d6a4"/><path d="m366.822 347.876c-8.955 8.955-20.695 13.436-32.435 13.436s-23.48-4.482-32.435-13.436l-24.113-24.113 7.164-16.53 16.501-7.136 24.113 24.113c8.955 8.955 20.695 13.436 32.435 13.436 6.274 0 12.54-1.274 18.375-3.823-2.232 5.098-5.431 9.879-9.605 14.053z" fill="#aa3684"/><path d="m301.504 300.098-23.665 23.665-24.104-24.104c-17.918-17.918-17.909-46.961 0-64.87 4.174-4.174 8.954-7.373 14.06-9.614-7.338 16.793-4.139 37.075 9.605 50.819z" fill="#78c2a4"/></g><g><path d="m345.05 332.108c0 12.664-5.133 24.134-13.434 32.436-8.302 8.302-19.772 13.434-32.436 13.434h-34.102l-12.783-42.817 12.783-48.923h34.102c25.327 0 45.87 20.53 45.87 45.87z" fill="#80b4fb"/><path d="m265.078 286.238v91.74h-34.089c-25.34 0-45.87-20.543-45.87-45.87 0-12.676 5.132-24.134 13.434-32.436s19.772-13.434 32.436-13.434z" fill="#f6e266"/><path d="m345.05 332.108c0 12.664-5.133 24.134-13.434 32.436-8.302 8.302-19.772 13.434-32.436 13.434h-34.102l-6.623-16.754 6.623-16.714h34.102c12.664 0 24.134-5.133 32.436-13.434 4.437-4.437 7.966-9.768 10.29-15.696 2.025 5.183 3.144 10.825 3.144 16.728z" fill="#61a2f9"/><path d="m265.078 344.511v33.467h-34.089c-25.34 0-45.87-20.543-45.87-45.87 0-5.903 1.118-11.545 3.144-16.74 6.686 17.063 23.289 29.143 42.726 29.143z" fill="#ffd064"/></g></g><path d="m365.491 431.967h-165.605c-8.816 0-15.962-7.146-15.962-15.962 0-8.816 7.146-15.962 15.962-15.962h165.605c8.816 0 15.962 7.146 15.962 15.962 0 8.815-7.146 15.962-15.962 15.962z" fill="#30579d"/></g></g></svg>