<svg id="Capa_1" enable-background="new 0 0 512 512" height="512" viewBox="0 0 512 512" width="512" xmlns="http://www.w3.org/2000/svg"><g><path d="m512 256c0 141.38-114.62 256-256 256-28.37 0-55.66-4.62-81.16-13.14-59.67-19.93-47.974-100.364-78.974-153.953-3.66-6.3-68.626 26.353-71.736 19.723-15.48-32.98-24.13-69.79-24.13-108.63 0-141.38 114.62-256 256-256 19.06 0 37.64 2.08 55.51 6.04 19.87 4.39 38.88 11.09 56.72 19.82 6.94 3.38 13.7 7.08 20.27 11.06 20.94 12.69 39.92 28.3 56.37 46.26 41.68 45.54 67.13 106.21 67.13 172.82z" fill="#da387d"/><g><g><path d="m462.7 177.28-54.22 54.23c6.05-6.05 14.01-9.09 21.96-9.08 7.91 0 15.88 3.03 21.95 9.09 12.12 12.13 12.11 31.78 0 43.9l-80.188 80.181-46.439 17.571c-20.04 20.04-50.77 26.901-78.48 32.811-8.58 1.82-11.869 8.245-19.509 12.415-7.63 4.14-15.516 15.516-21.726 21.726l-40.792 31.924c-66.69-22.27-40.052-44.438-69.612-107.418l13.745-51.315c8.29-8.29 10.621-19.297 10.641-31.037l-25.4-101.898v-97.73c-.02-11.71 4.71-22.3 12.39-29.98s18.27-12.41 29.96-12.41c2.74 0 5.43.27 8.02.77 19.6 3.75 34.37 20.95 34.37 41.62l.02 54.26-.01.01.01.01 29.199-3.529 9.12-34.79 87.431-87.431c1.97-1.97 4.11-3.69 6.37-5.14 6.26-4.02 13.44-6.03 20.61-6.04 9.75.01 19.52 3.73 26.96 11.16 4.28 4.28 7.33 9.33 9.15 14.7 4.5 13.26 1.5 28.49-8.97 39.09l22.94-22.94c1.95-1.95 4.06-3.64 6.3-5.09 14.96-9.7 35.44-8.27 48.34 4.87 2.11 2.14 3.92 4.46 5.42 6.93 3.68 6.06 5.51 12.92 5.54 19.79 0 4.99-.98 9.99-2.93 14.67-1.87 4.47-4.62 8.67-8.26 12.3l-27.87 27.87c14.91-14.91 39.06-14.91 53.97-.01 7.44 7.45 11.17 17.21 11.17 26.99 0 9.76-3.72 19.5-11.18 26.95z" fill="#ffddce"/></g><g><path d="m344.847 295.147 63.632-63.632c12.129-12.129 31.783-12.129 43.904-.007 1.77 1.77 3.274 3.704 4.528 5.749-11.956-7.329-27.798-5.824-38.156 4.533l-53.356 53.356c-5.675 5.677-14.877 5.677-20.552.001z" fill="#ffcbbe"/></g><g fill="#ffcbbe"><path d="m364.733 18.368c-6.054-3.678-12.911-5.528-19.775-5.521-9.759 0-19.526 3.719-26.977 11.17l-132.004 132.003.639-13.827-7.233-5.267 29.206-3.525 9.115-34.795 87.433-87.433c7.451-7.451 17.217-11.17 26.977-11.17 9.766-.007 19.533 3.726 26.977 11.17 2.213 2.214 4.089 4.63 5.642 7.195z"/><path d="m442.251 48.717c-6.052-3.671-12.909-5.523-19.755-5.512-9.767 0-19.524 3.715-26.976 11.167l-106.163 106.163c-7.099 7.088-18.598 7.088-25.686 0l95.579-95.579 22.941-22.941c14.96-14.96 39.819-15.335 54.658-.243 2.106 2.15 3.914 4.476 5.402 6.945z"/><path d="m316.772 215.326 91.98-91.98c7.451-7.451 17.217-11.17 26.977-11.17 9.766-.007 19.533 3.726 26.977 11.17 2.214 2.214 4.09 4.63 5.642 7.195-6.054-3.678-12.911-5.528-19.775-5.521-9.759 0-19.526 3.719-26.977 11.17l-79.136 79.136c-7.094 7.094-18.594 7.094-25.688 0z"/></g><g><path d="m124.15 209.91v-127.26c.02-11.71 4.75-22.3 12.43-29.98 1.4-1.4 2.92-2.72 4.51-3.9 3.22-2.44 6.81-4.42 10.66-5.86-2.19-.8-4.43-1.43-6.75-1.88-2.59-.5-5.26-.76-8-.76-11.7-.01-22.32 4.74-29.98 12.4-7.68 7.68-12.41 18.27-12.4 29.98v97.73l13.883 28.517z" fill="#ffcbbe"/></g><path d="m217.699 98.603.008.008 9.635 16.037 144.858 240.952-35.657 35.657c-7.62 7.62-16.013 14.325-25.011 20.058-14.683 9.332-30.983 16.029-48.167 19.692-8.576 1.823-16.785 4.873-24.422 9.038-7.636 4.149-14.651 9.364-20.862 15.575l-38.691-318.693-.008-.008z" fill="#f9f6f9"/><path d="m233.98 319.73-15.9 135.89-43.24 43.24c-66.69-22.27-121.15-71.25-150.71-134.23l57.53-57.53c8.29-8.29 12.95-19.54 12.97-31.28v-95.44z" fill="#f9f6f9"/><g><path d="m124.15 209.91v65.91c.02 11.74-4.64 22.99-12.93 31.28l-76.93 76.93c-3.66-6.3-7.05-12.77-10.16-19.4l57.53-57.53c8.29-8.29 12.95-19.54 12.97-31.28v-95.44z" fill="#e2d8ec"/></g><path d="m198.804 117.498 112.729 293.818c-14.683 9.332-30.983 16.029-48.167 19.692-8.576 1.823-16.785 4.873-24.422 9.038-7.636 4.149-14.651 9.364-20.862 15.575l-38.691-318.693-.008-.008z" fill="#e2d8ec"/><path d="m217.699 98.603.009.008 9.635 16.037-35.116 35.116-12.844-12.845z" fill="#e2d8ec"/><path d="m137.844 295.325h19.473v191.198h-19.473z" fill="#e2d8ec" transform="matrix(.707 -.707 .707 .707 -233.2 218.854)"/></g></g></svg>