<svg id="Capa_1" enable-background="new 0 0 512 512" height="512" viewBox="0 0 512 512" width="512" xmlns="http://www.w3.org/2000/svg"><g><path d="m512 256c0 141.385-114.615 256-256 256-22.755 0-44.817-2.969-65.82-8.541-14.6-3.873-19.427-41.345-32.88-47.611-9.735-4.534-28.398 22.679-37.42 17.003-8.292-5.216-16.265-10.895-23.88-17-21.869-17.531 16.462-51.92 1.328-75.625-3.155-4.942-63.406 3.343-66.224-1.822-19.833-36.363-31.104-78.067-31.104-122.404 0-141.385 114.615-256 256-256s256 114.615 256 256z" fill="#80b4fb"/><g><path d="m367.668 89.585h-26.905c-9.375 0-16.975 7.6-16.975 16.975v50.33h60.855v-50.33c0-9.375-7.6-16.975-16.975-16.975z" fill="#da387d"/><path d="m366.698 89.58c-9.37 0-16.97 7.6-16.97 16.98v50.33h-25.94v-50.33c0-9.38 7.6-16.98 16.97-16.98z" fill="#aa3684"/><path d="m387.867 140.131h-67.636c-9.606 0-17.393 7.787-17.393 17.393v22.511h102.422v-22.511c0-9.606-7.787-17.393-17.393-17.393z" fill="#524798"/><path d="m355.148 140.125c-9.61 0-17.4 7.79-17.4 17.4v22.51h-34.91v-22.51c0-9.61 7.79-17.4 17.39-17.4z" fill="#543673"/><path d="m493.268 421.274h-24.405v-48.81h17.308c3.919 0 7.097 3.177 7.097 7.097z" fill="#30579d"/><path d="m485.33 371.29v84.56h-389.33c-10.3-8.25-19.94-17.28-28.83-27-13.96-15.24-26.09-32.17-36.06-50.45v-178.98c0-23.49 46.49-42.53 69.99-42.53h290.66c23.49 0 42.53 19.04 42.53 42.53v8.72l-9.77 84.12 9.77 33.02 43.39 31.12c1.56 1.11 2.9 2.45 4.02 3.95 2.08 2.78 3.33 6.12 3.58 9.64.03.43.05.87.05 1.3z" fill="#f9f6f9"/><path d="m481.48 428.85v27h-385.48c-10.3-8.25-19.94-17.28-28.83-27z" fill="#e2d8ec"/><path d="m101.1 156.89c-23.5 0-42.53 19.04-42.53 42.53v219.55c-10.39-12.57-19.59-26.15-27.46-40.57v-178.98c0-23.49 19.04-42.53 42.53-42.53z" fill="#e2d8ec"/><path d="m455.907 464.39h27.947c8.345 0 15.109-6.765 15.109-15.109v-24.693c0-8.345-6.765-15.109-15.109-15.109h-27.947c-8.345 0-15.109 6.765-15.109 15.109v24.693c-.001 8.344 6.764 15.109 15.109 15.109z" fill="#d3effb"/><path d="m476.887 464.383h-20.98c-8.348 0-15.109-6.761-15.109-15.109v-24.686c0-8.348 6.761-15.109 15.109-15.109h20.98c-8.348 0-15.109 6.761-15.109 15.109v24.686c0 8.348 6.761 15.109 15.109 15.109z" fill="#b1e4f9"/><g><path d="m221.16 455.85c0 21.25-12.73 39.52-30.98 47.61-25.17-6.68-48.81-17.09-70.3-30.61-1.85-5.33-2.85-11.05-2.85-17 0-28.76 23.31-52.07 52.07-52.07 28.75 0 52.06 23.31 52.06 52.07z" fill="#30579d"/><path d="m129.23 455.85c0 9.73 2.67 18.84 7.32 26.63-5.69-3.01-11.25-6.22-16.67-9.63h-.01c-1.84-5.33-2.84-11.05-2.84-17 0-28.75 23.31-52.06 52.07-52.06 2.07 0 4.1.12 6.1.36-25.88 3.01-45.97 25.01-45.97 51.7z" fill="#26457d"/><circle cx="169.097" cy="455.848" fill="#f9f6f9" r="26.439"/><path d="m176.418 481.25c-2.321.679-4.779 1.037-7.321 1.037-14.604 0-26.439-11.834-26.439-26.439s11.834-26.439 26.439-26.439c2.541 0 5 .358 7.321 1.037-11.036 3.165-19.118 13.339-19.118 25.402s8.082 22.237 19.118 25.402z" fill="#e2d8ec"/></g><circle cx="383.65" cy="455.848" fill="#30579d" r="52.064"/><path d="m389.756 507.56c-2 .239-4.036.358-6.101.358-28.759 0-52.07-23.31-52.07-52.07 0-28.75 23.31-52.061 52.07-52.061 2.064 0 4.101.119 6.101.358-25.888 3.018-45.969 25.017-45.969 51.703 0 26.696 20.081 48.694 45.969 51.712z" fill="#26457d"/><circle cx="383.65" cy="455.848" fill="#f9f6f9" r="26.439"/><path d="m390.971 481.25c-2.321.679-4.779 1.037-7.321 1.037-14.604 0-26.439-11.834-26.439-26.439s11.834-26.439 26.439-26.439c2.541 0 5 .358 7.321 1.037-11.036 3.165-19.118 13.339-19.118 25.402s8.082 22.237 19.118 25.402z" fill="#e2d8ec"/><path d="m418.698 325.281h15.592v-117.144h-15.592c-8.911 0-16.135 7.224-16.135 16.135v84.874c0 8.912 7.224 16.135 16.135 16.135z" fill="#26457d"/><path d="m370.405 208.137h-38.764c-9.089 0-16.457 7.368-16.457 16.457v84.23c0 9.089 7.368 16.457 16.457 16.457h38.764c9.089 0 16.457-7.368 16.457-16.457v-84.23c0-9.089-7.368-16.457-16.457-16.457z" fill="#26457d"/><path d="m362.934 352.737h12.203c5.223 0 9.457-4.234 9.457-9.457 0-5.223-4.234-9.457-9.457-9.457h-12.203c-5.223 0-9.457 4.234-9.457 9.457 0 5.223 4.234 9.457 9.457 9.457z" fill="#e2d8ec"/><circle cx="452.702" cy="381.618" fill="#f6e266" r="16.582"/><path d="m457.942 397.339c-1.653.564-3.412.853-5.236.853-9.159 0-16.586-7.414-16.586-16.573s7.427-16.586 16.586-16.586c1.824 0 3.582.289 5.236.853-6.587 2.178-11.351 8.398-11.351 15.733s4.764 13.541 11.351 15.72z" fill="#ffd064"/><g fill="#30579d"><path d="m369.536 299.046h-7.25c-3.389 0-6.137-2.748-6.137-6.137v-66.432c0-3.389 2.748-6.137 6.137-6.137h7.25c3.389 0 6.137 2.748 6.137 6.137v66.432c0 3.389-2.747 6.137-6.137 6.137z"/><path d="m424.492 299.046h-7.25c-3.389 0-6.137-2.748-6.137-6.137v-66.432c0-3.389 2.748-6.137 6.137-6.137h7.25c3.389 0 6.137 2.748 6.137 6.137v66.432c0 3.389-2.748 6.137-6.137 6.137z"/></g></g><g fill="#da387d"><path d="m434.497 78.693-2.088-1.181c-7.363-4.164-10.245-13.318-6.595-20.948l11.227-23.472c4.021-8.407 14.322-11.65 22.435-7.063l5.188 2.933c8.112 4.587 10.643 15.086 5.511 22.865l-14.327 21.719c-4.658 7.062-13.987 9.311-21.351 5.147z"/><path d="m357.476 58.152-2.398.021c-8.458.076-15.531-6.411-16.186-14.844l-2.013-25.941c-.721-9.292 6.578-17.251 15.897-17.334l5.959-.053c9.319-.084 16.76 7.743 16.206 17.046l-1.548 25.973c-.503 8.444-7.459 15.056-15.917 15.132z"/><path d="m280.503 78.874-2.066 1.218c-7.287 4.295-16.656 2.214-21.439-4.763l-14.715-21.459c-5.27-7.686-2.928-18.229 5.101-22.961l5.134-3.026c8.029-4.732 18.386-1.674 22.558 6.66l11.646 23.267c3.785 7.565 1.068 16.769-6.219 21.064z"/></g><g><path d="m251.052 325.512c-8.378 8.378-19.363 12.572-30.348 12.572s-21.97-4.193-30.348-12.572l-22.562-22.562 19.871-36.786 40.826-23.911 22.562 22.562c16.756 16.758 16.764 43.932-.001 60.697z" fill="#da387d"/><path d="m228.49 242.254-60.696 60.696-22.553-22.553c-16.765-16.765-16.757-43.939 0-60.696 8.387-8.387 19.363-12.572 30.348-12.572s21.97 4.193 30.348 12.572z" fill="#95d6a4"/><path d="m251.052 325.512c-8.378 8.378-19.363 12.572-30.348 12.572s-21.97-4.193-30.348-12.572l-22.562-22.562 6.703-15.466 15.44-6.676 22.562 22.562c8.378 8.378 19.363 12.572 30.348 12.572 5.871 0 11.733-1.192 17.193-3.577-2.09 4.769-5.082 9.242-8.988 13.147z" fill="#aa3684"/><path d="m189.936 280.808-22.142 22.142-22.553-22.553c-16.765-16.765-16.757-43.939 0-60.696 3.906-3.906 8.378-6.898 13.156-8.995-6.866 15.713-3.873 34.689 8.987 47.549z" fill="#78c2a4"/></g><g><path d="m230.68 310.759c0 11.849-4.803 22.582-12.57 30.349s-18.5 12.57-30.349 12.57h-31.907l-11.961-40.062 11.961-45.776h31.907c23.698 0 42.919 19.209 42.919 42.919z" fill="#80b4fb"/><path d="m155.854 267.84v85.838h-31.895c-23.71 0-42.919-19.221-42.919-42.919 0-11.861 4.802-22.582 12.57-30.349s18.5-12.57 30.349-12.57z" fill="#f6e266"/><path d="m230.68 310.759c0 11.849-4.803 22.582-12.57 30.349s-18.5 12.57-30.349 12.57h-31.907l-6.196-15.676 6.196-15.638h31.907c11.849 0 22.581-4.802 30.349-12.57 4.151-4.151 7.453-9.14 9.628-14.686 1.896 4.848 2.942 10.128 2.942 15.651z" fill="#61a2f9"/><path d="m155.854 322.364v31.314h-31.895c-23.71 0-42.919-19.221-42.919-42.919 0-5.523 1.046-10.802 2.942-15.663 6.256 15.965 21.791 27.268 39.977 27.268z" fill="#ffd064"/></g></g></svg>