<svg id="Capa_1" enable-background="new 0 0 512 512" height="512" viewBox="0 0 512 512" width="512" xmlns="http://www.w3.org/2000/svg"><g><path d="m512 256c0 85.63-42.05 161.44-106.62 207.91-42.04 30.26-93.63 8.495-149.38 8.495-29.05 0-43.674 11.278-69.704 2.358-23.92-8.19-59.546 3.647-79.676-10.853-64.57-46.47-106.62-122.28-106.62-207.91 0-141.38 114.62-256 256-256s256 114.62 256 256z" fill="#95d6a4"/><g><circle cx="161.524" cy="409.575" fill="#f9f6f9" r="21.283"/><path d="m169.281 429.395c-2.4.94-5.02 1.46-7.76 1.46-11.75 0-21.28-9.53-21.28-21.28 0-11.76 9.53-21.29 21.28-21.29 2.74 0 5.36.52 7.76 1.46-7.92 3.1-13.52 10.81-13.52 19.83 0 9.01 5.6 16.72 13.52 19.82z" fill="#e2d8ec"/></g><g><circle cx="350.794" cy="197.061" fill="#f9f6f9" r="21.283"/><path d="m358.551 216.881c-2.4.94-5.02 1.46-7.76 1.46-11.75 0-21.28-9.53-21.28-21.28 0-11.76 9.53-21.29 21.28-21.29 2.74 0 5.36.52 7.76 1.46-7.92 3.1-13.52 10.81-13.52 19.83 0 9.01 5.6 16.72 13.52 19.82z" fill="#e2d8ec"/></g><g><circle cx="142.293" cy="198.727" fill="#f9f6f9" r="21.283"/><path d="m150.05 218.547c-2.4.94-5.02 1.46-7.76 1.46-11.75 0-21.28-9.53-21.28-21.28 0-11.76 9.53-21.29 21.28-21.29 2.74 0 5.36.52 7.76 1.46-7.92 3.1-13.52 10.81-13.52 19.83.001 9.01 5.6 16.72 13.52 19.82z" fill="#e2d8ec"/></g><g><path d="m241.71 106.278-153.108 153.108-56.892-56.892c-42.291-42.291-42.269-110.838 0-153.108 21.155-21.155 48.844-31.713 76.554-31.713s55.42 10.578 76.554 31.713z" fill="#524798"/><path d="m144.456 203.531-55.855 55.855-56.891-56.892c-42.291-42.291-42.269-110.838 0-153.108 9.852-9.852 21.135-17.402 33.185-22.69-17.319 39.635-9.769 87.505 22.669 119.943z" fill="#543673"/><path d="m423.396 259.386-153.108-153.108 56.892-56.892c42.291-42.291 110.838-42.269 153.108 0 21.155 21.156 31.712 48.845 31.712 76.554 0 27.71-10.578 55.42-31.713 76.554z" fill="#f6e266"/><path d="m326.142 162.133-55.855-55.855 56.892-56.892c42.291-42.291 110.838-42.269 153.108 0 9.852 9.852 17.402 21.135 22.69 33.185-39.635-17.319-87.505-9.769-119.943 22.669z" fill="#ffd064"/></g><path d="m405.38 463.91c-42.04 30.26-93.63 48.09-149.38 48.09-29.05 0-56.97-4.84-83-13.76-23.92-8.19-46.25-19.83-66.38-34.33l123.83-93.03c15.14-11.36 35.96-11.36 51.1 0z" fill="#f9f6f9"/><path d="m256 362.36c-3.82 0-7.65 2.84-10.87 8.52l-72.13 127.36c-23.92-8.19-46.25-19.83-66.38-34.33l123.84-93.03c7.56-5.68 16.56-8.52 25.54-8.52z" fill="#e2d8ec"/><g><circle cx="159.238" cy="265.861" fill="#f9f6f9" r="21.283"/><path d="m166.995 285.681c-2.4.94-5.02 1.46-7.76 1.46-11.75 0-21.28-9.53-21.28-21.28 0-11.76 9.53-21.29 21.28-21.29 2.74 0 5.36.52 7.76 1.46-7.92 3.1-13.52 10.81-13.52 19.83 0 9.01 5.6 16.72 13.52 19.82z" fill="#e2d8ec"/></g><g><circle cx="283.953" cy="256.004" fill="#f9f6f9" r="21.283"/><path d="m291.71 275.824c-2.4.94-5.02 1.46-7.76 1.46-11.75 0-21.28-9.53-21.28-21.28 0-11.76 9.53-21.29 21.28-21.29 2.74 0 5.36.52 7.76 1.46-7.92 3.1-13.52 10.81-13.52 19.83 0 9.01 5.6 16.72 13.52 19.82z" fill="#e2d8ec"/></g><g><circle cx="218.11" cy="203.047" fill="#f9f6f9" r="21.283"/><path d="m225.867 222.867c-2.4.94-5.02 1.46-7.76 1.46-11.75 0-21.28-9.53-21.28-21.28 0-11.76 9.53-21.29 21.28-21.29 2.74 0 5.36.52 7.76 1.46-7.92 3.1-13.52 10.81-13.52 19.83 0 9.01 5.6 16.72 13.52 19.82z" fill="#e2d8ec"/></g><g><circle cx="330.618" cy="328.818" fill="#f9f6f9" r="21.283"/><path d="m338.375 348.638c-2.4.94-5.02 1.46-7.76 1.46-11.75 0-21.28-9.53-21.28-21.28 0-11.76 9.53-21.29 21.28-21.29 2.74 0 5.36.52 7.76 1.46-7.92 3.1-13.52 10.81-13.52 19.83 0 9.01 5.6 16.72 13.52 19.82z" fill="#e2d8ec"/></g><g><circle cx="215.891" cy="328.818" fill="#f9f6f9" r="21.283"/><path d="m223.649 348.638c-2.4.94-5.02 1.46-7.76 1.46-11.75 0-21.28-9.53-21.28-21.28 0-11.76 9.53-21.29 21.28-21.29 2.74 0 5.36.52 7.76 1.46-7.92 3.1-13.52 10.81-13.52 19.83 0 9.01 5.6 16.72 13.52 19.82z" fill="#e2d8ec"/></g></g></svg>