<svg id="Capa_1" enable-background="new 0 0 512 512" height="512" viewBox="0 0 512 512" width="512" xmlns="http://www.w3.org/2000/svg"><g><circle cx="256" cy="256" fill="#da387d" r="256"/><g><path d="m387.05 439.82-8.906 8.906c-63.604 63.604-167.096 63.604-230.7 0l-89.765-89.766c-63.604-63.604-63.604-167.096 0-230.7l8.906-8.906 84.853 84.853-8.906 8.906c-16.816 16.816-16.816 44.178 0 60.994l89.765 89.765c16.816 16.816 44.178 16.816 60.994 0l8.906-8.906z" fill="#80b4fb"/><path d="m92.476 324.164 89.767 89.767c54.702 54.702 138.911 62.36 201.872 22.96l2.934 2.934-8.902 8.902c-63.604 63.604-167.096 63.604-230.701 0l-89.767-89.767c-63.597-63.597-63.597-167.089.007-230.694l8.902-8.902 2.935 2.935c-39.4 62.961-31.741 147.17 22.953 201.865z" fill="#61a2f9"/><path d="m188.245 188.832-17.382 17.382c-8.706 8.706-22.821 8.706-31.527 0l-72.876-72.876c-8.706-8.706-8.706-22.821 0-31.527l17.382-17.382c8.706-8.706 22.821-8.706 31.527 0l72.876 72.876c8.706 8.705 8.706 22.821 0 31.527z" fill="#f9f6f9"/><path d="m424.328 424.914-17.382 17.382c-8.706 8.706-22.821 8.706-31.527 0l-72.876-72.876c-8.706-8.706-8.706-22.821 0-31.527l17.382-17.382c8.706-8.706 22.821-8.706 31.527 0l72.876 72.876c8.706 8.706 8.706 22.821 0 31.527z" fill="#f9f6f9"/><g fill="#e2d8ec"><path d="m389.998 359.061 34.33 34.33c8.704 8.704 8.704 22.818 0 31.523l-17.388 17.388c-8.704 8.704-22.819 8.704-31.523 0l-34.33-34.33c8.705 8.705 22.818 8.704 31.523 0l17.388-17.388c8.704-8.705 8.704-22.818 0-31.523z"/><path d="m153.915 122.978 34.33 34.33c8.704 8.704 8.704 22.818 0 31.523l-17.388 17.388c-8.704 8.704-22.819 8.704-31.523 0l-34.33-34.33c8.705 8.705 22.818 8.704 31.523 0l17.388-17.388c8.704-8.704 8.704-22.818 0-31.523z"/></g></g><path d="m457.055 16.163h-165.846c-30.346 0-54.945 24.6-54.945 54.945v104.055c0 30.345 24.6 54.945 54.945 54.945h18.214v18.221c0 17.271 17.996 28.648 33.598 21.242l83.123-39.462h30.91c30.345 0 54.945-24.6 54.945-54.945v-104.056c.001-30.345-24.599-54.945-54.944-54.945z" fill="#f9f6f9"/><g><path d="m439.005 188.008c-10.274 10.274-23.743 15.415-37.213 15.415s-26.939-5.142-37.213-15.415l-27.665-27.665 24.365-45.106 50.06-29.319 27.665 27.665c20.548 20.547 20.558 53.868.001 74.425z" fill="#95d6a4"/><path d="m411.34 85.918-74.425 74.425-27.655-27.655c-20.557-20.557-20.547-53.878 0-74.425 10.284-10.284 23.743-15.415 37.212-15.416 13.47 0 26.939 5.142 37.213 15.415z" fill="#f6e266"/><path d="m439.005 188.008c-10.274 10.274-23.743 15.415-37.213 15.415s-26.939-5.142-37.213-15.415l-27.665-27.665 8.219-18.964 18.932-8.187 27.665 27.665c10.273 10.273 23.743 15.415 37.213 15.415 7.199 0 14.387-1.462 21.082-4.386-2.562 5.849-6.231 11.334-11.02 16.122z" fill="#78c2a4"/><path d="m364.065 133.193-27.151 27.151-27.655-27.655c-20.557-20.557-20.547-53.878 0-74.425 4.789-4.789 10.273-8.459 16.131-11.03-8.419 19.267-4.749 42.536 11.02 58.304z" fill="#ffd064"/></g></g></svg>