<svg id="Capa_1" enable-background="new 0 0 512 512" height="512" viewBox="0 0 512 512" width="512" xmlns="http://www.w3.org/2000/svg"><g><circle cx="256" cy="256" fill="#da387d" r="256"/><g><g><path d="m289.95 70.96h-67.9l5.09-45.17c1.65-14.69 14.08-25.79 28.86-25.79s27.21 11.1 28.86 25.79z" fill="#95d6a4"/><path d="m306 213.38h-100l16.05-142.42h67.9z" fill="#f9f6f9"/><path d="m255.99 0c-4.05.02-7.43 11.12-7.88 25.8l-1.51 49.15h-25.01l5.54-49.15c1.67-14.69 14.08-25.8 28.86-25.8z" fill="#78c2a4"/><path d="m246.6 74.95-4.27 138.43h-36.33l15.59-138.43z" fill="#e2d8ec"/></g><path d="m325.621 121.169h-139.241c-34.236 0-61.989 27.754-61.989 61.989v139.241c0 34.236 27.754 61.989 61.989 61.989h139.241c34.236 0 61.989-27.754 61.989-61.989v-139.241c0-34.235-27.754-61.989-61.989-61.989z" fill="#f9f6f9"/><path d="m251.595 384.386h-65.217c-34.238 0-61.988-27.751-61.988-61.988v-139.24c0-34.238 27.751-61.988 61.988-61.988h65.217c-34.238 0-61.988 27.75-61.988 61.988v139.239c0 34.238 27.75 61.989 61.988 61.989z" fill="#e2d8ec"/><path d="m430.96 264.48v178.4c-45.77 42.87-107.3 69.12-174.96 69.12s-129.19-26.25-174.96-69.12v-178.4c0-45.51 36.89-82.41 82.41-82.41h185.1c45.52 0 82.41 36.9 82.41 82.41z" fill="#95d6a4"/><path d="m162.49 264.48v185.12c0 19.25 6.6 36.95 17.66 50.98-37.44-11.6-71.2-31.56-99.11-57.7v-178.4c0-45.51 36.89-82.4 82.41-82.4h81.45c-45.52 0-82.41 36.89-82.41 82.4z" fill="#78c2a4"/><path d="m370.921 315.177v70.297c0 28.475-23.084 51.559-51.559 51.559h-126.719c-11.258 0-21.666-3.611-30.151-9.737-12.975-9.354-21.418-24.605-21.418-41.822v-70.297c0-17.217 8.443-32.469 21.418-41.822 8.484-6.126 18.893-9.737 30.151-9.737h126.719c28.475 0 51.559 23.084 51.559 51.559z" fill="#f9f6f9"/><path d="m162.493 273.354v153.941c-12.975-9.354-21.418-24.605-21.418-41.822v-70.297c-.001-17.217 8.443-32.468 21.418-41.822z" fill="#e2d8ec"/></g><path d="m307.211 86.924h-102.422c-8.448 0-15.297-6.849-15.297-15.297 0-8.448 6.849-15.297 15.297-15.297h102.423c8.448 0 15.297 6.849 15.297 15.297-.001 8.449-6.849 15.297-15.298 15.297z" fill="#95d6a4"/><path d="m247.432 86.918h-42.64c-8.45 0-15.3-6.84-15.3-15.29 0-4.23 1.71-8.05 4.48-10.82s6.59-4.48 10.82-4.48h42.64c-4.23 0-8.05 1.71-10.82 4.48s-4.48 6.59-4.48 10.82c0 8.45 6.85 15.29 15.3 15.29z" fill="#78c2a4"/><g><path d="m289.601 343.643v-30.688c0-18.557-15.044-33.601-33.601-33.601-18.557 0-33.601 15.044-33.601 33.601v30.688c-18.777 1.327-33.601 16.969-33.601 36.084 0 19.985 16.201 36.185 36.185 36.185h62.033c19.985 0 36.186-16.201 36.186-36.185 0-19.115-14.824-34.757-33.601-36.084z" fill="#ffddce"/><path d="m256.001 279.354c-4.873 0-9.298 3.764-12.496 9.841-3.186 6.077-5.169 14.479-5.169 23.766v30.692c-9.865 1.322-17.653 16.969-17.653 36.073 0 9.995 2.124 19.046 5.57 25.595 3.434 6.549 8.189 10.597 13.441 10.597h-14.715c-9.983 0-19.034-4.048-25.583-10.597s-10.597-15.6-10.597-25.595c0-19.105 14.821-34.752 33.595-36.073v-30.692c0-9.287 3.764-17.689 9.842-23.766 6.076-6.077 14.478-9.841 23.765-9.841z" fill="#ffcbbe"/><g fill="#eaac9d"><path d="m224.984 396.815h11.511c5.273 0 9.548 4.275 9.548 9.548 0 5.273-4.275 9.549-9.548 9.549h-11.511c-5.273 0-9.548-4.275-9.548-9.549-.001-5.273 4.274-9.548 9.548-9.548z"/><path d="m275.505 396.815h11.511c5.273 0 9.549 4.275 9.549 9.548 0 5.273-4.275 9.549-9.549 9.549h-11.511c-5.273 0-9.548-4.275-9.548-9.549 0-5.273 4.275-9.548 9.548-9.548z"/></g></g></g></svg>