<svg id="Capa_1" enable-background="new 0 0 512 512" height="512" viewBox="0 0 512 512" width="512" xmlns="http://www.w3.org/2000/svg"><g><circle cx="256" cy="256" fill="#d3effb" r="256"/><path d="m368.23 455.79c0 13.89-5.04 26.6-13.39 36.42-30.41 12.75-63.8 19.79-98.84 19.79s-68.43-7.04-98.84-19.79c-8.35-9.82-13.39-22.53-13.39-36.42 0-31.04 25.16-56.21 56.21-56.21h112.04c15.52 0 29.58 6.29 39.75 16.46 10.17 10.18 16.46 24.23 16.46 39.75z" fill="#a2dae8"/><path d="m432.474 176.474c0-97.127-78.464-175.927-175.463-176.472-97.366-.545-177.486 79.107-177.485 176.474.001 73.11 44.463 135.826 107.82 162.607 13.807 5.836 22.822 19.315 22.822 34.304v45.206c0 25.312 20.52 45.831 45.832 45.831 25.312 0 45.832-20.519 45.832-45.831v-45.206c0-14.997 9.028-28.472 22.841-34.312 63.347-26.785 107.801-89.497 107.801-162.601z" fill="#da387d"/><path d="m255.077 464.407c-24.891-.491-44.907-20.819-44.907-45.816v-45.21c0-14.983-9.011-28.462-22.824-34.299-63.356-26.782-107.814-89.501-107.814-162.61 0-96.445 78.611-175.515 174.721-176.465-75.166 1.233-136.549 80.189-136.549 176.466 0 73.109 34.842 135.828 84.5 162.61 10.817 5.837 23.106 19.316 23.106 34.299v45.21c0 24.912 10.358 45.178 29.767 45.815z" fill="#aa3684"/><circle cx="256" cy="176.474" fill="#f9f6f9" r="129.622"/><path d="m273.493 304.931c-5.722.773-11.569 1.169-17.5 1.169-71.584 0-129.616-58.042-129.616-129.626 0-71.595 58.032-129.626 129.616-129.626 5.931 0 11.778.397 17.5 1.169-63.304 8.551-112.117 62.803-112.117 128.457s48.812 119.906 112.117 128.457z" fill="#e2d8ec"/><g><g><path d="m345.379 219.864c-9.202 9.202-21.266 13.807-33.33 13.807s-24.129-4.605-33.33-13.807l-24.779-24.779 21.823-40.4 44.837-26.26 24.779 24.779c18.403 18.403 18.412 48.248 0 66.66z" fill="#da387d"/><path d="m320.6 128.424-66.661 66.661-24.77-24.77c-18.413-18.413-18.403-48.257 0-66.661 9.211-9.211 21.266-13.807 33.33-13.807s24.129 4.606 33.33 13.807z" fill="#95d6a4"/><path d="m345.379 219.864c-9.202 9.202-21.266 13.807-33.33 13.807s-24.129-4.605-33.33-13.807l-24.779-24.779 7.362-16.986 16.957-7.332 24.779 24.779c9.202 9.202 21.266 13.807 33.33 13.807 6.448 0 12.886-1.309 18.882-3.928-2.295 5.237-5.582 10.15-9.871 14.439z" fill="#aa3684"/><path d="m278.257 170.767-24.318 24.318-24.77-24.77c-18.413-18.413-18.403-48.257 0-66.661 4.289-4.289 9.202-7.576 14.448-9.879-7.54 17.257-4.253 38.098 9.87 52.221z" fill="#78c2a4"/></g><g><path d="m158.661 203.661c0 13.013 5.274 24.801 13.805 33.331s20.318 13.805 33.331 13.805h35.043l13.136-43.999-13.136-50.274h-35.043c-26.026.001-47.136 21.098-47.136 47.137z" fill="#80b4fb"/><path d="m240.84 156.525v94.273h35.03c26.039 0 47.136-21.11 47.136-47.136 0-13.026-5.274-24.8-13.805-33.331s-20.318-13.805-33.331-13.805h-35.03z" fill="#f6e266"/><path d="m158.661 203.661c0 13.013 5.274 24.8 13.805 33.331s20.318 13.805 33.331 13.805h35.043l6.805-17.216-6.805-17.175h-35.043c-13.013 0-24.8-5.274-33.331-13.805-4.559-4.559-8.186-10.038-10.574-16.129-2.082 5.325-3.231 11.123-3.231 17.189z" fill="#61a2f9"/><path d="m240.84 216.406v34.391h35.03c26.039 0 47.136-21.11 47.136-47.136 0-6.066-1.149-11.864-3.231-17.202-6.87 17.534-23.932 29.947-43.905 29.947z" fill="#ffd064"/></g></g></g></svg>