<svg id="Capa_1" enable-background="new 0 0 512 512" height="512" viewBox="0 0 512 512" width="512" xmlns="http://www.w3.org/2000/svg"><g><path d="m512 256c0 45.02-11.62 87.32-32.03 124.08-11.546 20.803-43.677 22.058-60.339 38.789-17.915 17.989-20.721 51.095-43.311 63.141-35.87 19.14-76.83 29.99-120.32 29.99s-84.45-10.85-120.32-29.99c-43.6-23.25-79.69-58.76-103.65-101.93-20.41-36.76-32.03-79.06-32.03-124.08 0-141.38 114.62-256 256-256s256 114.62 256 256z" fill="#80b4fb"/><g><path d="m479.97 215.33v164.75c-23.96 43.17-60.05 78.68-103.65 101.93h-259.4c-46.89 0-84.89-38.01-84.89-84.89v-181.79c0-9.7 1.63-19.02 4.63-27.71 11.49-33.27 43.07-57.17 80.26-57.17h278.16c37.19 0 68.8 23.91 80.27 57.21 2.99 8.67 4.62 17.98 4.62 27.67z" fill="#f9f6f9"/><path d="m205.918 482.011h-88.999c-46.89 0-84.887-38.011-84.887-84.887v-181.792c0-9.701 1.631-19.026 4.628-27.71 11.486-33.272 43.071-57.177 80.259-57.177h88.999c-37.189 0-68.774 23.905-80.259 57.177-2.997 8.684-4.628 18.009-4.628 27.71v181.791c0 46.877 37.997 84.888 84.887 84.888z" fill="#e2d8ec"/><path d="m395.939 200.705h-284.701v-106.572c0-49.148 39.985-89.133 89.133-89.133h106.436c49.148 0 89.132 39.985 89.132 89.132zm-242.884-41.816h201.068v-64.756c0-26.09-21.226-47.316-47.316-47.316h-106.436c-26.09 0-47.316 21.226-47.316 47.316z" fill="#30579d"/><g fill="#26457d"><path d="m334.618 46.817h-27.811c26.09 0 47.316 21.226 47.316 47.316v64.756h27.811v-64.756c0-26.09-21.226-47.316-47.316-47.316z"/><path d="m228.182 5h-27.811c-49.148 0-89.132 39.985-89.132 89.132v106.572h27.811v-106.571c0-49.148 39.984-89.133 89.132-89.133z"/></g><path d="m479.968 195.332v108.039c-14.956 27.975-44.465 47.001-78.391 47.001h-291.153c-33.927 0-63.421-19.012-78.391-46.974v-108.066c0-9.701 1.631-19.026 4.628-27.71 15.974-23.696 43.043-39.279 73.764-39.279h291.153c30.721 0 57.818 15.611 73.778 39.321 2.981 8.67 4.612 17.981 4.612 27.668z" fill="#e2d8ec"/><path d="m479.968 195.332v42.346c0 46.876-38.011 84.887-84.887 84.887h-278.162c-46.89 0-84.887-38.011-84.887-84.887v-42.346c0-46.876 37.997-84.887 84.887-84.887h278.162c46.876 0 84.887 38.011 84.887 84.887z" fill="#da387d"/><path d="m190.167 322.565h-73.248c-46.89 0-84.887-38.011-84.887-84.887v-42.346c0-46.876 37.997-84.887 84.887-84.887h73.248c-46.89 0-84.887 38.011-84.887 84.887v42.346c0 46.876 37.997 84.887 84.887 84.887z" fill="#aa3684"/><g><g><path d="m151.657 397.424h-27.654c-18.091 0-32.757-14.666-32.757-32.757v-43.274c0-18.091 14.666-32.757 32.757-32.757h27.654c18.091 0 32.757 14.666 32.757 32.757v43.274c0 18.091-14.666 32.757-32.757 32.757z" fill="#f6e266"/><g fill="#ffd064"><path d="m141.161 397.417h-17.159c-18.093 0-32.756-14.664-32.756-32.756v-43.268c0-18.092 14.663-32.756 32.756-32.756h17.159c-18.093 0-32.756 14.664-32.756 32.756v43.268c0 18.093 14.663 32.756 32.756 32.756z"/><path d="m151.504 379.347h-27.348c-9.472 0-17.15-7.678-17.15-17.15 0-9.472 7.678-17.15 17.15-17.15h27.348c9.472 0 17.15 7.678 17.15 17.15 0 9.471-7.679 17.15-17.15 17.15z"/></g></g><g><path d="m387.997 397.424h-27.654c-18.091 0-32.757-14.666-32.757-32.757v-43.274c0-18.091 14.666-32.757 32.757-32.757h27.654c18.091 0 32.757 14.666 32.757 32.757v43.274c0 18.091-14.666 32.757-32.757 32.757z" fill="#f6e266"/><g fill="#ffd064"><path d="m377.501 397.417h-17.159c-18.093 0-32.756-14.664-32.756-32.756v-43.268c0-18.092 14.664-32.756 32.756-32.756h17.159c-18.093 0-32.756 14.664-32.756 32.756v43.268c0 18.093 14.664 32.756 32.756 32.756z"/><path d="m387.844 379.347h-27.348c-9.472 0-17.15-7.678-17.15-17.15 0-9.472 7.678-17.15 17.15-17.15h27.348c9.472 0 17.15 7.678 17.15 17.15 0 9.471-7.678 17.15-17.15 17.15z"/></g></g></g><path d="m301.301 191.147h-22.577v-22.577c0-5.101-4.135-9.236-9.236-9.236h-26.976c-5.101 0-9.236 4.135-9.236 9.236v22.577h-22.577c-5.101 0-9.236 4.135-9.236 9.236v26.975c0 5.101 4.135 9.236 9.236 9.236h22.577v22.577c0 5.101 4.135 9.236 9.236 9.236h26.976c5.101 0 9.236-4.135 9.236-9.236v-22.577h22.577c5.101 0 9.236-4.135 9.236-9.236v-26.975c0-5.101-4.135-9.236-9.236-9.236z" fill="#f9f6f9"/></g></g></svg>