<svg id="Capa_1" enable-background="new 0 0 512 512" height="512" viewBox="0 0 512 512" width="512" xmlns="http://www.w3.org/2000/svg"><g><path d="m512 256c0 17.1-1.68 33.81-4.88 49.97-5.34 27-14.93 52.47-28.04 75.69-43.92 77.81-127.37 130.34-223.08 130.34-79.83 0-151.13-36.55-198.08-93.82-3.94-4.81 40.489-57.979 36.899-63.08-20.22-28.68-82.899-13.5-89.949-49.19v-.01c-3.2-16.14-4.87-32.82-4.87-49.9 0-141.38 114.62-256 256-256s256 114.62 256 256z" fill="#b1e4f9"/><g><path d="m258.014 226.303c-4.808 13.025-14.443 22.873-26.133 28.26-11.69 5.386-25.436 6.31-38.461 1.502l-35.073-12.948 3.11-48.891 31.723-45.464 35.073 12.948c26.049 9.616 39.382 38.531 29.761 64.593z" fill="#80b4fb"/><path d="m193.179 148.762-34.833 94.355-35.06-12.943c-26.062-9.621-39.378-38.545-29.761-64.594 4.813-13.037 14.442-22.873 26.132-28.26 11.69-5.386 25.437-6.31 38.461-1.502z" fill="#f6e266"/><path d="m258.014 226.303c-4.808 13.025-14.443 22.873-26.133 28.26-11.69 5.386-25.436 6.31-38.461 1.502l-35.073-12.948-.45-19.746 13.157-14.676 35.073 12.948c13.025 4.808 26.771 3.885 38.461-1.502 6.248-2.879 11.902-7.022 16.543-12.236.116 6.099-.876 12.327-3.117 18.398z" fill="#61a2f9"/><path d="m171.054 208.695-12.707 34.421-35.06-12.943c-26.062-9.621-39.378-38.545-29.761-64.594 2.241-6.071 5.534-11.45 9.59-16.023.398 20.088 12.888 38.816 32.878 46.196z" fill="#ffd064"/></g><g><path d="m360.33 272.452c-12.589-5.854-21.62-16.259-26.036-28.349s-4.216-25.866 1.638-38.455l15.763-33.902 48.475 7.084 42.728 35.322-15.763 33.902c-11.708 25.178-41.614 36.111-66.805 24.398z" fill="#524798"/><path d="m442.898 214.152-91.202-42.406 15.757-33.889c11.713-25.191 41.625-36.105 66.804-24.398 12.602 5.859 21.62 16.258 26.036 28.348 4.415 12.091 4.216 25.866-1.638 38.456z" fill="#95d6a4"/><path d="m360.33 272.452c-12.589-5.854-21.62-16.259-26.036-28.349s-4.216-25.866 1.638-38.455l15.763-33.902 19.717 1.161 13.554 14.31-15.763 33.902c-5.854 12.589-6.053 26.365-1.638 38.455 2.36 6.462 6.029 12.434 10.848 17.485-6.088-.383-12.214-1.879-18.083-4.607z" fill="#543673"/><path d="m384.966 187.216-33.271-15.47 15.757-33.889c11.713-25.191 41.625-36.105 66.804-24.398 5.868 2.729 10.961 6.448 15.188 10.864-20.054-1.241-39.737 9.681-48.721 29.004z" fill="#78c2a4"/></g><g><path d="m317.393 172.682c-12.871 5.205-26.639 4.703-38.489-.322s-21.781-14.574-26.986-27.445l-14.016-34.66 38.264-30.591 54.979-7.116 14.016 34.66c10.41 25.741-2.013 55.059-27.768 65.474z" fill="#da387d"/><path d="m331.144 72.547-93.243 37.707-14.011-34.647c-10.415-25.755 2.026-55.065 27.768-65.475 12.884-5.21 26.639-4.703 38.489.322 11.85 5.026 21.781 14.575 26.986 27.446z" fill="#f9f6f9"/><path d="m317.393 172.682c-12.871 5.205-26.639 4.703-38.489-.322s-21.781-14.574-26.986-27.445l-14.016-34.66 14.306-13.617 19.71-.139 14.016 34.66c5.205 12.871 15.136 22.42 26.986 27.445 6.333 2.686 13.202 4.082 20.183 4.007-4.436 4.189-9.71 7.645-15.71 10.071z" fill="#aa3684"/><path d="m271.917 96.498-34.016 13.756-14.011-34.647c-10.415-25.755 2.026-55.065 27.768-65.475 6-2.426 12.194-3.609 18.307-3.685-14.595 13.809-20.048 35.649-12.059 55.404z" fill="#e2d8ec"/></g><g><g><path d="m485.96 377.18-6.88 4.48-127.28 82.91c-16.94 11.04-37.53 15.03-57.36 11.1l-222.72-53.58c-4.7-.93-9.31-2.23-13.8-3.91-3.94-4.81-7.72-9.77-11.31-14.87-20.22-28.68-34.69-61.71-41.74-97.4v-.01c6.89-20.15 20.93-37.89 40.75-48.91 20.73-11.53 43.93-13.9 65.09-8.55 29.64 7.49 60.99 4 87.61-11.03l45.5-25.69c30.19-15.61 67.3-3.79 82.92 26.4 4.67 9.03 6.88 18.69 6.88 28.21 0 22.27-12.13 43.77-33.29 54.71l-100.3 56.5 55.97-31.52 43.92 17.23 122.96-81.85c13.07-8.71 28.52-11.36 42.92-8.51 13.02 2.58 25.19 9.67 33.97 20.85 3.02 3.85 5.47 7.96 7.35 12.23 11.1 25.05 2.93 55.51-21.16 71.21z" fill="#ffddce"/></g><g><path d="m326.94 238.51c-14.39-3.95-30.24-2.71-44.54 4.68l-45.5 25.69c-26.62 15.03-57.97 18.52-87.61 11.03-21.16-5.35-44.36-2.97-65.09 8.55-40.46 22.51-56.8 72.98-37.59 114.85-20.22-28.68-34.69-61.71-41.74-97.4 6.89-20.16 20.92-37.9 40.75-48.92 20.73-11.53 43.93-13.9 65.09-8.55 29.64 7.49 60.99 4 87.61-11.03l45.5-25.69c30.19-15.61 67.3-3.79 82.92 26.4.06.13.13.26.2.39z" fill="#ffcbbe"/></g><g><path d="m499.767 293.744c-14.587-2.816-30.189-.045-43.357 8.831l-139.083 93.743-117.399-18.913 55.962-31.529 43.932 17.235 122.952-81.848c13.078-8.707 28.522-11.355 42.929-8.505 13.011 2.58 25.187 9.665 33.962 20.851.035.045.069.09.102.135z" fill="#ffcbbe"/></g></g></g></svg>