<svg id="Capa_1" enable-background="new 0 0 512 512" height="512" viewBox="0 0 512 512" width="512" xmlns="http://www.w3.org/2000/svg"><g><path d="m512 256c0 34.12-6.68 66.68-18.79 96.44-38.09 93.59-129.95 159.56-237.21 159.56-88.9 0-167.21-45.32-213.12-114.11v-.01c-9.47-14.21 32.347-79.357 25.827-95.377-.76-1.86-1.49-3.73-2.21-5.61 0 0 0 .01 0 0-8.84-23.31-47.319-6.589-48.979-32.589-.35-5.48 0 5.57 0 0 0-1.02-17.508-10.344-17.498-11.365 1.64-139.969 115.62-252.939 255.98-252.939 141.38 0 256 114.62 256 256z" fill="#b1e4f9"/><g><g><path d="m328.39 185.36-190.32 190.33c-4.77 4.77-9.94 8.91-15.39 12.42-15.19 9.79-32.61 14.68-50.03 14.68-10.07 0-20.13-1.63-29.77-4.9v-.01c-9.47-14.21-17.57-29.42-24.09-45.44-.76-1.86-1.49-3.73-2.21-5.61 0 0-.01-.01-.01-.02-8.84-23.31-14.38-48.24-16.04-74.24-.35-5.48-.53-11-.53-16.57 0-1.02.01-2.04.02-3.06 2.22-2.81 4.62-5.51 7.21-8.1l190.32-190.32c18.07-18.06 41.74-27.1 65.42-27.1s47.35 9.04 65.42 27.1c15.14 15.13 23.93 34.2 26.38 53.91 3.41 27.35-5.38 55.93-26.38 76.93z" fill="#ffddce"/><g fill="#ffcbbe"><path d="m328.39 185.36-190.32 190.33c-4.77 4.77-9.94 8.91-15.39 12.42-3.41-27.35 5.38-55.94 26.38-76.94l190.33-190.32c4.77-4.77 9.93-8.91 15.38-12.42 3.41 27.35-5.38 55.93-26.38 76.93z"/><path d="m25.6 226.46c-13.12 13.12-21.48 29.21-25.07 46.11-.35-5.48-.53-11-.53-16.57 0-1.02.01-2.04.02-3.06 2.21-2.81 4.61-5.51 7.2-8.1z"/><path d="m156.44 357.3-18.38 18.39c-18.06 18.06-41.74 27.09-65.42 27.09-10.07 0-20.13-1.63-29.76-4.9-9.47-14.21-17.57-29.42-24.09-45.44-.76-1.86-1.49-3.73-2.21-5.61 2.71 3.66 5.72 7.16 9.03 10.47 18.06 18.07 41.74 27.1 65.42 27.1 23.67 0 47.35-9.03 65.41-27.1z"/><path d="m245.956 237.523-55.726 55.726c-11.613 11.613-30.442 11.613-42.056 0l-58.512-58.512c-11.613-11.613-11.613-30.442 0-42.056l55.726-55.726c11.613-11.613 30.442-11.613 42.056 0l58.512 58.512c11.613 11.614 11.613 30.443 0 42.056z"/></g><path d="m178.848 281.868c-5.319 5.319-13.974 5.32-19.293 0l-58.512-58.512c-5.319-5.319-5.319-13.974 0-19.293l55.726-55.726c5.319-5.319 13.974-5.32 19.293 0l58.512 58.512c5.319 5.319 5.319 13.974 0 19.293z" fill="#f9f6f9"/><g fill="#eaac9d"><g><g><circle cx="22.344" cy="300.51" r="15.293"/><circle cx="58.029" cy="264.825" r="15.293"/></g><g><circle cx="52.373" cy="330.539" r="15.293"/><circle cx="88.058" cy="294.854" r="15.293"/></g><g><circle cx="82.401" cy="360.567" r="15.293"/><circle cx="118.086" cy="324.882" r="15.293"/></g></g><g><g><circle cx="217.531" cy="105.323" r="15.293"/><circle cx="253.216" cy="69.638" r="15.293"/></g><g><circle cx="247.56" cy="135.352" r="15.293"/><circle cx="283.245" cy="99.666" r="15.293"/></g><g><circle cx="277.588" cy="165.38" r="15.293"/><circle cx="313.274" cy="129.695" r="15.293"/></g></g></g><g fill="#e2d8ec"><path d="m202.447 246.071c0 4.645-3.766 8.411-8.411 8.411h-52.453c-4.645 0-8.411-3.766-8.411-8.411 0-4.645 3.766-8.411 8.411-8.411h52.453c4.645 0 8.411 3.765 8.411 8.411z"/><path d="m222.993 215.103c0 4.645-3.766 8.411-8.411 8.411h-93.545c-4.645 0-8.411-3.766-8.411-8.411 0-4.645 3.766-8.411 8.411-8.411h93.545c4.645 0 8.411 3.765 8.411 8.411z"/><path d="m202.447 184.135c0 4.645-3.766 8.411-8.411 8.411h-52.453c-4.645 0-8.411-3.766-8.411-8.411 0-4.645 3.766-8.411 8.411-8.411h52.453c4.645-.001 8.411 3.765 8.411 8.411z"/></g></g><g><path d="m354.055 129.284-190.321 190.321c-36.132 36.132-36.132 94.714 0 130.846 36.132 36.132 94.714 36.132 130.846 0l190.321-190.321c36.132-36.132 36.132-94.714 0-130.846-36.132-36.132-94.714-36.132-130.846 0z" fill="#ffddce"/><path d="m247.534 459.166c23.673 0 47.355-9.032 65.419-27.096l-18.381 18.381c-18.064 18.064-41.745 27.096-65.419 27.096s-47.355-9.032-65.419-27.096c-36.136-36.136-36.136-94.718-.008-130.846l18.381-18.381c-36.128 36.128-36.128 94.71.008 130.846 18.064 18.064 41.746 27.096 65.419 27.096z" fill="#ffcbbe"/><path d="m402.464 312.288-55.726 55.726c-11.613 11.613-30.442 11.613-42.056 0l-58.512-58.512c-11.613-11.613-11.613-30.442 0-42.056l55.726-55.726c11.613-11.613 30.442-11.613 42.056 0l58.512 58.512c11.614 11.614 11.614 30.443 0 42.056z" fill="#ffcbbe"/><path d="m335.357 356.633c-5.319 5.319-13.974 5.32-19.293 0l-58.512-58.512c-5.319-5.319-5.319-13.974 0-19.293l55.726-55.726c5.319-5.319 13.974-5.32 19.293 0l58.512 58.512c5.319 5.319 5.319 13.974 0 19.293z" fill="#f9f6f9"/><g fill="#eaac9d"><g><g><circle cx="178.853" cy="375.275" r="15.293"/><circle cx="214.538" cy="339.59" r="15.293"/></g><g><circle cx="208.881" cy="405.304" r="15.293"/><circle cx="244.567" cy="369.619" r="15.293"/></g><g><circle cx="238.91" cy="435.332" r="15.293"/><circle cx="274.595" cy="399.647" r="15.293"/></g></g><g><g><circle cx="374.04" cy="180.088" r="15.293"/><circle cx="409.725" cy="144.403" r="15.293"/></g><g><circle cx="404.069" cy="210.117" r="15.293"/><circle cx="439.754" cy="174.431" r="15.293"/></g><g><circle cx="434.097" cy="240.145" r="15.293"/><circle cx="469.782" cy="204.46" r="15.293"/></g></g></g><g fill="#e2d8ec"><path d="m358.955 320.836c0 4.645-3.766 8.411-8.411 8.411h-52.453c-4.645 0-8.411-3.766-8.411-8.411 0-4.645 3.766-8.411 8.411-8.411h52.453c4.646 0 8.411 3.765 8.411 8.411z"/><path d="m379.501 289.868c0 4.645-3.766 8.411-8.411 8.411h-93.545c-4.645 0-8.411-3.766-8.411-8.411 0-4.645 3.766-8.411 8.411-8.411h93.545c4.646 0 8.411 3.765 8.411 8.411z"/><path d="m358.955 258.9c0 4.645-3.766 8.411-8.411 8.411h-52.453c-4.645 0-8.411-3.766-8.411-8.411 0-4.645 3.766-8.411 8.411-8.411h52.453c4.646-.001 8.411 3.765 8.411 8.411z"/></g></g></g></g></svg>