<svg id="Capa_1" enable-background="new 0 0 512 512" height="512" viewBox="0 0 512 512" width="512" xmlns="http://www.w3.org/2000/svg"><g><path d="m512 256c0 58.4-19.56 112.23-52.48 155.3-.98 1.28-406.06 1.28-407.04 0-32.92-43.07-52.48-96.9-52.48-155.3s19.56-112.23 52.48-155.3c6.94-9.08 14.47-17.68 22.54-25.75 24.41-24.4 53.72-43.9 86.34-56.88 29.28-11.66 61.21-18.07 94.64-18.07s65.36 6.41 94.64 18.07c43.4 17.27 80.95 46.08 108.88 82.63 32.92 43.07 52.48 96.9 52.48 155.3z" fill="#80b4fb"/><path d="m459.52 94.77v316.53c-17.539 22.954-38.874 42.853-63.069 58.761-12.602 8.286-41.88 7.934-55.901 13.922-19.573 8.359-24.5 21.905-46.219 25.166-12.504 1.878-25.304 2.851-38.331 2.851-13.023 0-25.819-.973-38.32-2.849-15.401-2.312-34.345-18.245-48.721-23.173-19.42-6.657-33.795-3.336-50.79-14.217-25.276-16.181-47.52-36.682-65.689-60.461v-316.53c0-42.36 34.34-76.7 76.7-76.7h253.64c42.36 0 76.7 34.34 76.7 76.7z" fill="#f9f6f9"/><path d="m149.13 18.07c-35.51 0-65.38 24.13-74.11 56.88-1.69 6.32-2.59 12.97-2.59 19.82v339.64c-7.1-7.3-13.76-15.01-19.95-23.11v-316.53c0-42.36 34.34-76.7 76.7-76.7z" fill="#e2d8ec"/><g><path d="m220.09 119.829c0 4.67-.49 9.23-1.42 13.63-6.27 29.82-32.73 52.21-64.43 52.21-31.69 0-58.15-22.39-64.42-52.21-.93-4.4-1.42-8.96-1.42-13.63 0-4.68.49-9.24 1.42-13.64 6.27-29.82 32.73-52.21 64.42-52.21s58.16 22.39 64.43 52.21c.93 4.4 1.42 8.96 1.42 13.64z" fill="#da387d"/><g fill="#aa3684"><path d="m174.199 182.586c-6.29 2-13 3.08-19.95 3.08-36.37 0-65.85-29.48-65.85-65.84 0-36.37 29.48-65.85 65.85-65.85 6.95 0 13.66 1.08 19.95 3.08-26.61 8.45-45.89 33.36-45.89 62.77s19.28 54.31 45.89 62.76z"/><path d="m200.801 166.387c-3.302 3.302-6.873 6.18-10.642 8.634l-91.111-91.111c2.454-3.769 5.332-7.34 8.634-10.642 3.309-3.309 6.88-6.187 10.649-8.641l91.111 91.111c-2.454 3.769-5.332 7.34-8.641 10.649z"/></g></g><g><path d="m423.605 119.829c0 4.67-.49 9.23-1.42 13.63-6.27 29.82-32.73 52.21-64.43 52.21-31.69 0-58.15-22.39-64.42-52.21-.93-4.4-1.42-8.96-1.42-13.63 0-4.68.49-9.24 1.42-13.64 6.27-29.82 32.73-52.21 64.42-52.21s58.16 22.39 64.43 52.21c.93 4.4 1.42 8.96 1.42 13.64z" fill="#da387d"/><g fill="#aa3684"><path d="m377.715 182.586c-6.29 2-13 3.08-19.95 3.08-36.37 0-65.85-29.48-65.85-65.84 0-36.37 29.48-65.85 65.85-65.85 6.95 0 13.66 1.08 19.95 3.08-26.61 8.45-45.89 33.36-45.89 62.77-.001 29.41 19.279 54.31 45.89 62.76z"/><path d="m423.605 119.829c0 4.67-.49 9.23-1.42 13.63h-128.85c-.93-4.4-1.42-8.96-1.42-13.63 0-4.68.49-9.24 1.42-13.64h128.85c.93 4.4 1.42 8.96 1.42 13.64z"/></g></g><g><path d="m220.09 323.344c0 4.67-.49 9.23-1.42 13.63-6.27 29.82-32.73 52.21-64.43 52.21-31.69 0-58.15-22.39-64.42-52.21-.93-4.4-1.42-8.96-1.42-13.63 0-4.68.49-9.24 1.42-13.64 6.27-29.82 32.73-52.21 64.42-52.21s58.16 22.39 64.43 52.21c.93 4.4 1.42 8.96 1.42 13.64z" fill="#da387d"/><g fill="#aa3684"><path d="m174.199 386.101c-6.29 2-13 3.08-19.95 3.08-36.37 0-65.85-29.48-65.85-65.84 0-36.37 29.48-65.85 65.85-65.85 6.95 0 13.66 1.08 19.95 3.08-26.61 8.45-45.89 33.36-45.89 62.77s19.28 54.31 45.89 62.76z"/><path d="m154.24 389.184c-4.67 0-9.23-.49-13.63-1.42v-128.85c4.4-.93 8.96-1.42 13.63-1.42 4.68 0 9.24.49 13.64 1.42v128.85c-4.4.93-8.96 1.42-13.64 1.42z"/></g></g><g><path d="m423.605 323.344c0 4.67-.49 9.23-1.42 13.63-6.27 29.82-32.73 52.21-64.43 52.21-31.69 0-58.15-22.39-64.42-52.21-.93-4.4-1.42-8.96-1.42-13.63 0-4.68.49-9.24 1.42-13.64 6.27-29.82 32.73-52.21 64.42-52.21s58.16 22.39 64.43 52.21c.93 4.4 1.42 8.96 1.42 13.64z" fill="#da387d"/><g fill="#aa3684"><path d="m377.715 386.101c-6.29 2-13 3.08-19.95 3.08-36.37 0-65.85-29.48-65.85-65.84 0-36.37 29.48-65.85 65.85-65.85 6.95 0 13.66 1.08 19.95 3.08-26.61 8.45-45.89 33.36-45.89 62.77-.001 29.41 19.279 54.31 45.89 62.76z"/><path d="m404.323 276.784c3.302 3.302 6.18 6.873 8.634 10.642l-91.111 91.111c-3.769-2.454-7.34-5.332-10.642-8.634-3.309-3.309-6.187-6.88-8.641-10.649l91.111-91.111c3.769 2.453 7.34 5.331 10.649 8.641z"/></g></g><g><path d="m217.68 509.15c-36.21-5.44-69.94-18.45-99.51-37.39 10.36-6.79 22.76-10.75 36.07-10.75 30.23 0 55.71 20.37 63.44 48.14z" fill="#da387d"/><path d="m174.2 464.09c-12.5 3.97-23.39 11.58-31.41 21.58-8.48-4.19-16.69-8.83-24.61-13.9 10.35-6.81 22.75-10.76 36.07-10.76 6.95 0 13.66 1.08 19.95 3.08z" fill="#aa3684"/></g><g><path d="m393.83 471.76c-29.57 18.93-63.29 31.95-99.5 37.38 7.74-27.76 33.2-48.13 63.43-48.13 13.31 0 25.7 3.95 36.07 10.75z" fill="#da387d"/><path d="m377.71 464.09c-17.42 5.53-31.69 18.11-39.48 34.4-14.12 4.8-28.79 8.38-43.9 10.65 7.73-27.76 33.2-48.13 63.43-48.13 6.95 0 13.66 1.08 19.95 3.08z" fill="#aa3684"/></g><g fill="#e2d8ec"><path d="m456.55 415.1c-5.53 6.97-11.42 13.65-17.65 20h-365.79c-.23-.23-.46-.46-.68-.69-5.98-6.15-11.65-12.59-16.98-19.31z"/><path d="m52.485 211.583h407.03v20h-407.03z"/><path d="m266 18.07v493.74c-3.32.13-6.65.19-10 .19s-6.68-.06-10-.19v-493.74z"/></g><path d="m226.774 268.425h-16.485v-16.485c0-9.773-7.923-17.695-17.696-17.695-9.773 0-17.696 7.923-17.696 17.695v16.485h-16.485c-9.773 0-17.695 7.923-17.695 17.695 0 9.773 7.923 17.696 17.695 17.696h16.485v16.485c0 9.773 7.923 17.696 17.696 17.696 9.773 0 17.696-7.923 17.696-17.696v-16.485h16.485c9.773 0 17.696-7.923 17.696-17.696 0-9.772-7.923-17.695-17.696-17.695z" fill="#fff"/></g></svg>