<svg id="Capa_1" enable-background="new 0 0 512 512" height="512" viewBox="0 0 512 512" width="512" xmlns="http://www.w3.org/2000/svg"><g><circle cx="256" cy="256" fill="#f6e266" r="256"/><g><path d="m334.201 37.014h105.083v203.515h-105.083z" fill="#8b5e5e" transform="matrix(.916 .402 -.402 .916 88.386 -143.737)"/><path d="m367.348 43.968h105.083v38.575h-105.083z" fill="#785252" transform="matrix(.916 .402 -.402 .916 60.83 -163.426)"/><path d="m336.921 24.05h40.57v203.515h-40.57z" fill="#785252" transform="matrix(.916 .402 -.402 .916 80.685 -132.959)"/><path d="m463.767 89.052-92.568-40.631c-12.781-5.61-18.594-20.519-12.984-33.3 5.61-12.781 20.519-18.594 33.3-12.984l92.568 40.631c12.781 5.61 18.594 20.519 12.984 33.3-5.61 12.781-20.519 18.594-33.3 12.984z" fill="#8b5e5e"/><path d="m421.135 70.347-49.932-21.917c-12.783-5.611-18.599-20.526-12.988-33.309 2.805-6.391 7.933-11.032 13.958-13.389 6.031-2.344 12.955-2.395 19.346.41l49.932 21.917c-6.382-2.801-13.307-2.75-19.337-.406-6.025 2.357-11.153 6.998-13.958 13.389-5.611 12.783.205 27.698 12.979 33.305z" fill="#785252"/></g><path d="m481.61 217.55v99.82c0 53.94-36.61 99.33-86.34 112.67-13.27 35.55-47.52 60.86-87.69 60.86h-103.16c-40.17 0-74.42-25.31-87.69-60.86-49.73-13.34-86.34-58.73-86.34-112.67v-99.82z" fill="#30579d"/><path d="m226.403 490.904h-21.98c-40.17 0-74.42-25.32-87.69-60.86-49.73-13.34-86.34-58.73-86.34-112.67v-99.82h96.14v99.82c0 53.94 21.01 99.33 49.55 112.67 7.61 35.54 27.27 60.86 50.32 60.86z" fill="#26457d"/><path d="m30.39 217.55h451.22v56.86h-451.22z" fill="#26457d"/><g><g><path d="m176.942 158.366c-13.442-38.956-6.317-83.815 22.619-117.201 28.94-33.376 72.336-46.797 112.803-39.015 13.442 38.956 6.317 83.815-22.623 117.191-28.936 33.385-72.332 46.806-112.799 39.025z" fill="#95d6a4"/><path d="m176.942 158.366c-13.442-38.956-6.317-83.815 22.619-117.201 28.94-33.376 72.336-46.797 112.803-39.015z" fill="#78c2a4"/></g><g><path d="m176.942 158.366c-38.956 13.442-83.815 6.317-117.201-22.619-33.376-28.94-46.796-72.336-39.015-112.803 38.956-13.442 83.815-6.317 117.191 22.623 33.386 28.936 46.807 72.332 39.025 112.799z" fill="#95d6a4"/><path d="m176.942 158.366c-38.956 13.442-83.815 6.317-117.201-22.619-33.376-28.94-46.796-72.336-39.015-112.803z" fill="#78c2a4"/></g></g><path d="m477.959 253.34h-443.918c-18.8 0-34.041-15.24-34.041-34.041v-37.667c0-18.8 15.241-34.041 34.041-34.041h443.919c18.8 0 34.041 15.241 34.041 34.041v37.667c-.001 18.801-15.242 34.041-34.042 34.041z" fill="#30579d"/><path d="m133.8 253.343h-99.76c-18.8 0-34.04-15.24-34.04-34.04v-37.67c0-18.8 15.24-34.04 34.04-34.04h99.76c-18.8 0-34.04 15.24-34.04 34.04v37.67c0 18.8 15.24 34.04 34.04 34.04z" fill="#26457d"/></g></svg>