<svg id="Capa_1" enable-background="new 0 0 512 512" height="512" viewBox="0 0 512 512" width="512" xmlns="http://www.w3.org/2000/svg"><g><path d="m512 256c0 141.38-114.62 256-256 256-101.63 0-189.43-59.23-230.76-145.05-3.194-6.623 11.975-19.402 9.35-26.33-3.316-8.752-24.25-11.738-26.6-20.92-5.22-20.37-7.99-41.71-7.99-63.7s2.77-43.33 7.99-63.7c5.9-23.03 14.92-44.82 26.6-64.87 30.28-52.04 78.39-92.44 135.96-112.81 26.72-9.47 55.49-14.62 85.45-14.62 21.73 0 42.82 2.71 62.97 7.81 8.41 2.12 16.65 4.67 24.71 7.61 98.2 35.79 168.32 130 168.32 240.58z" fill="#f6e266"/><path d="m352.5 36.11v304.51c0 15.85-12.86 28.71-28.71 28.71-15.86 0-28.71-12.86-28.71-28.71 0 15.85-12.85 28.71-28.71 28.71s-28.71-12.86-28.71-28.71c0 15.85-12.85 28.71-28.71 28.71-15.85 0-28.71-12.86-28.71-28.71 0 15.85-12.85 28.71-28.71 28.71-15.85 0-28.71-12.86-28.71-28.71 0 15.85-12.85 28.71-28.71 28.71-15.85 0-28.71-12.86-28.71-28.71 0 15.85-12.85 28.71-28.71 28.71-4.07 0-7.94-.85-11.45-2.38-7.23-14.99-13.04-30.8-17.25-47.25v-283.59c0-15.86 12.85-28.71 28.7-28.71 15.86 0 28.71 12.85 28.71 28.71 0-15.86 12.86-28.71 28.71-28.71 15.86 0 28.71 12.85 28.71 28.71 0-15.86 12.86-28.71 28.71-28.71 7.3 0 13.96 2.72 19.02 7.22 5.94 5.24 9.69 12.93 9.69 21.49 0-15.86 12.86-28.71 28.71-28.71 15.86 0 28.71 12.85 28.71 28.71 0-15.86 12.85-28.71 28.71-28.71s28.71 12.85 28.71 28.71c0-14.22 10.32-26.01 23.89-28.3 1.56-.27 3.18-.41 4.82-.41 7.72 0 14.73 3.05 19.89 8.02 5.44 5.21 8.82 12.55 8.82 20.69z" fill="#80b4fb"/><path d="m50 366.07c-3.97 2.08-8.5 3.26-13.3 3.26-4.07 0-7.95-.85-11.46-2.38-7.23-14.99-13.04-30.8-17.25-47.25v-283.59c0-15.86 12.85-28.71 28.71-28.71 4.8 0 9.33 1.18 13.3 3.26-9.16 4.8-15.41 14.39-15.41 25.45v304.51c0 11.05 6.25 20.65 15.41 25.45z" fill="#61a2f9"/><circle cx="180.241" cy="188.362" fill="#61a2f9" r="133.016"/><circle cx="180.241" cy="188.362" fill="#80b4fb" r="97.587"/><g><path d="m497.171 357.03h-348.171v26.936c0 50.138 40.645 90.784 90.784 90.784h166.603c50.138 0 90.784-40.645 90.784-90.784z" fill="#a2dae8"/><path d="m406.387 266.246h-166.603c-50.138 0-90.784 40.645-90.784 90.784 0 50.138 40.645 90.784 90.784 90.784h166.603c50.138 0 90.784-40.645 90.784-90.784 0-50.139-40.645-90.784-90.784-90.784z" fill="#b1e4f9"/><path d="m203.53 421.22c16.43 16.43 39.12 26.59 64.19 26.59h-27.93c-25.07 0-47.77-10.16-64.2-26.59s-26.59-39.12-26.59-64.19c0-50.14 40.65-90.79 90.79-90.79h27.93c-50.14 0-90.78 40.65-90.78 90.79 0 25.07 10.16 47.76 26.59 64.19z" fill="#a2dae8"/><path d="m239.784 410.814c-29.656 0-53.784-24.127-53.784-53.784s24.127-53.784 53.784-53.784h166.603c29.656 0 53.784 24.127 53.784 53.783 0 29.657-24.127 53.784-53.784 53.784h-166.603z" fill="#d3effb"/><path d="m460.171 357.029c0 29.66-24.12 53.79-53.78 53.79h-23.94c29.65 0 53.78-24.13 53.78-53.79 0-29.65-24.13-53.78-53.78-53.78h23.94c29.66 0 53.78 24.131 53.78 53.78z" fill="#a2dae8"/><path d="m323.086 253.277c-23.692 0-42.898 19.206-42.898 42.898v54.869h85.796v-54.869c-.001-23.692-19.207-42.898-42.898-42.898z" fill="#d3effb"/><path d="m336.558 255.444c-17.1 5.64-29.43 21.74-29.43 40.73v32.488c0 12.361-10.021 22.382-22.382 22.382h-4.558v-54.128c0-23.728 19.412-43.761 43.14-43.631 4.623.025 9.072.783 13.23 2.159z" fill="#b1e4f9"/></g></g></svg>