<svg id="Capa_1" enable-background="new 0 0 512 512" height="512" viewBox="0 0 512 512" width="512" xmlns="http://www.w3.org/2000/svg"><g><path d="m512 256c0 55.18-17.46 106.29-47.16 148.09 0 0-122.64 35.131-208.84 35.131s-208.84-35.131-208.84-35.131c-29.7-41.8-47.16-92.91-47.16-148.09s17.46-106.29 47.16-148.09c25.46-35.84 59.9-64.83 100.05-83.7 33.02-15.53 69.89-24.21 108.79-24.21s75.77 8.68 108.79 24.21c40.15 18.87 74.59 47.86 100.05 83.7 29.7 41.8 47.16 92.91 47.16 148.09z" fill="#524798"/><path d="m464.84 90.77v313.32c-46.39 65.3-122.64 107.91-208.84 107.91-38.7 0-75.39-8.59-108.28-23.96-7.684-3.595-4.171-11.92-11.415-16.23-8.858-5.271-28.36-6.699-36.485-12.97-20.14-15.52-37.91-33.99-52.66-54.75v-313.32c0-36.76 29.8-66.56 66.56-66.56h284.56c36.76 0 66.56 29.8 66.56 66.56z" fill="#f9f6f9"/><g><path d="m391.5 308.365-51.44-29.699c-3.094-1.786-6.906-1.786-10 0l-46.439 26.812-41.44-23.925v-47.851l46.44-26.812c4.783-2.761 6.422-8.877 3.66-13.66-2.761-4.784-8.877-6.422-13.66-3.66l-46.44 26.812-46.439-26.812c-3.094-1.787-6.905-1.786-10 0l-51.44 29.699c-3.094 1.786-5 5.087-5 8.66v59.397c0 3.573 1.906 6.874 5 8.66l51.44 29.699c1.547.893 3.273 1.34 5 1.34s3.453-.447 5-1.34l46.439-26.812 41.44 23.925v47.851l-46.44 26.812c-4.783 2.761-6.422 8.877-3.66 13.66 1.852 3.208 5.213 5.001 8.669 5.001 1.696 0 3.416-.432 4.991-1.341l46.44-26.812 46.439 26.812c1.547.894 3.273 1.34 5 1.34 1.726 0 3.453-.447 5-1.34l51.44-29.699c3.094-1.786 5-5.087 5-8.66v-59.397c0-3.572-1.905-6.874-5-8.66zm-169.319-26.812-41.439 23.925-41.44-23.925v-47.851l41.44-23.925 41.439 23.925zm154.319 89.096-41.44 23.925-41.439-23.925v-47.851l41.439-23.925 41.44 23.925z" fill="#da387d"/><g fill="#80b4fb"><path d="m334.179 137.546c-19.45 0-35.273 15.823-35.273 35.273s15.823 35.273 35.273 35.273 35.273-15.824 35.273-35.273-15.824-35.273-35.273-35.273zm0 50.546c-8.421 0-15.273-6.852-15.273-15.273s6.852-15.273 15.273-15.273c8.422 0 15.273 6.852 15.273 15.273 0 8.422-6.851 15.273-15.273 15.273z"/><path d="m190.89 382.665c-5.523 0-10 4.477-10 10v13.943h-14.584v-13.943c0-5.523-4.477-10-10-10s-10 4.477-10 10v39.905c0 5.523 4.477 10 10 10s10-4.477 10-10v-5.962h14.584v5.962c0 5.523 4.477 10 10 10s10-4.477 10-10v-39.905c0-5.523-4.477-10-10-10z"/></g></g><path d="m253.525 106.347h-139.667c-8.54 0-15.463-6.923-15.463-15.463 0-8.54 6.923-15.463 15.463-15.463h139.667c8.54 0 15.463 6.923 15.463 15.463.001 8.54-6.923 15.463-15.463 15.463z" fill="#80b4fb"/><g fill="#30579d"><path d="m175.193 155.231h-61.334c-8.54 0-15.463-6.923-15.463-15.463 0-8.54 6.923-15.463 15.463-15.463h61.334c8.54 0 15.463 6.923 15.463 15.463 0 8.54-6.923 15.463-15.463 15.463z"/><path d="m429.254 267.63h-61.334c-8.54 0-15.463-6.923-15.463-15.463 0-8.54 6.923-15.463 15.463-15.463h61.334c8.54 0 15.463 6.923 15.463 15.463 0 8.54-6.923 15.463-15.463 15.463z"/><path d="m156.07 474.3c0 4.27-1.73 8.14-4.53 10.94-1.12 1.12-2.4 2.07-3.82 2.8-17.08-7.99-33.13-17.8-47.9-29.2h40.79c8.54 0 15.46 6.92 15.46 15.46z"/></g></g></svg>