<svg id="Capa_1" enable-background="new 0 0 512 512" height="512" viewBox="0 0 512 512" width="512" xmlns="http://www.w3.org/2000/svg"><g><path d="m512 256c0 85.5-41.92 161.21-106.32 207.7-42.1 30.39-93.8 12.76-149.68 12.76-19.72 0-38.92-2.23-57.36-6.46-33.81-7.73-65.08 13.371-92.32-6.3-64.4-46.49-106.32-122.2-106.32-207.7 0-58.55 19.66-112.52 52.75-155.65v-.01c16.59-21.63 36.54-40.53 59.1-55.92 41.05-28.03 90.69-44.42 144.15-44.42s103.1 16.39 144.15 44.42c22.56 15.39 42.52 34.3 59.1 55.93 33.09 43.13 52.75 97.1 52.75 155.65z" fill="#524798"/><path d="m467.5 44.42-8.25 55.93-53.57 363.35c-42.1 30.39-93.8 48.3-149.68 48.3s-107.58-17.91-149.68-48.3l-53.57-363.35-8.25-55.93z" fill="#b1e4f9"/><path d="m198.64 505.54c-33.81-7.73-65.08-22.17-92.32-41.84l-53.57-363.35v-.01l-8.24-55.92h126.95z" fill="#a2dae8"/><path d="m416.27 138.2-41.59 282.1c-4.63 31.42-31.59 54.7-63.35 54.7h-110.66c-1.29 0-2.57-.04-3.84-.12-30.07-1.78-55.07-24.44-59.51-54.58l-41.59-282.1z" fill="#d3effb"/><path d="m196.83 474.88c-30.07-1.78-55.07-24.44-59.51-54.58l-41.59-282.1h81.26z" fill="#b1e4f9"/><path d="m467.496 64.425h-422.992c-11.046 0-20-8.954-20-20s8.954-20 20-20h422.992c11.046 0 20 8.954 20 20s-8.954 20-20 20z" fill="#d3effb"/><path d="m155.244 64.425h-110.74c-11.04 0-20-8.95-20-20 0-11.04 8.96-20 20-20h110.74c-11.05 0-20 8.96-20 20 0 11.05 8.95 20 20 20z" fill="#b1e4f9"/><g><path d="m297.734 388.178c0 37.98-27.2 69.6-63.18 76.44-4.74.91-9.64 1.38-14.64 1.38s-9.89-.47-14.63-1.38c-35.98-6.84-63.18-38.46-63.18-76.44 0-37.97 27.2-69.59 63.18-76.43 4.74-.91 9.63-1.38 14.63-1.38s9.9.47 14.64 1.38c35.98 6.84 63.18 38.46 63.18 76.43z" fill="#80b4fb"/><g fill="#61a2f9"><path d="m176.22 323.787 108.095 108.096c-2.708 3.995-5.841 7.792-9.376 11.328-3.536 3.536-7.326 6.661-11.321 9.369l-108.095-108.096c2.708-3.995 5.834-7.785 9.369-11.321 3.536-3.535 7.333-6.668 11.328-9.376z"/><path d="m232.834 464.92c-4.2.71-8.52 1.08-12.92 1.08-42.98 0-77.81-34.84-77.81-77.82 0-42.97 34.83-77.81 77.81-77.81 4.4 0 8.72.37 12.92 1.08-36.82 6.14-64.89 38.16-64.89 76.73 0 38.579 28.07 70.599 64.89 76.74z"/></g></g><path d="m328.875 422.512h-129.494c-7.217 0-13.068 5.851-13.068 13.068v21.352c0 7.217 5.851 13.068 13.068 13.068h129.494c7.217 0 13.068-5.851 13.068-13.068v-21.352c0-7.217-5.851-13.068-13.068-13.068z" fill="#80b4fb"/><path d="m252.064 470h-52.68c-7.22 0-13.07-5.85-13.07-13.07v-21.35c0-7.22 5.85-13.07 13.07-13.07h52.68c-7.22 0-13.07 5.85-13.07 13.07v21.35c0 7.22 5.85 13.07 13.07 13.07z" fill="#61a2f9"/><g fill="#fff"><circle cx="304.636" cy="316.776" r="20.95"/><circle cx="309.624" cy="449.46" r="13.739"/><circle cx="250.336" cy="366.361" r="13.739"/><circle cx="197.349" cy="383.582" r="13.739"/><circle cx="254.256" cy="258.415" r="28.432"/><circle cx="324.589" cy="193.071" r="16.96"/><circle cx="213.852" cy="167.133" r="16.96"/></g></g></svg>