<svg id="Capa_1" enable-background="new 0 0 512 512" height="512" viewBox="0 0 512 512" width="512" xmlns="http://www.w3.org/2000/svg"><g><path d="m512 256c0 66.602-25.434 127.263-67.118 172.802-46.805 51.132-114.099 2.307-188.882 2.307s-142.077 48.825-188.882-2.307c-41.684-45.539-67.118-106.2-67.118-172.802 0-141.385 114.615-256 256-256s256 114.615 256 256z" fill="#95d6a4"/><g><path d="m444.88 94.62v334.18c-46.81 51.13-114.1 83.2-188.88 83.2s-142.07-32.07-188.88-83.2v-334.18c0-4.67.65-9.18 1.88-13.45 5.24-18.4 20.99-32.38 40.36-35.03 2.19-.3 4.42-.45 6.69-.45h279.9c2.27 0 4.5.15 6.69.45 19.37 2.65 35.12 16.63 40.36 35.03 1.23 4.27 1.88 8.78 1.88 13.45z" fill="#8b5e5e"/><path d="m135.21 45.69c-27.03 0-48.93 21.91-48.93 48.93v353.02c-6.71-5.94-13.11-12.23-19.16-18.84v-334.18c0-4.67.65-9.18 1.88-13.45 5.24-18.4 20.99-32.37 40.35-35.02 0 0 0-.01.01-.01 2.19-.3 4.42-.45 6.69-.45z" fill="#785252"/><path d="m351.133 471.002h-219.53c-21.196 0-38.379-17.183-38.379-38.379v-295.688c0-21.196 17.183-38.379 38.379-38.379h219.53c21.196 0 38.379 17.183 38.379 38.379v295.688c0 21.196-17.183 38.379-38.379 38.379z" fill="#785252"/><path d="m365.765 471.002h-219.53c-21.196 0-38.379-17.183-38.379-38.379v-295.688c0-21.196 17.183-38.379 38.379-38.379h219.53c21.196 0 38.379 17.183 38.379 38.379v295.688c0 21.196-17.183 38.379-38.379 38.379z" fill="#f9f6f9"/><path d="m301.301 170.926h-22.577v-22.577c0-5.101-4.135-9.236-9.236-9.236h-26.976c-5.101 0-9.236 4.135-9.236 9.236v22.577h-22.577c-5.101 0-9.236 4.135-9.236 9.236v26.975c0 5.101 4.135 9.236 9.236 9.236h22.577v22.577c0 5.101 4.135 9.236 9.236 9.236h26.976c5.101 0 9.236-4.135 9.236-9.236v-22.577h22.577c5.101 0 9.236-4.135 9.236-9.236v-26.975c0-5.101-4.135-9.236-9.236-9.236z" fill="#da387d"/><path d="m343.083 129.85h-174.166c-19.118 0-34.671-15.553-34.671-34.671v-24.818c0-19.118 15.553-34.671 34.671-34.671h174.165c19.118 0 34.671 15.553 34.671 34.671v24.819c0 19.117-15.553 34.67-34.67 34.67zm-174.166-74.16c-8.089 0-14.671 6.581-14.671 14.671v24.819c0 8.09 6.582 14.671 14.671 14.671h174.165c8.089 0 14.671-6.581 14.671-14.671v-24.819c0-8.09-6.582-14.671-14.671-14.671z" fill="#f6e266"/><path d="m325.088 79.945h-138.176c-15.472 0-28.014-12.542-28.014-28.014v-14.47c0-15.472 12.542-28.014 28.014-28.014h138.176c15.472 0 28.014 12.542 28.014 28.014v14.471c0 15.471-12.542 28.013-28.014 28.013z" fill="#30579d"/><path d="m225.108 79.941h-38.2c-15.47 0-28.01-12.54-28.01-28.01v-14.47c0-15.48 12.54-28.02 28.01-28.02h38.2c-15.48 0-28.02 12.54-28.02 28.02v14.47c0 15.47 12.54 28.01 28.02 28.01z" fill="#26457d"/><g fill="#524798"><path d="m354.432 318.092c-9.617 0-18.329-3.942-24.607-10.297-6.278 6.354-14.991 10.297-24.608 10.297s-18.329-3.942-24.607-10.297c-6.278 6.354-14.991 10.297-24.608 10.297s-18.33-3.942-24.608-10.297c-6.278 6.354-14.99 10.297-24.607 10.297s-18.33-3.942-24.608-10.297c-6.278 6.354-14.991 10.297-24.608 10.297-19.083 0-34.607-15.525-34.607-34.608 0-5.523 4.478-10 10-10s10 4.477 10 10c0 8.055 6.553 14.608 14.607 14.608s14.608-6.553 14.608-14.608c0-5.523 4.478-10 10-10s10 4.477 10 10c0 8.055 6.554 14.608 14.608 14.608s14.607-6.553 14.607-14.608c0-5.523 4.478-10 10-10s10 4.477 10 10c0 8.055 6.554 14.608 14.608 14.608s14.608-6.553 14.608-14.608c0-5.523 4.478-10 10-10s10 4.477 10 10c0 8.055 6.553 14.608 14.607 14.608s14.608-6.553 14.608-14.608c0-5.523 4.478-10 10-10s10 4.477 10 10c0 8.055 6.553 14.608 14.607 14.608s14.608-6.553 14.608-14.608c0-5.523 4.478-10 10-10s10 4.477 10 10c0 19.083-15.525 34.608-34.608 34.608z"/><path d="m354.432 381.94c-9.617 0-18.329-3.942-24.607-10.297-6.278 6.354-14.991 10.297-24.608 10.297s-18.329-3.942-24.607-10.297c-6.278 6.354-14.991 10.297-24.608 10.297s-18.33-3.942-24.608-10.297c-6.278 6.354-14.99 10.297-24.607 10.297s-18.33-3.942-24.608-10.297c-6.278 6.354-14.991 10.297-24.608 10.297-19.083 0-34.607-15.525-34.607-34.608 0-5.523 4.478-10 10-10s10 4.477 10 10c0 8.055 6.553 14.608 14.607 14.608s14.608-6.553 14.608-14.608c0-5.523 4.478-10 10-10s10 4.477 10 10c0 8.055 6.554 14.608 14.608 14.608s14.607-6.553 14.607-14.608c0-5.523 4.478-10 10-10s10 4.477 10 10c0 8.055 6.554 14.608 14.608 14.608s14.608-6.553 14.608-14.608c0-5.523 4.478-10 10-10s10 4.477 10 10c0 8.055 6.553 14.608 14.607 14.608s14.608-6.553 14.608-14.608c0-5.523 4.478-10 10-10s10 4.477 10 10c0 8.055 6.553 14.608 14.607 14.608s14.608-6.553 14.608-14.608c0-5.523 4.478-10 10-10s10 4.477 10 10c0 19.083-15.525 34.608-34.608 34.608z"/></g></g><g><path d="m505.456 298.073-18.019 18.019-59.486-19.824-23.323-62.986 18.019-18.019c8.725-8.725 22.877-8.725 31.602 0l51.208 51.208c8.724 8.725 8.724 22.877-.001 31.602z" fill="#da387d"/><path d="m279.527 411.239 1.859-10.978 6.997-41.282c1.254-7.409 4.796-14.249 10.11-19.562l62.975 23.334 19.835 59.476c-5.314 5.314-12.162 8.847-19.562 10.11l-41.3 6.997-10.961 1.859c-17.633 2.99-32.943-12.32-29.953-29.954z" fill="#ffddce"/><path d="m286.77 433.95c-5.656-5.656-8.742-13.898-7.243-22.71l1.859-10.978 6.997-41.282c1.254-7.409 4.796-14.249 10.11-19.563l60.415 22.395-33.268 4.753c-5.314 5.314-9.944 11.066-13.214 16.458l-18.23 30.05-4.849 7.988c-3.901 6.409-4.524 10.942-2.577 12.889z" fill="#ffcbbe"/><path d="m427.005 293.715-22.377-60.433 18.019-18.019c8.725-8.725 22.877-8.725 31.602 0l16.783 16.783c-2.999-2.999-12.513 1.64-21.237 10.364l-18.019 18.019z" fill="#aa3684"/><path d="m317.915 269.202h150.095v117.111h-150.095z" fill="#f6e266" transform="matrix(-.707 .707 -.707 -.707 902.588 281.651)"/><path d="m360.189 362.285-1.28-.474 1.411-.201z" fill="#f7e2bd"/><path d="m427.478 294.996-.675.131.202-1.412z" fill="#c8646d"/><path d="m290.086 280.727h150.096v38.392h-150.096z" fill="#ffd064" transform="matrix(.707 -.707 .707 .707 -105.133 346.034)"/><path d="m320.446 439.33-10.961 1.859c-8.812 1.499-17.055-1.587-22.71-7.243-5.656-5.656-8.742-13.898-7.243-22.71l1.859-10.978 10.961-1.859c3.656-.623 7.216-.447 10.522.368 12.679 3.104 21.807 15.617 19.44 29.594z" fill="#524798"/><path d="m286.775 433.946c-5.656-5.656-8.742-13.898-7.243-22.71l1.859-10.978 10.961-1.859c3.656-.623 7.216-.447 10.522.368l-8.672 14.301-4.849 7.988c-3.902 6.41-4.525 10.944-2.578 12.89z" fill="#543673"/></g></g></svg>