<svg id="Capa_1" enable-background="new 0 0 512 512" height="512" viewBox="0 0 512 512" width="512" xmlns="http://www.w3.org/2000/svg"><g><path d="m512 256c0 141.38-114.62 256-256 256-17.85 0-35.28-1.83-52.1-5.31-46.02-9.51-6.65-112.25-40.02-142.85-38.82-35.61-147.5-2.18-158.57-55.74v-.01c-3.48-16.82-5.31-34.24-5.31-52.09 0-141.38 114.62-256 256-256s256 114.62 256 256z" fill="#80b4fb"/><g><path d="m395.257 170.325-53.581-53.581 25.948-19.693 80.504-61.115c7.947-6.029 19.116-5.264 26.159 1.778 7.051 7.051 7.807 18.211 1.778 26.158l-61.115 80.504z" fill="#f9f6f9"/><g fill="#e2d8ec"><path d="m474.289 37.717c-1.841-1.841-8.603 1.802-15.84 8.54l-96.984 90.276-19.787-19.787 106.452-80.808c7.948-6.028 19.116-5.264 26.159 1.779z"/><circle cx="460.281" cy="51.724" r="13.471"/><path d="m395.257 170.325-53.581-53.581 25.948-19.693 47.326 47.326z"/></g><path d="m412.513 159.57-60.079-60.079c-8.763-8.763-22.971-8.763-31.734 0l-16.812 16.812 91.812 91.812 16.812-16.812c8.764-8.762 8.764-22.97.001-31.733z" fill="#f9f6f9"/><path d="m384.342 131.39c-8.766-8.766-22.977-8.767-31.743 0l-16.807 16.807-31.899-31.899 16.807-16.807c8.766-8.766 22.976-8.766 31.743 0z" fill="#e2d8ec"/><path d="m246.694 148.148h150.921v83.404h-150.921z" fill="#aa3684" transform="matrix(.707 .707 -.707 .707 228.601 -172.192)"/><path d="m323.56 452.43c-33.31 33.31-76.07 51.4-119.66 54.26-99.58-20.59-178-99.01-198.59-198.59 2.86-43.58 20.95-86.34 54.26-119.65 72.9-72.9 191.09-72.9 263.99 0 72.9 72.89 72.9 191.08 0 263.98z" fill="#da387d"/><path d="m353.91 228.21c-71.24-40.52-163.46-30.4-224.21 30.36-50.39 50.38-65.96 122.39-46.69 186.14-38.82-35.61-66.63-83.05-77.7-136.61v-.01c2.87-43.57 20.95-86.33 54.26-119.64 72.9-72.9 191.09-72.9 263.98 0 12.14 12.14 22.26 25.53 30.36 39.76z" fill="#aa3684"/><path d="m383.471 230.571-102.037-102.037c-7.367-7.367-7.367-19.312 0-26.679 7.367-7.367 19.312-7.367 26.679 0l102.037 102.036c7.367 7.367 7.367 19.312 0 26.679-7.367 7.368-19.312 7.368-26.679.001z" fill="#da387d"/><path d="m324.961 172.069-43.527-43.528c-7.368-7.368-7.368-19.318 0-26.687 3.681-3.681 8.508-5.524 13.336-5.524s9.655 1.844 13.343 5.532l43.528 43.527c-3.681-3.681-8.508-5.525-13.336-5.525s-9.656 1.844-13.336 5.524c-7.369 7.37-7.376 19.312-.008 26.681z" fill="#aa3684"/></g><g><path d="m502.579 125.111-22.745-22.745-22.745 22.745c-12.562 12.562-12.562 32.929 0 45.491 12.562 12.562 32.929 12.562 45.491 0 12.561-12.562 12.561-32.929-.001-45.491z" fill="#d3effb"/><path d="m479.838 180.024c-8.235 0-16.469-3.141-22.751-9.422-12.556-12.562-12.556-32.926 0-45.488l22.751-22.744-6.796 22.744c-3.75 12.562-3.75 32.926 0 45.488 1.872 6.281 4.334 9.422 6.796 9.422z" fill="#b1e4f9"/></g></g></svg>