<svg id="Capa_1" enable-background="new 0 0 512 512" height="512" viewBox="0 0 512 512" width="512" xmlns="http://www.w3.org/2000/svg"><g><path d="m512 256c0 62.5-22.4 119.77-59.61 164.22-46.96 56.1-117.51 11.26-196.39 11.26-32.05 0-62.73-5.89-91.01-16.65-41.31-15.72-77.5 38.69-105.38 5.39-37.21-44.45-59.61-101.72-59.61-164.22 0-141.38 114.62-256 256-256s256 114.62 256 256z" fill="#b1e4f9"/><g><path d="m296.328.5h-80.657c-34.422 0-62.326 27.904-62.326 62.326v142.983h205.309v-142.983c.001-34.422-27.904-62.326-62.326-62.326z" fill="#da387d"/><path d="m277.526.496c-34.42 0-62.33 27.9-62.33 62.33v142.98h-61.85v-142.98c0-34.43 27.91-62.33 62.33-62.33h61.85z" fill="#aa3684"/><path d="m452.39 256.42v163.8c-46.96 56.1-117.51 91.78-196.39 91.78s-149.43-35.68-196.39-91.78v-163.8c0-65.85 53.39-119.24 119.24-119.24h154.3c65.85 0 119.24 53.39 119.24 119.24z" fill="#30579d"/><path d="m284.22 137.18c-65.85 0-119.23 53.39-119.23 119.24v238.93c-41.31-15.72-77.5-41.83-105.38-75.13v-163.8c0-65.85 53.39-119.24 119.24-119.24z" fill="#26457d"/><g><path d="m335.38 268.63c-10.95-10.95-26.09-17.74-42.8-17.74h-73.16c-23.92 0-44.61 13.89-54.43 34.04-3.91 8-6.1 17-6.1 26.5s2.19 18.49 6.1 26.49c1.34 2.75 2.88 5.39 4.61 7.89 6.75 9.74 16.3 17.44 27.49 21.88v21.22c0 10.84 8.78 19.63 19.64 19.63 5.42 0 10.33-2.2 13.88-5.75 3.54-3.54 5.75-8.46 5.75-13.88 0 10.84 8.8 19.63 19.64 19.63s19.64-8.79 19.64-19.63c0 10.84 8.79 19.63 19.63 19.63 10.86 0 19.64-8.79 19.64-19.63v-21.22c22.38-8.9 38.2-30.72 38.2-56.26 0-16.72-6.76-31.85-17.73-42.8zm-120.45 72.25c-16.26 0-29.45-13.19-29.45-29.45s13.19-29.45 29.45-29.45 29.45 13.19 29.45 29.45-13.19 29.45-29.45 29.45zm49.84 26.04h-17.54c-9 0-14.64-9.75-10.13-17.57l8.75-15.17c4.51-7.8 15.79-7.8 20.3 0l8.75 15.17c4.51 7.82-1.13 17.57-10.13 17.57zm32.3-26.04c-16.26 0-29.45-13.19-29.45-29.45s13.19-29.45 29.45-29.45 29.45 13.19 29.45 29.45-13.19 29.45-29.45 29.45z" fill="#e1e9ee"/><g fill="#e1e9ee"><path d="m367.145 224.47h-4.649v-4.649c0-8.501-6.415-15.923-14.898-16.473-9.296-.602-17.023 6.76-17.023 15.926v5.196 19.273c0 6.985 5.663 12.648 12.648 12.648h19.273 5.196c9.166 0 16.528-7.727 15.926-17.023-.549-8.483-7.972-14.898-16.473-14.898z"/><path d="m181.42 390.91v24.46c0 8.97-7.39 16.22-16.43 15.95-.19 0-.39-.01-.59-.02-8.48-.55-14.9-7.97-14.9-16.47v-4.65h-4.65c-8.5 0-15.92-6.42-16.47-14.9-.6-9.3 6.76-17.02 15.93-17.02h24.47c6.98 0 12.64 5.66 12.64 12.65z"/><path d="m181.42 219.27v24.47c0 6.99-5.66 12.65-12.64 12.65h-24.47c-9.17 0-16.53-7.73-15.93-17.02.55-8.49 7.97-14.9 16.47-14.9h4.65v-4.65c0-8.5 6.42-15.92 14.9-16.47 4.3-.28 8.26 1.15 11.28 3.67 3.51 2.92 5.74 7.33 5.74 12.25z"/><path d="m367.145 410.179h-4.649v4.649c0 8.501-6.415 15.923-14.898 16.473-9.296.602-17.023-6.76-17.023-15.926v-5.196-19.273c0-6.985 5.663-12.648 12.648-12.648h19.273 5.196c9.166 0 16.528 7.727 15.926 17.023-.549 8.483-7.972 14.898-16.473 14.898z"/></g><g fill="#e2d8ec"><path d="m158.89 311.43c0-9.5 2.19-18.5 6.1-26.5v52.99c-3.91-8-6.1-16.99-6.1-26.49z"/><path d="m164.99 378.26v53.06c-.19 0-.39-.01-.59-.02-8.48-.55-14.9-7.97-14.9-16.47v-4.65h-4.65c-8.5 0-15.92-6.42-16.47-14.9-.6-9.3 6.76-17.02 15.93-17.02z"/><path d="m175.68 207.02c-6.86 15.04-10.69 31.76-10.69 49.37h-20.68c-9.17 0-16.53-7.73-15.93-17.02.55-8.49 7.97-14.9 16.47-14.9h4.65v-4.65c0-8.5 6.42-15.92 14.9-16.47 4.3-.28 8.26 1.15 11.28 3.67z"/></g></g></g><g fill="#aa3684"><path d="m235.186 116.564c-6.19 0-11.207-5.018-11.207-11.207v-62.892c0-6.19 5.018-11.207 11.207-11.207 6.19 0 11.207 5.018 11.207 11.207v62.891c.001 6.19-5.017 11.208-11.207 11.208z"/><path d="m276.814 116.564c-6.19 0-11.207-5.018-11.207-11.207v-62.892c0-6.19 5.018-11.207 11.207-11.207 6.19 0 11.207 5.018 11.207 11.207v62.891c0 6.19-5.017 11.208-11.207 11.208z"/><path d="m318.441 116.564c-6.19 0-11.207-5.018-11.207-11.207v-62.892c0-6.19 5.018-11.207 11.207-11.207 6.19 0 11.207 5.018 11.207 11.207v62.891c.001 6.19-5.017 11.208-11.207 11.208z"/></g></g></svg>