<svg id="Capa_1" enable-background="new 0 0 512 512" height="512" viewBox="0 0 512 512" width="512" xmlns="http://www.w3.org/2000/svg"><g><path d="m512 256c0 28.33-4.6 55.58-13.1 81.05-33.9 101.66-477.89 23.52-485.57.69-8.64-25.67-13.33-53.16-13.33-81.74 0-141.38 114.62-256 256-256s256 114.62 256 256z" fill="#524798"/><path d="m87.728 281.941v-219.631c0-31.65 25.66-57.31 57.31-57.31h288.43c28.1 0 51.48 20.23 56.36 46.92.62 3.37.94 6.84.94 10.39v249.56" fill="#e2d8ec"/><path d="m461.84 81.23v249.56l-403.04-29.93v-219.63c0-31.65 25.66-57.31 57.31-57.31h288.43c28.1 0 51.48 20.23 56.36 46.92.62 3.37.94 6.84.94 10.39z" fill="#f9f6f9"/><path d="m461.84 222.3 10.306 17.396-10.306 91.094-403.04-29.93v-161.19c13.88-15.32 33.94-24.94 56.24-24.94h90.36c24.7 0 47.86 12.01 62.07 32.21l29.58 42.03c14.21 20.2 37.36 32.22 62.06 32.22h89.71c4.44 0 8.79.38 13.02 1.11z" fill="#e2d8ec"/><path d="m498.9 307.06v29.99c-33.9 101.66-129.85 174.95-242.9 174.95-112.8 0-208.56-72.96-242.67-174.26v-137.15c0-41.91 33.98-75.89 75.9-75.89h90.36c24.7 0 47.85 12.02 62.06 32.22l29.58 42.03c14.22 20.2 37.37 32.22 62.07 32.22h89.71c41.91 0 75.89 33.97 75.89 75.89z" fill="#f6e266"/><path d="m121.17 124.7c-41.92 0-75.9 33.98-75.9 75.89v200.8c-13.44-19.44-24.26-40.82-31.94-63.65v-137.15c0-41.91 33.98-75.89 75.9-75.89z" fill="#ffd064"/><path d="m238.986 397.153h-140.727c-18.648 0-33.766-15.118-33.766-33.766v-68.145c0-18.648 15.118-33.766 33.766-33.766h140.727c18.648 0 33.766 15.118 33.766 33.766v68.145c0 18.649-15.117 33.766-33.766 33.766z" fill="#ffd064"/><path d="m427.191 91.475h-20.684v-20.684c0-4.673-3.788-8.461-8.461-8.461h-24.713c-4.673 0-8.461 3.788-8.461 8.461v20.684h-20.684c-4.673 0-8.461 3.788-8.461 8.461v24.713c0 4.673 3.788 8.461 8.461 8.461h20.684v20.684c0 4.673 3.788 8.461 8.461 8.461h24.713c4.673 0 8.461-3.788 8.461-8.461v-20.684h20.684c4.673 0 8.461-3.788 8.461-8.461v-24.712c.001-4.673-3.787-8.462-8.461-8.462z" fill="#da387d"/><path d="m252.226 106.347h-139.667c-8.54 0-15.463-6.923-15.463-15.463 0-8.54 6.923-15.463 15.463-15.463h139.667c8.54 0 15.463 6.923 15.463 15.463 0 8.54-6.923 15.463-15.463 15.463z" fill="#30579d"/><g fill="#80b4fb"><path d="m226.734 321.804h-116.118c-7.1 0-12.856-5.756-12.856-12.856 0-7.1 5.756-12.856 12.856-12.856h116.117c7.1 0 12.856 5.756 12.856 12.856 0 7.1-5.755 12.856-12.855 12.856z"/><path d="m182.882 364.106h-72.266c-7.1 0-12.856-5.756-12.856-12.856 0-7.1 5.756-12.856 12.856-12.856h72.266c7.1 0 12.856 5.756 12.856 12.856 0 7.1-5.756 12.856-12.856 12.856z"/></g></g></svg>