<svg id="Capa_1" enable-background="new 0 0 512 512" height="512" viewBox="0 0 512 512" width="512" xmlns="http://www.w3.org/2000/svg"><g><path d="m512 256c0 59.57-20.35 114.39-54.48 157.89-46.86 59.73-119.71 21.784-201.52 21.784-32.45 0-63.5-6.04-92.08-17.07-43.44-16.74-81.17 31.316-109.44-4.713-34.13-43.501-54.48-98.321-54.48-157.891 0-141.38 114.62-256 256-256s256 114.62 256 256z" fill="#f6e266"/><path d="m128.455 98.699h270.023v105.083h-270.023z" fill="#e2d8ec"/><path d="m385.103 129.293h-258.206c-22.915 0-41.491-18.576-41.491-41.491v-46.311c0-22.915 18.577-41.491 41.491-41.491h258.205c22.915 0 41.491 18.576 41.491 41.491v46.311c.001 22.915-18.576 41.491-41.49 41.491z" fill="#da387d"/><path d="m234.636 129.291h-107.74c-22.91 0-41.49-18.58-41.49-41.49v-46.31c0-22.92 18.58-41.49 41.49-41.49h107.74c-22.91 0-41.49 18.57-41.49 41.49v46.31c0 22.91 18.58 41.49 41.49 41.49z" fill="#aa3684"/><path d="m457.52 232.239v181.651c-46.86 59.73-119.71 98.11-201.52 98.11s-154.66-38.38-201.52-98.11v-181.651c0-46.58 37.76-84.35 84.35-84.35h234.34c46.59 0 84.35 37.77 84.35 84.35z" fill="#f9f6f9"/><path d="m157.5 232.239v230.371c0 11.45 2.28 22.37 6.42 32.32-43.44-16.74-81.17-45.01-109.44-81.04v-181.651c0-46.58 37.76-84.35 84.35-84.35h103.02c-46.58 0-84.35 37.77-84.35 84.35z" fill="#e2d8ec"/><path d="m413.11 302.82v99.22c0 30.08-24.39 54.47-54.48 54.47h-205.26c-30.09 0-54.48-24.39-54.48-54.47v-99.22c0-30.09 24.39-54.48 54.48-54.48h205.26c30.09 0 54.48 24.39 54.48 54.48z" fill="#da387d"/><path d="m157.5 248.34v208.17h-4.13c-30.09 0-54.48-24.39-54.48-54.47v-99.22c0-30.09 24.39-54.48 54.48-54.48z" fill="#aa3684"/><path d="m318.557 321.045h-31.177v-31.178c0-7.044-5.71-12.754-12.754-12.754h-37.251c-7.044 0-12.754 5.71-12.754 12.754v31.178h-31.178c-7.044 0-12.754 5.71-12.754 12.754v37.251c0 7.044 5.71 12.754 12.754 12.754h31.178v31.178c0 7.044 5.71 12.754 12.754 12.754h37.251c7.044 0 12.754-5.71 12.754-12.754v-31.178h31.178c7.044 0 12.754-5.71 12.754-12.754v-37.251c0-7.044-5.711-12.754-12.755-12.754z" fill="#f9f6f9"/><g><g><path d="m499.429 483.834c-8.378 8.378-19.363 12.572-30.348 12.572s-21.97-4.193-30.348-12.572l-22.562-22.562 19.871-36.786 40.826-23.911 22.562 22.562c16.756 16.758 16.764 43.932-.001 60.697z" fill="#da387d"/><path d="m476.867 400.576-60.696 60.696-22.554-22.553c-16.765-16.765-16.757-43.94 0-60.696 8.387-8.387 19.363-12.572 30.348-12.572s21.97 4.193 30.348 12.572z" fill="#95d6a4"/><path d="m499.429 483.834c-8.378 8.378-19.363 12.572-30.348 12.572s-21.97-4.193-30.348-12.572l-22.562-22.562 6.703-15.466 15.44-6.676 22.562 22.562c8.378 8.378 19.363 12.572 30.348 12.572 5.871 0 11.733-1.192 17.193-3.577-2.089 4.769-5.082 9.242-8.988 13.147z" fill="#aa3684"/><path d="m438.313 439.13-22.142 22.142-22.554-22.553c-16.765-16.765-16.757-43.939 0-60.696 3.906-3.906 8.378-6.898 13.156-8.995-6.866 15.713-3.873 34.689 8.987 47.549z" fill="#78c2a4"/></g><g><path d="m479.058 469.081c0 11.849-4.803 22.582-12.57 30.349s-18.5 12.57-30.349 12.57h-31.907l-11.961-40.062 11.961-45.776h31.907c23.698 0 42.919 19.21 42.919 42.919z" fill="#80b4fb"/><path d="m404.232 426.162v85.838h-31.895c-23.71 0-42.919-19.221-42.919-42.919 0-11.86 4.802-22.582 12.57-30.349s18.5-12.57 30.349-12.57z" fill="#f6e266"/><path d="m479.058 469.081c0 11.849-4.803 22.582-12.57 30.349s-18.5 12.57-30.349 12.57h-31.907l-6.196-15.676 6.196-15.638h31.907c11.849 0 22.581-4.802 30.349-12.57 4.151-4.151 7.453-9.14 9.628-14.686 1.895 4.849 2.942 10.128 2.942 15.651z" fill="#61a2f9"/><path d="m404.232 480.686v31.314h-31.895c-23.71 0-42.919-19.221-42.919-42.919 0-5.523 1.046-10.802 2.942-15.663 6.256 15.965 21.791 27.268 39.977 27.268z" fill="#ffd064"/></g></g><g fill="#aa3684"><path d="m214.372 107.299c-6.19 0-11.207-5.018-11.207-11.207v-62.891c0-6.19 5.018-11.207 11.207-11.207 6.19 0 11.207 5.018 11.207 11.207v62.891c.001 6.189-5.017 11.207-11.207 11.207z"/><path d="m256 107.299c-6.19 0-11.207-5.018-11.207-11.207v-62.891c0-6.19 5.018-11.207 11.207-11.207 6.19 0 11.207 5.018 11.207 11.207v62.891c0 6.189-5.017 11.207-11.207 11.207z"/><path d="m297.628 107.299c-6.19 0-11.207-5.018-11.207-11.207v-62.891c0-6.19 5.018-11.207 11.207-11.207 6.19 0 11.207 5.018 11.207 11.207v62.891c0 6.189-5.018 11.207-11.207 11.207z"/><path d="m339.255 107.299c-6.19 0-11.207-5.018-11.207-11.207v-62.891c0-6.19 5.018-11.207 11.207-11.207 6.19 0 11.207 5.018 11.207 11.207v62.891c0 6.189-5.017 11.207-11.207 11.207z"/><path d="m380.883 107.299c-6.19 0-11.207-5.018-11.207-11.207v-62.891c0-6.19 5.018-11.207 11.207-11.207 6.19 0 11.207 5.018 11.207 11.207v62.891c0 6.189-5.018 11.207-11.207 11.207z"/></g></g></svg>