<svg id="Capa_1" enable-background="new 0 0 512 512" height="512" viewBox="0 0 512 512" width="512" xmlns="http://www.w3.org/2000/svg"><g><path d="m512 256c0 141.38-114.62 256-256 256s-256-114.62-256-256 114.62-256 256-256c32.5 0 63.58 6.06 92.18 17.1h.01c18.03 6.97 11.951 67.014 27.741 77.674 43.09 29.09 99.969 19.846 118.969 69.046 11.04 28.6 17.1 59.68 17.1 92.18z" fill="#80b4fb"/><g><path d="m494.9 163.82c-.8 29.34-12.38 58.42-34.77 80.81l-151.67 151.67c-32.89 32.9-80.28 42.47-121.61 28.74-11.26-3.74-23.14-3.79-34.02-.41l-60.224-5.296-5.226-60.164c3.37-10.88 3.32-22.76-.41-34.01-13.74-41.34-4.16-88.73 28.73-121.62l151.67-151.67c22.39-22.39 51.47-33.97 80.81-34.77 67.23 25.96 120.76 79.49 146.72 146.72z" fill="#d3effb"/><path d="m399.05 43.67c-28.34 1.81-62.77 18.77-91.94 47.94l-151.67 151.67c-32.89 32.89-50.26 72.49-47.88 102.47.64 8.16-1.76 17.59-6.69 26.91l-8.042 2.336-5.448-15.826c3.37-10.88 3.32-22.76-.41-34.01-13.74-41.34-4.16-88.73 28.73-121.62l151.67-151.67c22.39-22.39 51.47-33.97 80.81-34.77h.01c18.03 6.97 35.07 15.91 50.86 26.57z" fill="#b1e4f9"/><path d="m435.767 208.899-169.84 169.84c-21.354 21.354-55.988 21.362-77.35 0l-55.315-55.315c-7.928-7.928-12.906-17.68-14.943-27.9-3.469-17.33 1.509-36.016 14.943-49.45l169.84-169.84c12.156-12.156 28.616-17.398 44.472-15.71 12.011 1.27 23.672 6.504 32.879 15.71l55.315 55.315c21.361 21.362 21.361 55.988-.001 77.35z" fill="#b1e4f9"/><path d="m118.319 295.524c-3.469-17.33 1.509-36.016 14.943-49.45l169.84-169.84c12.156-12.156 28.616-17.398 44.472-15.71-13.861 7.842-27.67 18.293-40.465 31.089l-151.666 151.665c-16.418 16.418-28.975 34.516-37.124 52.246z" fill="#a2dae8"/><g fill="#a2dae8"><path d="m391.121 208.189-87.309-87.309c-6.575-6.575-6.575-17.236 0-23.812 6.575-6.575 17.236-6.575 23.811 0l87.309 87.309c6.575 6.575 6.575 17.236 0 23.812-6.575 6.576-17.235 6.576-23.811 0z"/><path d="m339.487 259.823-87.309-87.309c-6.575-6.575-6.575-17.236 0-23.812 6.575-6.575 17.236-6.575 23.812 0l87.309 87.309c6.575 6.575 6.575 17.236 0 23.812-6.576 6.576-17.236 6.576-23.812 0z"/><path d="m287.853 311.458-87.309-87.309c-6.575-6.575-6.575-17.236 0-23.812 6.575-6.575 17.236-6.575 23.812 0l87.309 87.309c6.575 6.575 6.575 17.236 0 23.811-6.576 6.576-17.236 6.576-23.812.001z"/><path d="m236.219 363.092-87.309-87.309c-6.575-6.575-6.575-17.236 0-23.812 6.575-6.575 17.236-6.575 23.812 0l87.309 87.309c6.575 6.575 6.575 17.236 0 23.812-6.576 6.575-17.236 6.575-23.812 0z"/></g><path d="m384.297 127.705c-7.515-7.515-19.698-7.515-27.213 0l-305.014 305.014 27.213 27.213 305.014-305.014c7.515-7.515 7.515-19.699 0-27.213z" fill="#da387d"/><path d="m388.254 133.445c-7.08-3.17-15.68-1.85-21.48 3.95l-305.02 305.01-9.68-9.68 305.01-305.02c7.52-7.51 19.7-7.51 27.22 0 1.71 1.71 3.03 3.659 3.95 5.74z" fill="#aa3684"/><path d="m152.834 424.626c-8.175 2.532-15.779 7.016-22.078 13.315l-31.063 31.063c-7.834 7.834-18.089 11.747-28.343 11.738-10.263 0-20.527-3.921-28.352-11.746-15.651-15.651-15.659-41.028 0-56.687l31.063-31.063c6.299-6.299 10.783-13.903 13.315-22.078z" fill="#da387d"/><path d="m42.588 468.569c-15.233-15.676-15.114-40.738.409-56.26l31.063-31.063c6.299-6.299 10.783-13.903 13.315-22.078l13.494 13.494c-3.691 7.016-8.814 13.98-15.114 20.28l-31.063 31.063c-15.411 15.411-20.713 35.17-12.104 44.564z" fill="#aa3684"/></g><g fill="#d3effb"><path d="m189.114 59.68-2.416.671c-8.521 2.365-17.418-2.271-20.361-10.61l-9.052-25.65c-3.242-9.188 1.975-19.199 11.363-21.805l6.003-1.666c9.388-2.606 19.019 3.284 20.977 12.829l5.464 26.646c1.777 8.66-3.457 17.219-11.978 19.585z"/><path d="m116.994 101.431-1.757 1.789c-6.197 6.309-16.22 6.742-22.938.992l-20.664-17.688c-7.402-6.336-7.889-17.615-1.062-24.565l4.366-4.445c6.827-6.951 18.113-6.665 24.58.622l18.055 20.344c5.87 6.613 5.616 16.642-.58 22.951z"/><path d="m75.412 173.649-.627 2.428c-2.212 8.562-10.676 13.949-19.369 12.328l-26.74-4.986c-9.578-1.786-15.64-11.31-13.202-20.743l1.559-6.032c2.437-9.433 12.354-14.829 21.598-11.752l25.808 8.591c8.39 2.791 13.185 11.604 10.973 20.166z"/></g></g></svg>