<svg id="Capa_1" enable-background="new 0 0 512 512" height="512" viewBox="0 0 512 512" width="512" xmlns="http://www.w3.org/2000/svg"><g><path d="m512 256c0 85.5-41.915 161.21-106.317 207.704-42.095 30.389-93.798-69.38-149.683-69.38s-107.587 99.769-149.683 69.38c-64.402-46.494-106.317-122.204-106.317-207.704 0-141.385 114.615-256 256-256s256 114.615 256 256z" fill="#8b5e5e"/><path d="m467.5 44.42-8.25 55.93-53.57 363.35c-42.1 30.39-93.8 48.3-149.68 48.3s-107.58-17.91-149.68-48.3l-53.57-363.35-8.25-55.93z" fill="#b1e4f9"/><path d="m198.64 505.54c-33.81-7.73-65.08-22.17-92.32-41.84l-53.57-363.35v-.01l-8.24-55.92h126.95z" fill="#a2dae8"/><path d="m416.27 138.2-41.59 282.1c-4.63 31.42-31.59 54.7-63.35 54.7h-110.66c-1.29 0-2.57-.04-3.84-.12-30.07-1.78-55.07-24.44-59.51-54.58l-41.59-282.1z" fill="#d3effb"/><path d="m196.83 474.88c-30.07-1.78-55.07-24.44-59.51-54.58l-41.59-282.1h81.26z" fill="#b1e4f9"/><path d="m467.496 64.425h-422.992c-11.046 0-20-8.954-20-20s8.954-20 20-20h422.992c11.046 0 20 8.954 20 20s-8.954 20-20 20z" fill="#b1e4f9"/><g><path d="m357.397 426.177c-10.445 10.445-24.139 15.672-37.832 15.672s-27.387-5.227-37.832-15.672l-28.126-28.126 24.771-45.857 50.893-29.807 28.126 28.126c20.889 20.889 20.899 54.764 0 75.664z" fill="#da387d"/><path d="m329.271 322.387-75.664 75.664-28.115-28.115c-20.9-20.9-20.889-54.775 0-75.664 10.455-10.455 24.138-15.672 37.832-15.672s27.388 5.228 37.832 15.672z" fill="#95d6a4"/><path d="m357.396 426.177c-10.445 10.445-24.138 15.672-37.832 15.672s-27.387-5.227-37.832-15.672l-28.126-28.126 8.356-19.28 19.247-8.323 28.126 28.126c10.445 10.445 24.138 15.672 37.832 15.672 7.318 0 14.626-1.486 21.432-4.459-2.603 5.945-6.334 11.521-11.203 16.39z" fill="#aa3684"/><path d="m281.209 370.448-27.603 27.603-28.115-28.115c-20.9-20.9-20.889-54.775 0-75.664 4.869-4.869 10.444-8.6 16.4-11.213-8.559 19.587-4.828 43.244 11.203 59.275z" fill="#78c2a4"/></g><g><path d="m332.001 407.785c0 14.771-5.987 28.15-15.67 37.833s-23.062 15.67-37.833 15.67h-39.776l-14.91-49.942 14.91-57.064h39.776c29.542.001 53.503 23.947 53.503 53.503z" fill="#80b4fb"/><path d="m238.72 354.28v107.01h-39.76c-.99 0-1.97-.03-2.94-.08-28.18-1.53-50.56-24.87-50.56-53.42 0-14.79 5.99-28.15 15.67-37.84 7.63-7.63 17.55-12.96 28.64-14.88 2.99-.52 6.06-.79 9.19-.79z" fill="#f6e266"/><path d="m196.02 461.21c-28.18-1.53-50.56-24.87-50.56-53.42 0-14.79 5.99-28.15 15.67-37.84 7.63-7.63 17.55-12.96 28.64-14.88z" fill="#ffd064"/><path d="m332.001 407.785c0 14.771-5.987 28.15-15.67 37.833s-23.062 15.67-37.833 15.67h-39.776l-7.725-19.541 7.725-19.495h39.776c14.771 0 28.15-5.987 37.833-15.67 5.175-5.175 9.291-11.393 12.002-18.308 2.363 6.045 3.668 12.626 3.668 19.511z" fill="#61a2f9"/><path d="m238.723 422.252v39.036h-39.761c-29.556 0-53.503-23.961-53.503-53.503 0-6.885 1.304-13.466 3.667-19.525 7.798 19.902 27.164 33.992 49.835 33.992z" fill="#ffd064"/></g></g></svg>