<svg id="Capa_1" enable-background="new 0 0 512 512" height="512" viewBox="0 0 512 512" width="512" xmlns="http://www.w3.org/2000/svg"><g><path d="m512 256c0 135.72-105.62 246.78-239.15 255.45-5.57.37-11.19-12.573-16.85-12.573-1.29 0-2.59-.01-3.88-.03-4.35-.06-8.67 12.893-12.97 12.603-133.53-8.67-239.15-119.73-239.15-255.45 0-141.38 114.62-256 256-256s256 114.62 256 256z" fill="#b1e4f9"/><g><path d="m472.178 117.474h-21.652c8.76 0 16.69 3.55 22.43 9.29 5.73 5.74 9.28 13.67 9.28 22.43 0 17.51-14.19 31.71-31.71 31.71h-35.44c15.685 0 28.43 12.572 28.725 28.186.304 16.103-13.265 29.284-29.371 29.284h-316.878c-16.106 0-29.675-13.18-29.371-29.284.295-15.615 13.04-28.186 28.725-28.186h-35.44c-8.76 0-16.68-3.55-22.42-9.29s-9.29-13.66-9.29-22.42c0-17.52 14.2-31.72 31.71-31.72h-21.652c-21.261 0-39.062-17.4-38.651-38.657.398-20.595 17.213-37.163 37.903-37.163h45.969c23.925 0 44.817 15.645 52.173 38.411 16.2 50.136 63.26 86.399 118.788 86.399s102.587-36.263 118.788-86.399c7.356-22.766 28.248-38.411 52.173-38.411h45.959c20.691 0 37.505 16.568 37.903 37.163.41 21.258-17.39 38.657-38.651 38.657z" fill="#f9f6f9"/><g fill="#e2d8ec"><path d="m461.054 41.645c-23.92 0-44.81 15.65-52.17 38.42-16.2 50.13-63.26 86.39-118.79 86.39-5.78 0-11.48-.39-17.05-1.16 47.95-6.54 87.24-40.32 101.75-85.23 7.35-22.77 28.25-38.42 52.17-38.42z"/><path d="m95.861 180.901h-34.38c-8.76 0-16.68-3.55-22.42-9.29s-9.29-13.66-9.29-22.42c0-17.52 14.2-31.72 31.71-31.72h-21.66c-21.26 0-39.06-17.4-38.65-38.65.4-20.6 17.22-37.17 37.91-37.17h34.38c-20.69 0-37.51 16.57-37.91 37.17-.41 21.25 17.39 38.65 38.65 38.65h21.66c-17.51 0-31.71 14.2-31.71 31.72 0 8.76 3.55 16.68 9.29 22.42s13.66 9.29 22.42 9.29z"/><path d="m131.941 238.371h-34.38c-16.1 0-29.67-13.18-29.37-29.28.3-15.61 13.04-28.19 28.73-28.19h34.38c-15.69 0-28.43 12.58-28.73 28.19-.3 16.1 13.27 29.28 29.37 29.28z"/></g><path d="m291.01 90.85-18.16 420.6c-5.57.37-11.19.55-16.85.55s-11.28-.18-16.85-.55l-18.15-420.6z" fill="#f6e266"/><path d="m252.12 511.97c-4.35-.06-8.67-.23-12.97-.52l-18.16-420.6h26.94z" fill="#ffd064"/><circle cx="256.001" cy="66.508" fill="#da387d" r="66.508"/><path d="m277.063 129.618c-6.62 2.2-13.7 3.4-21.06 3.4-36.73 0-66.51-29.77-66.51-66.51 0-36.73 29.78-66.5 66.51-66.5 7.36 0 14.44 1.2 21.06 3.4-26.41 8.81-45.45 33.73-45.45 63.1 0 29.38 19.04 54.3 45.45 63.11z" fill="#aa3684"/><g><g><path d="m216.132 119.973c-138.035-17.554-162.779 145.789-53.895 172.443 5.567 1.363 11.483-4.86 17.751-4.254 11.657.002 80.305 5.912 122.062 5.18 13.614-.239 24.37-.415 29.361-.463 3.655-.08 7.119 1.248 9.837 3.724 10.042 9.185 3.053 26.088-10.391 26.471-29.746 1.874-64.54-1.947-93.76 3.954-58.312 18.661-45.266 106.313 16.327 106.013 17.177-.295 37.081-.635 54.274-.93 6.971-.469 12.859 6.392 11.68 13.181-.747 5.692-5.886 10.176-11.654 10.402-8.022.143-20.989.359-29.136.501 0 0-121.351 2.08-121.351 2.08-8.733.15-15.692 7.351-15.542 16.084.146 8.542 7.068 15.386 15.542 15.542l121.351 2.08c27.316 1.436 58.586 2.983 73.166-25.276 12.454-21.847 5.326-51.652-15.546-65.649-24.065-15.684-56.105-7.185-83.23-10.068-13.444-1.036-13.389-21.291.403-21.103 26.113.196 57.416 1.497 83.47 1.103 81.631-7.041 75.627-130.211-5.974-130.612-45.795-.821-103.747-1.711-149.636-2.601-27.362-.711-36.288-40.028-10.805-51.244 8.656-4.993 35.38-.649 45.695-1.653 43.385-.009 43.354-64.873.001-64.905z" fill="#78c2a4"/><g fill="#66b394"><path d="m330.856 323.075c-4.267.269-8.64.418-13.083.498 13.033.085 25.944.263 38.023-.498 13.444-.383 20.433-17.286 10.391-26.471-2.718-2.476-6.181-3.804-9.837-3.724-4.005.038-11.734.16-21.663.329 2.421.525 4.672 1.676 6.559 3.395 10.043 9.185 3.054 26.088-10.39 26.471z"/><path d="m253.423 433.041c5.907-.101 12.14-.208 18.471-.317-55.964-5.633-66.065-87.708-9.857-105.696 11.831-2.389 24.576-3.185 37.529-3.409-21.208-.141-43.067-.509-62.47 3.409-58.312 18.662-45.266 106.313 16.327 106.013z"/><path d="m188.401 483.261c-8.474-.156-15.232-1.477-15.379-10.019-.15-8.733.42-14.817 9.154-14.966l121.351-2.08c8.147-.142 21.114-.358 29.136-.501 5.768-.226 10.907-4.709 11.654-10.402 1.179-6.789-4.709-13.649-11.68-13.181-6.861.118-14.156.243-21.536.369 5.348 1.492 9.255 7.169 8.275 12.812-.747 5.692-5.886 10.176-11.654 10.402-8.022.144-20.989.36-29.136.501l-121.351 2.08c-8.733.15-15.692 7.351-15.542 16.084.146 8.542 7.068 15.386 15.542 15.542l112.693 1.067c9.661.507-81.527-7.708-81.527-7.708z"/><path d="m202.309 287.88c-13.363-1.554-25.077 2.273-35.168-2.544-77.376-36.938-59.373-157.134 41.552-166.139-130.38-10.767-152.989 144.492-49.041 172.554 6.311 1.704 13.088-4.29 20.336-3.589 3.364.001 11.479-.109 22.321-.282z"/></g><path d="m212.493 156.632c3.485 0 6.31-2.825 6.31-6.31v-17.428c0-3.485-2.825-6.31-6.31-6.31-3.485 0-6.31 2.825-6.31 6.31v17.428c0 3.485 2.825 6.31 6.31 6.31z" fill="#30579d"/><path d="m190.404 156.632c3.485 0 6.31-2.825 6.31-6.31v-17.428c0-3.485-2.825-6.31-6.31-6.31-3.485 0-6.31 2.825-6.31 6.31v17.428c0 3.485 2.825 6.31 6.31 6.31z" fill="#30579d"/><path d="m224.212 187.973h11.218c5.241 0 9.505-4.264 9.505-9.505s-4.264-9.505-9.505-9.505h-14.023c-2.496 0-4.518-2.023-4.518-4.518s2.023-4.518 4.518-4.518h14.023c10.224 0 18.541 8.317 18.541 18.541s-8.317 18.541-18.541 18.541h-11.218c-4.578 0-8.303 3.725-8.303 8.303s3.725 8.303 8.303 8.303h10.743c1.796-4.456 6.158-7.612 11.249-7.612 2.496 0 4.518 2.023 4.518 4.518s-2.023 4.518-4.518 4.518c-1.707 0-3.095 1.388-3.095 3.094s1.388 3.094 3.095 3.094c2.496 0 4.518 2.023 4.518 4.518s-2.023 4.518-4.518 4.518c-5.091 0-9.453-3.156-11.249-7.612h-10.743c-9.56 0-17.339-7.778-17.339-17.339s7.779-17.339 17.339-17.339z" fill="#da387d"/></g><g><path d="m295.87 119.973c145.091-18.451 165.013 162.963 36.144 175.417-15.458.003-131.125-2.316-151.423-2.511-3.655-.08-7.119 1.248-9.837 3.724-10.042 9.185-3.053 26.088 10.391 26.471 29.746 1.874 64.54-1.947 93.76 3.954 58.312 18.661 45.266 106.313-16.327 106.013-17.177-.295-37.081-.635-54.274-.93-6.971-.469-12.859 6.392-11.68 13.181.747 5.692 5.886 10.176 11.654 10.402 8.022.143 20.989.359 29.136.501 0 0 121.351 2.08 121.351 2.08 8.733.15 15.692 7.351 15.542 16.084-.146 8.542-7.068 15.386-15.542 15.542l-121.351 2.08c-27.316 1.436-58.586 2.983-73.166-25.276-12.454-21.847-5.326-51.652 15.546-65.649 24.065-15.684 56.105-7.185 83.23-10.068 13.444-1.036 13.389-21.291-.403-21.103-26.113.196-57.416 1.497-83.47 1.103-81.631-7.041-75.627-130.211 5.974-130.612 45.795-.821 103.747-1.711 149.636-2.601 27.362-.711 36.288-40.028 10.805-51.244-8.656-4.993-35.38-.649-45.695-1.653-43.385-.009-43.354-64.873-.001-64.905z" fill="#95d6a4"/><g fill="#78c2a4"><path d="m259.024 390.988c-1.725.183-3.47.32-5.232.42 9.481.248 18.888.524 27.768-.42 13.444-1.036 13.389-21.291-.403-21.103-6.306.047-12.918.16-19.682.296 10.861 2.45 9.988 19.848-2.451 20.807z"/><path d="m182.785 466.705c-12.454-21.847-5.326-51.652 15.546-65.649 10.238-6.672 21.92-8.961 34.052-9.619-19.842-.52-40.09-1.134-56.589 9.619-20.871 13.997-28 43.802-15.546 65.649 13.498 26.16 41.295 26.776 67.021 25.584-18.128-1.32-34.906-7.022-44.484-25.584z"/><path d="m197.651 370.983c-81.592-7.076-75.578-130.207 6.01-130.608 45.795-.821 103.747-1.711 149.636-2.601 27.362-.711 36.288-40.028 10.805-51.244-5.499-3.172-18.288-2.576-29.532-1.976 2.858.371 5.283.989 6.995 1.976 25.483 11.216 16.557 50.533-10.805 51.244-45.889.89-103.841 1.781-149.636 2.601-81.601.402-87.605 123.571-5.974 130.612 7.174.108 14.751.086 22.501-.004z"/><path d="m295.871 184.876c3.939.383 10.273-.013 17.079-.372-37.836-5.212-35.993-64.501 5.457-64.532 2.957-.376 5.857-.661 8.71-.874-9.669-.778-20.086-.545-31.246.874-43.354.033-43.385 64.897 0 64.904z"/></g><path d="m299.509 156.632c-3.485 0-6.31-2.825-6.31-6.31v-17.428c0-3.485 2.825-6.31 6.31-6.31 3.485 0 6.31 2.825 6.31 6.31v17.428c0 3.485-2.825 6.31-6.31 6.31z" fill="#30579d"/><path d="m321.597 156.632c-3.485 0-6.31-2.825-6.31-6.31v-17.428c0-3.485 2.825-6.31 6.31-6.31 3.485 0 6.31 2.825 6.31 6.31v17.428c.001 3.485-2.824 6.31-6.31 6.31z" fill="#30579d"/><path d="m287.79 187.973h-11.218c-5.241 0-9.505-4.264-9.505-9.505s4.264-9.505 9.505-9.505h14.023c2.496 0 4.518-2.023 4.518-4.518s-2.023-4.518-4.518-4.518h-14.023c-10.224 0-18.541 8.317-18.541 18.541s8.317 18.541 18.541 18.541h11.218c4.578 0 8.303 3.725 8.303 8.303s-3.725 8.303-8.303 8.303h-10.743c-1.796-4.456-6.158-7.612-11.249-7.612-2.496 0-4.518 2.023-4.518 4.518s2.023 4.518 4.518 4.518c1.707 0 3.095 1.388 3.095 3.094s-1.388 3.094-3.095 3.094c-2.496 0-4.518 2.023-4.518 4.518s2.023 4.518 4.518 4.518c5.091 0 9.453-3.156 11.249-7.612h10.743c9.56 0 17.339-7.778 17.339-17.339s-7.779-17.339-17.339-17.339z" fill="#da387d"/></g></g><path d="m281.36 314.32-5.74 133.01h-39.24l-5.74-133.01z" fill="#f6e266"/><path d="m251.48 447.33h-15.1l-5.74-133.01h19.51z" fill="#ffd064"/></g><g fill="#d3effb"><g><path d="m422.37 440.29 1.181-2.088c4.164-7.363 13.318-10.245 20.948-6.595l23.472 11.227c8.407 4.021 11.65 14.322 7.063 22.435l-2.933 5.188c-4.587 8.112-15.086 10.643-22.865 5.511l-21.719-14.327c-7.062-4.658-9.311-13.988-5.147-21.351z"/><path d="m442.911 363.268-.021-2.398c-.076-8.459 6.411-15.531 14.844-16.186l25.941-2.013c9.292-.721 17.251 6.578 17.334 15.897l.053 5.959c.084 9.319-7.743 16.76-17.046 16.206l-25.973-1.548c-8.444-.503-15.057-7.458-15.132-15.917z"/><path d="m422.189 286.295-1.218-2.066c-4.295-7.287-2.214-16.656 4.763-21.44l21.459-14.714c7.686-5.27 18.229-2.928 22.961 5.101l3.026 5.134c4.732 8.029 1.674 18.386-6.66 22.558l-23.267 11.646c-7.565 3.786-16.769 1.069-21.064-6.219z"/></g><g><path d="m89.63 283.916-1.181 2.088c-4.164 7.363-13.318 10.245-20.948 6.595l-23.472-11.227c-8.407-4.021-11.65-14.322-7.063-22.435l2.933-5.188c4.587-8.112 15.086-10.643 22.865-5.511l21.719 14.327c7.062 4.658 9.311 13.988 5.147 21.351z"/><path d="m69.089 360.938.021 2.398c.076 8.458-6.411 15.531-14.844 16.186l-25.941 2.013c-9.292.721-17.251-6.578-17.334-15.897l-.053-5.959c-.084-9.319 7.743-16.76 17.046-16.206l25.973 1.548c8.444.503 15.057 7.458 15.132 15.917z"/><path d="m89.811 437.911 1.218 2.066c4.295 7.287 2.214 16.656-4.763 21.44l-21.459 14.714c-7.686 5.27-18.229 2.928-22.961-5.101l-3.026-5.134c-4.732-8.029-1.674-18.386 6.66-22.558l23.267-11.646c7.565-3.786 16.769-1.068 21.064 6.219z"/></g></g></g></svg>