<svg id="Capa_1" enable-background="new 0 0 512 512" height="512" viewBox="0 0 512 512" width="512" xmlns="http://www.w3.org/2000/svg"><g><path d="m512 256c0 86.3-42.71 162.63-108.14 209-41.76 29.6-92.78-50.864-147.86-50.864-34.01 0-66.47-6.63-96.16-18.69-34.88-14.13-65.93 62.114-91.18 35.023-42.59-45.719-68.66-107.049-68.66-174.469 0-141.38 114.62-256 256-256s256 114.62 256 256z" fill="#95d6a4"/><g fill="#d3effb"><path d="m374.455 124.997 1.059-1.873c3.736-6.607 11.949-9.193 18.796-5.918l21.061 10.074c7.544 3.608 10.453 12.851 6.337 20.13l-2.632 4.655c-4.116 7.279-13.536 9.55-20.516 4.945l-19.488-12.855c-6.336-4.18-8.353-12.552-4.617-19.158z"/><path d="m392.885 80.889-.019-2.152c-.068-7.59 5.752-13.936 13.319-14.523l23.276-1.806c8.337-.647 15.478 5.902 15.553 14.264l.048 5.347c.075 8.362-6.948 15.038-15.295 14.541l-23.305-1.389c-7.576-.451-13.509-6.692-13.577-14.282z"/><path d="m374.292 36.826-1.093-1.854c-3.854-6.539-1.986-14.945 4.273-19.237l19.254-13.202c6.897-4.729 16.356-2.628 20.602 4.577l2.715 4.607c4.246 7.204 1.502 16.497-5.976 20.24l-20.877 10.449c-6.785 3.396-15.044.958-18.898-5.58z"/></g><path d="m261.849 9.906h-51.17c-24.071 0-43.584 19.513-43.584 43.584v94.753h138.337v-94.753c.001-24.071-19.513-43.584-43.583-43.584z" fill="#80b4fb"/><path d="m261.016 9.91c-24.07 0-43.58 19.51-43.58 43.58v94.75h-50.34v-94.75c0-24.07 19.51-43.58 43.58-43.58z" fill="#61a2f9"/><path d="m403.86 290.75v174.25c-41.76 29.6-92.78 47-147.86 47-73.96 0-140.6-31.37-187.34-81.53v-139.72c0-73.93 59.94-133.86 133.87-133.86h67.47c73.93 0 133.86 59.93 133.86 133.86z" fill="#f6e266"/><path d="m281.85 157.41c-68.38 5.99-122.01 63.4-122.01 133.34v202.56c-34.88-14.13-65.93-35.75-91.18-62.84v-139.72c0-73.93 59.93-133.86 133.86-133.86h67.48c3.99 0 7.94.17 11.85.52z" fill="#ffd064"/><path d="m322.092 180.071h-171.656c-16.319 0-29.548-13.229-29.548-29.548 0-16.319 13.229-29.548 29.548-29.548h171.656c16.319 0 29.548 13.229 29.548 29.548 0 16.319-13.229 29.548-29.548 29.548z" fill="#f9f6f9"/><path d="m211.618 180.073h-61.18c-16.32 0-29.55-13.23-29.55-29.55 0-8.16 3.31-15.55 8.65-20.89 5.35-5.35 12.74-8.66 20.9-8.66h61.18c-8.16 0-15.54 3.31-20.89 8.66-5.35 5.34-8.65 12.73-8.65 20.89 0 16.32 13.22 29.55 29.54 29.55z" fill="#e2d8ec"/><circle cx="262.867" cy="72.424" fill="#30579d" r="21.948"/><path d="m343.99 350.41c0 59.49-48.23 107.72-107.73 107.72-29.88 0-56.91-12.16-76.42-31.81-19.35-19.48-31.3-46.29-31.3-75.91 0-30.19 12.42-57.48 32.42-77.02 19.42-19 46-30.7 75.3-30.7 59.5 0 107.73 48.22 107.73 107.72z" fill="#f9f6f9"/><path d="m160.96 273.39c-.74 5.68-1.12 11.48-1.12 17.36v135.57c-19.35-19.48-31.3-46.29-31.3-75.91 0-30.19 12.42-57.48 32.42-77.02z" fill="#e2d8ec"/><path d="m289.201 323.853h-26.383v-26.383c0-5.961-4.832-10.793-10.793-10.793h-31.523c-5.961 0-10.793 4.832-10.793 10.793v26.383h-26.383c-5.961 0-10.793 4.832-10.793 10.793v31.523c0 5.961 4.832 10.793 10.793 10.793h26.383v26.383c0 5.961 4.832 10.793 10.793 10.793h31.523c5.961 0 10.793-4.832 10.793-10.793v-26.383h26.383c5.961 0 10.793-4.832 10.793-10.793v-31.523c0-5.961-4.832-10.793-10.793-10.793z" fill="#da387d"/></g></svg>