<svg id="Capa_1" enable-background="new 0 0 512 512" height="512" viewBox="0 0 512 512" width="512" xmlns="http://www.w3.org/2000/svg"><g><path d="m512 256c0 62.07-22.1 118.99-58.85 163.31-36.76 44.32-93.002 66.159-151.642 77.839-3.15.64-1.508 11.101-4.708 11.611-13.29 2.13-26.91 3.24-40.8 3.24-141.38 0-256-114.62-256-256s114.62-256 256-256 256 114.62 256 256z" fill="#95d6a4"/><path d="m202.798 324.52c-46.276 0-89.782-18.021-122.505-50.743-67.549-67.55-67.549-177.461 0-245.01l24.149 24.15c-54.233 54.233-54.233 142.477 0 196.71 26.272 26.272 61.202 40.74 98.356 40.74s72.084-14.468 98.356-40.74 40.741-61.201 40.741-98.355c0-37.153-14.469-72.083-40.741-98.355l24.149-24.15c32.722 32.722 50.744 76.228 50.744 122.505s-18.022 89.783-50.744 122.505-76.229 50.743-122.505 50.743z" fill="#f9f6f9"/><g fill="#e2d8ec"><path d="m211.387 290.098c2.848.172 5.711.27 8.588.27 37.154 0 72.084-14.468 98.356-40.74s40.741-61.201 40.741-98.355c0-37.153-14.469-72.083-40.741-98.355l15.261-15.261c-2.65-3.041-5.409-6.009-8.289-8.889l-24.149 24.15c26.272 26.271 40.741 61.201 40.741 98.355s-14.469 72.083-40.741 98.355c-24.237 24.236-55.845 38.417-89.767 40.47z"/><path d="m97.47 273.777c-64.661-64.662-67.416-168.135-8.283-236.115l-8.894-8.894c-67.549 67.549-67.549 177.46 0 245.01 32.722 32.722 76.228 50.743 122.505 50.743 2.874 0 5.738-.07 8.589-.208-43.051-2.088-83.227-19.846-113.917-50.536z"/></g><path d="m460.38 269.27v106.24c0 15.32-2.54 30.05-7.23 43.8-38.74 46.71-93.76 79.43-156.35 89.45-61.86-12.76-108.51-67.66-108.51-133.25v-35.06h34.15v35.06c0 56.18 45.71 101.89 101.89 101.89 56.19 0 101.9-45.71 101.9-101.89v-106.24z" fill="#f9f6f9"/><g fill="#e2d8ec"><path d="m306.33 507.04c-3.15.64-6.33 1.21-9.53 1.72-61.86-12.76-108.51-67.66-108.51-133.25v-35.06h16.75v35.06c0 63.01 43.06 116.14 101.29 131.53z"/><path d="m341.085 477.404c56.185 0 101.894-45.709 101.894-101.894v-106.236h-16.753v106.236c0 53.364-41.237 97.273-93.517 101.547 2.763.226 5.556.347 8.376.347z"/></g><path d="m217.777 389.505h-24.829c-12.17 0-22.036-9.866-22.036-22.036v-76.081h68.9v76.081c0 12.17-9.865 22.036-22.035 22.036z" fill="#80b4fb"/><path d="m218.374 389.487c-.201.02-.402.02-.603.02h-24.831c-12.164 0-22.028-9.864-22.028-22.039v-76.08h26.036v76.08c.001 11.974 9.543 21.708 21.426 22.019z" fill="#61a2f9"/><path d="m249.742 255.367h-88.759c-16.874 0-30.552 13.679-30.552 30.552v13.664c0 16.874 13.679 30.552 30.552 30.552h88.759c16.874 0 30.552-13.679 30.552-30.552v-13.664c0-16.873-13.678-30.552-30.552-30.552z" fill="#80b4fb"/><path d="m280.298 285.918v13.671c0 16.875-13.681 30.547-30.557 30.547h-88.757c-16.875 0-30.557-13.671-30.557-30.547v-13.671c0-1.969.191-3.908.553-5.776 2.702 14.103 15.108 24.761 30.004 24.761h88.757c14.897 0 27.302-10.658 30.004-24.761.363 1.868.553 3.807.553 5.776z" fill="#61a2f9"/><circle cx="92.368" cy="40.843" fill="#30579d" r="40.842"/><path d="m107.185 78.913c-4.591 1.788-9.593 2.772-14.816 2.772-22.561 0-40.842-18.282-40.842-40.842-.001-22.551 18.281-40.843 40.842-40.843 5.223 0 10.226.984 14.816 2.772-15.228 5.937-26.026 20.743-26.026 38.07 0 17.338 10.798 32.144 26.026 38.071z" fill="#26457d"/><circle cx="313.228" cy="40.843" fill="#30579d" r="40.842"/><path d="m328.045 78.913c-4.591 1.788-9.593 2.772-14.816 2.772-22.561 0-40.842-18.282-40.842-40.842-.001-22.551 18.281-40.843 40.842-40.843 5.223 0 10.226.984 14.816 2.772-15.228 5.937-26.026 20.743-26.026 38.07 0 17.338 10.798 32.144 26.026 38.071z" fill="#26457d"/><circle cx="443.303" cy="269.274" fill="#f6e266" r="56.719"/><g fill="#ffd064"><path d="m454.488 324.893c-3.616.723-7.353 1.105-11.18 1.105-31.32 0-56.724-25.393-56.724-56.724 0-31.32 25.404-56.713 56.724-56.713 3.827 0 7.564.382 11.18 1.105-25.976 5.193-45.544 28.116-45.544 55.609 0 27.503 19.567 50.425 45.544 55.618z"/><circle cx="443.303" cy="269.274" r="23.449"/></g></g></svg>