<svg id="Capa_1" enable-background="new 0 0 512 512" height="512" viewBox="0 0 512 512" width="512" xmlns="http://www.w3.org/2000/svg"><g><path d="m512 256c0 129.88-96.73 237.17-222.08 253.77-11.1 1.47-22.42-53.19-33.92-53.19-1.75 0-3.5.04-5.24 0-9.7-.19-19.27 54.44-28.68 53.19-125.35-16.6-222.08-123.89-222.08-253.77 0-141.38 114.62-256 256-256s256 114.62 256 256z" fill="#f6e266"/><path d="m289.92 400.71v109.06c-11.1 1.47-22.42 2.23-33.92 2.23s-22.82-.76-33.92-2.23v-109.06z" fill="#f9f6f9"/><path d="m250.76 400.71v111.23c-9.7-.19-19.27-.92-28.68-2.17v-109.06z" fill="#e2d8ec"/><path d="m275.655 456.579h-39.309c-100.57 0-182.098-81.528-182.098-182.098v-171.737c0-50.435 40.886-91.321 91.321-91.321h220.865c50.435 0 91.321 40.886 91.321 91.321v171.736c-.002 100.571-81.53 182.099-182.1 182.099z" fill="#30579d"/><path d="m277.287 456.57c-.54.01-1.08.01-1.63.01h-39.31c-100.57 0-182.1-81.53-182.1-182.1v-171.74c0-50.43 40.89-91.32 91.32-91.32h42.57c-50.44 0-91.32 40.89-91.32 91.32v171.74c0 100.03 80.65 181.22 180.47 182.09z" fill="#26457d"/><path d="m347.553 61.423h-183.106c-33.248 0-60.201 26.953-60.201 60.201v76.56c0 33.248 26.953 60.201 60.201 60.201h183.105c33.248 0 60.201-26.953 60.201-60.201v-76.56c0-33.248-26.952-60.201-60.2-60.201z" fill="#26457d"/><path d="m164.447 238.384c-22.167 0-40.201-18.034-40.201-40.201v-76.56c0-22.167 18.034-40.201 40.201-40.201h183.105c22.167 0 40.201 18.034 40.201 40.201v76.56c0 22.167-18.034 40.201-40.201 40.201z" fill="#b1e4f9"/><g fill="#80b4fb"><g><path d="m199.328 123.033h-22.902c-6.339 0-11.478-5.139-11.478-11.478s5.139-11.478 11.478-11.478h22.902c6.339 0 11.478 5.139 11.478 11.478s-5.139 11.478-11.478 11.478z"/><path d="m199.328 171.382h-22.902c-6.339 0-11.478-5.139-11.478-11.478s5.139-11.478 11.478-11.478h22.902c6.339 0 11.478 5.139 11.478 11.478s-5.139 11.478-11.478 11.478z"/><path d="m151.497 159.066c-6.339 0-11.478-5.139-11.478-11.478v-22.075c0-6.339 5.139-11.478 11.478-11.478s11.478 5.139 11.478 11.478v22.075c0 6.339-5.139 11.478-11.478 11.478z"/><path d="m199.328 219.731h-22.902c-6.339 0-11.478-5.139-11.478-11.478s5.139-11.478 11.478-11.478h22.902c6.339 0 11.478 5.139 11.478 11.478s-5.139 11.478-11.478 11.478z"/><path d="m199.328 219.731h-22.902c-6.339 0-11.478-5.139-11.478-11.478s5.139-11.478 11.478-11.478h22.902c6.339 0 11.478 5.139 11.478 11.478s-5.139 11.478-11.478 11.478z"/><path d="m223.816 208.741c-6.339 0-11.478-5.139-11.478-11.478v-22.075c0-6.339 5.139-11.478 11.478-11.478s11.478 5.139 11.478 11.478v22.075c.001 6.339-5.138 11.478-11.478 11.478z"/></g><g><path d="m336.014 123.033h-22.902c-6.339 0-11.478-5.139-11.478-11.478s5.139-11.478 11.478-11.478h22.902c6.339 0 11.478 5.139 11.478 11.478s-5.138 11.478-11.478 11.478z"/><path d="m336.014 171.382h-22.902c-6.339 0-11.478-5.139-11.478-11.478s5.139-11.478 11.478-11.478h22.902c6.339 0 11.478 5.139 11.478 11.478s-5.138 11.478-11.478 11.478z"/><path d="m288.184 159.066c-6.339 0-11.478-5.139-11.478-11.478v-22.075c0-6.339 5.139-11.478 11.478-11.478s11.478 5.139 11.478 11.478v22.075c0 6.339-5.139 11.478-11.478 11.478z"/><path d="m336.014 219.731h-22.902c-6.339 0-11.478-5.139-11.478-11.478s5.139-11.478 11.478-11.478h22.902c6.339 0 11.478 5.139 11.478 11.478s-5.138 11.478-11.478 11.478z"/><path d="m288.184 211.241c-6.339 0-11.478-5.139-11.478-11.478v-22.075c0-6.339 5.139-11.478 11.478-11.478s11.478 5.139 11.478 11.478v22.075c0 6.339-5.139 11.478-11.478 11.478z"/><path d="m336.014 219.731h-22.902c-6.339 0-11.478-5.139-11.478-11.478s5.139-11.478 11.478-11.478h22.902c6.339 0 11.478 5.139 11.478 11.478s-5.138 11.478-11.478 11.478z"/><path d="m360.503 208.741c-6.339 0-11.478-5.139-11.478-11.478v-22.075c0-6.339 5.139-11.478 11.478-11.478s11.478 5.139 11.478 11.478v22.075c0 6.339-5.139 11.478-11.478 11.478z"/></g><path d="m256 196.774c-6.339 0-11.478 5.139-11.478 11.478 0 6.339 5.139 11.478 11.478 11.478 6.339 0 11.478-5.139 11.478-11.478 0-6.339-5.139-11.478-11.478-11.478z"/></g><path d="m179.099 384.75h35.969c13.786 0 24.961-11.175 24.961-24.961v-44.519c0-13.786-11.175-24.961-24.961-24.961h-35.969c-26.079 0-47.221 21.141-47.221 47.221 0 26.078 21.142 47.22 47.221 47.22z" fill="#f9f6f9"/><path d="m177.628 370.919c8.55 8.54 20.35 13.83 33.39 13.83h-31.92c-13.04 0-24.84-5.29-33.39-13.83-8.55-8.55-13.83-20.36-13.83-33.39 0-26.08 21.14-47.23 47.22-47.23h31.92c-26.08 0-47.22 21.15-47.22 47.23 0 13.03 5.28 24.84 13.83 33.39z" fill="#e2d8ec"/><path d="m332.901 384.75h-35.969c-13.786 0-24.961-11.175-24.961-24.961v-44.519c0-13.786 11.175-24.961 24.961-24.961h35.969c26.079 0 47.221 21.141 47.221 47.221 0 26.078-21.142 47.22-47.221 47.22z" fill="#f9f6f9"/><g fill="#e2d8ec"><path d="m323.531 384.749h-26.6c-13.79 0-24.96-11.18-24.96-24.96v-44.52c0-13.79 11.17-24.96 24.96-24.96h26.6c-13.79 0-24.96 11.17-24.96 24.96v44.52c0 13.78 11.17 24.96 24.96 24.96z"/><path d="m169.711 348.578 19.728 11.39c8.505 4.91 19.137-1.228 19.137-11.049v-22.78c0-9.821-10.632-15.959-19.137-11.049l-19.728 11.39c-8.505 4.911-8.505 17.187 0 22.098z"/><path d="m342.289 348.578-19.728 11.39c-8.505 4.91-19.137-1.228-19.137-11.049v-22.78c0-9.821 10.632-15.959 19.137-11.049l19.728 11.39c8.505 4.911 8.505 17.187 0 22.098z"/></g><g><path d="m488.151 66.409-45.491-45.491-45.491 45.491c-25.124 25.124-25.124 65.858 0 90.982 25.124 25.124 65.858 25.124 90.982 0 25.124-25.124 25.124-65.858 0-90.982z" fill="#da387d"/><path d="m442.67 176.235c-16.469 0-32.939-6.281-45.501-18.844-25.112-25.125-25.112-65.852 0-90.977l45.501-45.489-13.593 45.489c-7.5 25.125-7.5 65.852 0 90.977 3.744 12.563 8.668 18.844 13.593 18.844z" fill="#aa3684"/></g></g></svg>