<svg id="Capa_1" enable-background="new 0 0 512 512" height="512" viewBox="0 0 512 512" width="512" xmlns="http://www.w3.org/2000/svg"><g><path d="m512 256c0 43.4-10.8 84.28-29.87 120.09-11.055 20.781-62.467 2.287-78.592 19.163-18.823 19.7-3.189 73.972-27.448 86.877-35.81 19.07-76.69 29.87-120.09 29.87s-84.28-10.8-120.09-29.87c-45.04-23.96-82.08-61-106.04-106.04-19.07-35.81-29.87-76.69-29.87-120.09s10.8-84.28 29.87-120.09c23.96-45.04 61-82.08 106.04-106.04 35.81-19.07 76.69-29.87 120.09-29.87s84.28 10.8 120.09 29.87c45.04 23.96 82.08 61 106.04 106.04 19.07 35.81 29.87 76.69 29.87 120.09z" fill="#f6e266"/><path d="m482.13 84.53v291.56c-8.45 15.88-18.52 30.76-30 44.43-9.6 11.43-20.18 22.01-31.61 31.61-13.67 11.48-28.55 21.55-44.43 30h-291.56c-30.18 0-54.66-24.48-54.66-54.66v-342.94c0-30.18 24.48-54.66 54.66-54.66h342.94c30.18 0 54.66 24.48 54.66 54.66z" fill="#524798"/><path d="m104.482 482.126h-19.95c-30.19 0-54.66-24.48-54.66-54.66v-342.94c0-30.18 24.47-54.66 54.66-54.66h19.95c-30.18 0-54.66 24.48-54.66 54.66v342.94c0 30.18 24.48 54.66 54.66 54.66z" fill="#543673"/><g fill="#543673"><path d="m241 216.163v-131.454c0-13.717-11.12-24.837-24.837-24.837h-131.629c-13.62 0-24.662 11.041-24.662 24.662v131.629c0 13.717 11.12 24.837 24.837 24.837h131.453c13.718 0 24.838-11.12 24.838-24.837z"/><path d="m295.837 241h131.453c13.717 0 24.837-11.12 24.837-24.837v-131.629c0-13.62-11.041-24.662-24.662-24.662h-131.628c-13.717 0-24.837 11.12-24.837 24.837v131.453c0 13.718 11.12 24.838 24.837 24.838z"/><path d="m452.13 295.84v124.68c-9.6 11.43-20.18 22.01-31.61 31.61h-124.68c-13.72 0-24.84-11.12-24.84-24.84v-131.45c0-13.72 11.12-24.84 24.84-24.84h131.45c13.72 0 24.84 11.12 24.84 24.84z"/><path d="m216.163 271h-131.454c-13.717 0-24.837 11.12-24.837 24.837v131.629c0 13.62 11.041 24.662 24.662 24.662h131.629c13.717 0 24.837-11.12 24.837-24.837v-131.454c0-13.717-11.12-24.837-24.837-24.837z"/></g><g><path d="m427.964 195.468c-7.241 7.241-16.734 10.864-26.227 10.864s-18.986-3.624-26.227-10.864l-19.498-19.498 17.172-31.79 35.281-20.664 19.498 19.498c14.482 14.482 14.489 37.966.001 52.454z" fill="#da387d"/><path d="m408.466 123.517-52.454 52.454-19.491-19.491c-14.488-14.488-14.481-37.972 0-52.454 7.248-7.248 16.734-10.865 26.227-10.865s18.986 3.624 26.227 10.865z" fill="#95d6a4"/><path d="m427.964 195.468c-7.241 7.241-16.734 10.864-26.227 10.864s-18.986-3.624-26.227-10.864l-19.498-19.498 5.793-13.366 13.343-5.77 19.498 19.498c7.241 7.241 16.734 10.864 26.227 10.864 5.073 0 10.14-1.03 14.858-3.091-1.806 4.123-4.392 7.988-7.767 11.363z" fill="#aa3684"/><path d="m375.147 156.835-19.135 19.135-19.491-19.491c-14.488-14.488-14.481-37.972 0-52.454 3.375-3.375 7.241-5.962 11.369-7.774-5.933 13.579-3.347 29.978 7.766 41.092z" fill="#78c2a4"/></g><g><path d="m410.359 182.719c0 10.24-4.15 19.515-10.863 26.228s-15.988 10.863-26.227 10.863h-27.574l-10.336-34.622 10.336-39.559h27.574c20.479-.001 37.09 16.6 37.09 37.09z" fill="#80b4fb"/><path d="m345.694 145.628v74.181h-27.564c-20.49 0-37.09-16.611-37.09-37.09 0-10.25 4.15-19.515 10.863-26.228s15.988-10.863 26.228-10.863z" fill="#f6e266"/><path d="m410.359 182.719c0 10.24-4.15 19.515-10.863 26.228s-15.988 10.863-26.227 10.863h-27.574l-5.355-13.547 5.355-13.515h27.574c10.24 0 19.515-4.15 26.227-10.863 3.587-3.587 6.441-7.898 8.32-12.692 1.638 4.19 2.543 8.753 2.543 13.526z" fill="#61a2f9"/><path d="m345.694 192.747v27.062h-27.564c-20.49 0-37.09-16.611-37.09-37.09 0-4.773.904-9.335 2.542-13.536 5.406 13.797 18.831 23.565 34.548 23.565h27.564z" fill="#ffd064"/></g><g><path d="m182.171 125.334c0 25.649-18.369 47.003-42.667 51.622-3.201.615-6.51.932-9.887.932s-6.679-.317-9.88-.932c-24.298-4.619-42.667-25.973-42.667-51.622 0-25.642 18.369-46.996 42.667-51.616 3.201-.614 6.503-.932 9.88-.932s6.686.317 9.887.932c24.297 4.62 42.667 25.973 42.667 51.616z" fill="#f9f6f9"/><g fill="#e2d8ec"><path d="m100.108 81.848 73 73c-1.829 2.698-3.944 5.262-6.332 7.65s-4.947 4.498-7.645 6.327l-73-73c1.829-2.698 3.94-5.258 6.327-7.645s4.952-4.503 7.65-6.332z"/><path d="m138.341 177.16c-2.836.479-5.754.729-8.725.729-29.026 0-52.548-23.529-52.548-52.554 0-29.019 23.522-52.547 52.548-52.547 2.971 0 5.889.25 8.725.729-24.866 4.147-43.822 25.771-43.822 51.818 0 26.054 18.957 47.678 43.822 51.825z"/></g></g><g><path d="m222.421 173.574c0 25.649-18.369 47.003-42.667 51.622-3.201.614-6.51.932-9.887.932s-6.679-.317-9.88-.932c-24.298-4.619-42.667-25.973-42.667-51.622 0-25.642 18.369-46.996 42.667-51.616 3.201-.614 6.503-.932 9.88-.932s6.686.317 9.887.932c24.298 4.62 42.667 25.974 42.667 51.616z" fill="#f9f6f9"/><g fill="#e2d8ec"><path d="m219.23 155.527-88.561 53.057c-2.172-2.43-4.145-5.106-5.881-8.002-1.735-2.897-3.16-5.893-4.278-8.954l88.561-53.057c2.172 2.43 4.142 5.1 5.877 7.997 1.736 2.896 3.164 5.897 4.282 8.959z"/><path d="m178.592 225.4c-2.836.479-5.754.729-8.725.729-29.026 0-52.548-23.529-52.548-52.554 0-29.019 23.522-52.547 52.548-52.547 2.971 0 5.889.25 8.725.729-24.866 4.147-43.822 25.771-43.822 51.818 0 26.054 18.957 47.678 43.822 51.825z"/></g></g><g><path d="m359.911 356.633c1.687 1.389 3.342 2.832 4.98 4.364 1.637 1.52 3.202 3.071 4.707 4.641 22.248 23.298 29.95 51.835 16.998 65.762-12.958 13.934-41.984 8.31-66.822-12.189-1.681-1.384-3.349-2.838-4.974-4.358-1.637-1.519-3.203-3.071-4.707-4.641-22.247-23.298-29.956-51.829-17.005-65.768 12.958-13.933 41.978-8.315 66.823 12.189z" fill="#ffddce"/><g fill="#ffcbbe"><path d="m391.235 423.713c-1.037 2.887-2.577 5.475-4.641 7.695-13.829 14.869-45.977 7.454-71.792-16.555-25.821-24.015-35.539-55.535-21.71-70.405 2.065-2.22 4.534-3.944 7.339-5.186-5.934 16.423 4.377 42.285 26.345 62.716 21.962 20.426 48.509 28.843 64.459 21.735z"/><path d="m359.911 356.633c1.687 1.389 3.342 2.832 4.98 4.364 1.637 1.52 3.202 3.071 4.707 4.641l-49.824 53.573c-1.681-1.384-3.349-2.838-4.974-4.358-1.637-1.519-3.203-3.071-4.707-4.641z"/></g></g><g><path d="m423.034 366.638c-.925 1.98-1.91 3.942-2.985 5.911-1.064 1.964-2.176 3.867-3.322 5.715-17.018 27.352-42.736 41.924-59.451 32.851-16.723-9.077-18.511-38.589-4.849-67.752.921-1.973 1.913-3.95 2.981-5.903 1.063-1.964 2.176-3.867 3.321-5.715 17.018-27.352 42.728-41.927 59.455-32.859 16.724 9.077 18.515 38.581 4.85 67.752z" fill="#ffddce"/><g fill="#ffcbbe"><path d="m365.876 413.691c-3.055-.284-5.944-1.131-8.609-2.577-17.847-9.687-18.677-42.669-1.859-73.652 16.822-30.991 44.926-48.258 62.773-38.571 2.665 1.446 4.949 3.408 6.852 5.815-17.383-1.654-39.86 14.776-54.172 41.144-14.307 26.359-15.843 54.166-4.985 67.841z"/><path d="m423.034 366.638c-.925 1.98-1.91 3.942-2.985 5.911-1.064 1.964-2.176 3.867-3.322 5.715l-64.3-34.901c.921-1.973 1.913-3.95 2.981-5.903 1.063-1.964 2.176-3.867 3.321-5.715z"/></g></g></g></svg>