<svg id="Capa_1" enable-background="new 0 0 512 512" height="512" viewBox="0 0 512 512" width="512" xmlns="http://www.w3.org/2000/svg"><g><path d="m512 256c0 141.38-114.62 256-256 256s-256-114.62-256-256 114.62-256 256-256c44.14 0 85.68 11.18 121.93 30.85 14.24 7.73-23.445 67.875-10.995 78.065 8.82 7.21 68.245-36.105 76.025-27.795 42.82 45.77 69.04 107.26 69.04 174.88z" fill="#524798"/><g><path d="m426.81 125.4-117.49 117.49-78.97-78.97 117.49-117.5c8.5-8.5 19.07-13.7 30.09-15.57 24.32 13.2 46.27 30.23 65.03 50.27 1.36 15.84-4.03 32.16-16.15 44.28z" fill="#f6e266"/><path d="m85.515 422.909 70.067-70.067-35.186-35.186-70.067 70.067c-9.717 9.717-9.717 25.469 0 35.186 9.714 9.714 25.469 9.717 35.186 0z" fill="#d3effb"/><path d="m57.599 427.963c-4.179-9.176-2.499-20.367 5.051-27.917l70.067-70.067-12.324-12.324-70.067 70.067c-9.717 9.717-9.717 25.469 0 35.186 2.168 2.167 4.637 3.853 7.273 5.055z" fill="#b1e4f9"/><path d="m418.04 57.81c-15.29-.84-30.85 4.58-42.54 16.27l-117.49 117.49-27.66-27.66 117.49-117.49c8.5-8.5 19.07-13.7 30.09-15.57 14.24 7.73 27.66 16.77 40.11 26.96z" fill="#ffd064"/><path d="m152.06 400.153 157.261-157.261-78.974-78.974-157.261 157.261c-21.81 21.81-21.81 57.164 0 78.974 21.803 21.803 57.164 21.81 78.974 0z" fill="#d3effb"/><path d="m89.403 411.497c-9.379-20.595-5.608-45.713 11.338-62.659l157.261-157.261-27.66-27.66-157.261 157.261c-21.81 21.81-21.81 57.164 0 78.974 4.864 4.864 10.405 8.648 16.322 11.345z" fill="#b1e4f9"/><path d="m263.665 132.669h42.124v111.686h-42.124z" fill="#ffd064" transform="matrix(.707 -.707 .707 .707 -49.903 256.546)"/><path d="m293.257 268.32-87.005-87.005c-11.458-11.458-11.458-30.036 0-41.495 11.458-11.458 30.036-11.458 41.495 0l87.005 87.005c11.458 11.458 11.458 30.036 0 41.495-11.459 11.458-30.037 11.458-41.495 0z" fill="#f6e266"/><path d="m245.075 220.129-38.816-38.816c-11.458-11.458-11.465-30.034-.007-41.493 5.729-5.729 13.236-8.594 20.75-8.594s15.021 2.865 20.75 8.594l38.816 38.816c-5.729-5.729-13.236-8.594-20.75-8.594s-15.021 2.865-20.75 8.594c-11.458 11.459-11.452 30.035.007 41.493z" fill="#ffd064"/></g><g><path d="m80.216 463.752-19.985-19.985-19.985 19.985c-11.037 11.037-11.037 28.933 0 39.97 11.037 11.037 28.933 11.037 39.97 0 11.037-11.038 11.037-28.933 0-39.97z" fill="#80b4fb"/><path d="m60.235 512c-7.235 0-14.471-2.759-19.99-8.278-11.032-11.038-11.032-28.93 0-39.968l19.99-19.984-5.972 19.984c-3.295 11.038-3.295 28.93 0 39.968 1.645 5.519 3.809 8.278 5.972 8.278z" fill="#61a2f9"/></g></g></svg>