<svg id="Capa_1" enable-background="new 0 0 512 512" height="512" viewBox="0 0 512 512" width="512" xmlns="http://www.w3.org/2000/svg"><g><path d="m467.778 256c0 42.01 34.102 81.65 16.162 116.63-42.42 82.74-128.57 139.37-227.94 139.37-141.38 0-256-114.62-256-256s114.62-256 256-256c122.35 0 224.66 85.84 249.98 200.58 3.94 17.84-38.202 36.39-38.202 55.42z" fill="#8b5e5e"/><g><path d="m512 256c0 42.01-10.12 81.65-28.06 116.63-7.54 2.93-15.75 4.53-24.33 4.53h-265.92c-37.22 0-67.39-30.17-67.39-67.39v-60.3c0-37.22 30.17-67.39 67.39-67.39h265.92c17.97 0 34.3 7.03 46.37 18.5 3.94 17.84 6.02 36.39 6.02 55.42z" fill="#f9f6f9"/><path d="m220.423 377.166h-26.737c-37.218 0-67.391-30.173-67.391-67.4v-60.291c0-37.218 30.173-67.391 67.391-67.391h26.737c-37.218 0-67.391 30.173-67.391 67.391v60.291c0 37.227 30.173 67.4 67.391 67.4z" fill="#e2d8ec"/><path d="m468.25 183.601c0-58.738-47.616-106.354-106.354-106.354h-70.497c-58.737 0-106.354 47.616-106.354 106.354 0 21.319 6.273 41.172 17.074 57.815 15.117 23.294 15.117 53.12 0 76.414-10.801 16.643-17.074 36.496-17.074 57.815 0 58.737 47.616 106.353 106.354 106.353h70.497c58.737 0 106.354-47.616 106.354-106.353 0-21.319-6.273-41.172-17.074-57.815-15.117-23.294-15.117-53.12 0-76.414 10.801-16.643 17.074-36.496 17.074-57.815z" fill="#e2d8ec"/><path d="m291.399 454.585c-43.527 0-78.94-35.412-78.94-78.941 0-15.302 4.376-30.134 12.656-42.891 20.946-32.276 20.946-73.986 0-106.261-8.28-12.758-12.656-27.59-12.656-42.892 0-43.528 35.412-78.941 78.94-78.941h70.498c43.527 0 78.94 35.413 78.94 78.941 0 15.302-4.376 30.134-12.656 42.893-20.945 32.274-20.945 73.984.001 106.26 8.279 12.756 12.655 27.588 12.655 42.891 0 43.528-35.412 78.941-78.94 78.941z" fill="#f9f6f9"/><g fill="#e2d8ec"><path d="m279.245 201.225c-7.049 0-12.762-5.714-12.762-12.762v-31.603c0-7.048 5.714-12.762 12.762-12.762 7.048 0 12.762 5.714 12.762 12.762v31.602c0 7.049-5.714 12.763-12.762 12.763z"/><path d="m374.051 201.225c-7.049 0-12.762-5.714-12.762-12.762v-31.603c0-7.048 5.714-12.762 12.762-12.762 7.048 0 12.762 5.714 12.762 12.762v31.602c.001 7.049-5.713 12.763-12.762 12.763z"/><path d="m279.245 308.186c-7.049 0-12.762-5.714-12.762-12.762v-31.602c0-7.048 5.714-12.762 12.762-12.762 7.048 0 12.762 5.714 12.762 12.762v31.602c0 7.048-5.714 12.762-12.762 12.762z"/><path d="m374.051 308.186c-7.049 0-12.762-5.714-12.762-12.762v-31.602c0-7.048 5.714-12.762 12.762-12.762 7.048 0 12.762 5.714 12.762 12.762v31.602c.001 7.048-5.713 12.762-12.762 12.762z"/><path d="m326.648 251.667c-7.048 0-12.762-5.714-12.762-12.762v-31.602c0-7.048 5.714-12.762 12.762-12.762 7.048 0 12.762 5.714 12.762 12.762v31.602c0 7.048-5.714 12.762-12.762 12.762z"/><path d="m326.648 368.646c-7.048 0-12.762-5.714-12.762-12.762v-31.602c0-7.048 5.714-12.762 12.762-12.762 7.048 0 12.762 5.714 12.762 12.762v31.602c0 7.048-5.714 12.762-12.762 12.762z"/><path d="m279.245 415.147c-7.049 0-12.762-5.714-12.762-12.762v-31.602c0-7.048 5.714-12.762 12.762-12.762 7.048 0 12.762 5.714 12.762 12.762v31.602c0 7.049-5.714 12.762-12.762 12.762z"/><path d="m374.051 415.147c-7.049 0-12.762-5.714-12.762-12.762v-31.602c0-7.048 5.714-12.762 12.762-12.762 7.048 0 12.762 5.714 12.762 12.762v31.602c.001 7.049-5.713 12.762-12.762 12.762z"/></g></g><path d="m152.85 465.643c-5.522 0-10-4.477-10-10v-121.171c0-3.341-2.719-6.059-6.06-6.059s-6.06 2.718-6.06 6.059v21.268c0 17.327-14.097 31.423-31.423 31.423s-31.423-14.097-31.423-31.423v-150.829c0-5.523 4.478-10 10-10s10 4.477 10 10v150.829c0 6.299 5.124 11.423 11.423 11.423s11.423-5.125 11.423-11.423v-21.268c0-14.369 11.69-26.059 26.06-26.059s26.06 11.69 26.06 26.059v121.171c0 5.523-4.478 10-10 10z" fill="#30579d"/><path d="m117.922 276.068h-80.075c-13.619 0-24.659-11.04-24.659-24.659v-181.33c0-35.731 28.966-64.697 64.697-64.697 35.731 0 64.697 28.966 64.697 64.697v181.33c-.001 13.619-11.041 24.659-24.66 24.659z" fill="#f9f6f9"/><g fill="#e2d8ec"><path d="m83.953 276.07h-46.111c-13.619 0-24.654-11.047-24.654-24.666v-181.325c0-35.735 28.959-64.694 64.694-64.694 8.129 0 15.9 1.498 23.056 4.226-24.353 9.292-41.65 32.85-41.65 60.468v181.326c0 13.619 11.047 24.665 24.665 24.665z"/><path d="m113.289 221.534c-7.346 0-13.302-5.955-13.302-13.302v-125.035c0-7.346 5.955-13.302 13.302-13.302 7.346 0 13.302 5.955 13.302 13.302v125.035c0 7.346-5.955 13.302-13.302 13.302z"/><path d="m61.721 221.534c-7.346 0-13.302-5.955-13.302-13.302v-125.035c0-7.346 5.955-13.302 13.302-13.302 7.346 0 13.302 5.955 13.302 13.302v125.035c0 7.346-5.956 13.302-13.302 13.302z"/></g></g></svg>