<svg id="Capa_1" enable-background="new 0 0 512 512" height="512" viewBox="0 0 512 512" width="512" xmlns="http://www.w3.org/2000/svg"><g><path d="m511.998 255.998c0 101.829-59.46 189.779-145.559 230.998-11.245 5.392-68.408-9.404-80.491-5.682-23.838 7.342-1.022 19.287-27.268 19.287-39.17 0-78.959 2.594-112.149-13.135-86.62-41.029-146.529-129.258-146.529-231.468 0-141.379 114.619-255.998 255.998-255.998s255.998 114.619 255.998 255.998z" fill="#524798"/><path d="m301.153 245.478c-10.83.011-57.202-.815-103.988-1.652v-76.235c35.462-.596 70.889-1.216 102.255-1.812 37.848-.987 50.193-55.378 14.949-70.889-11.977-6.907-48.954-.895-63.214-2.283-60.013-.011-59.979-89.75 0-89.785 200.713-25.527 228.271 225.425 49.998 242.656z" fill="#95d6a4"/><g fill="#78c2a4"><path d="m231.585 364.374c-2.163.23-4.352.401-6.561.527 11.891.311 23.689.657 34.826-.527 16.861-1.299 16.792-26.703-.505-26.467-7.908.059-16.201.2-24.684.372 13.619 3.074 12.524 24.894-3.076 26.095z"/><path d="m330.592 165.778c-43.756.849-95.452 1.698-144.107 2.524v-.528c38.995-.654 78.427-1.331 112.936-1.996 37.848-.987 50.193-55.378 14.949-70.889-2.375-1.365-5.725-2.226-9.683-2.731 15.557-.837 33.248-1.663 40.854 2.731 35.255 15.511 22.899 69.903-14.949 70.889z"/><path d="m251.153 92.601c5.449.53 14.212-.018 23.626-.514-52.34-7.21-49.79-89.228 7.55-89.27 4.091-.52 8.102-.914 12.048-1.209-13.375-1.076-27.785-.754-43.225 1.209-59.973.044-60.015 89.775.001 89.784z"/></g><path d="m256.186 53.53c-4.821 0-8.729-3.908-8.729-8.729v-24.11c0-4.821 3.908-8.729 8.729-8.729 4.821 0 8.729 3.908 8.729 8.729v24.11c0 4.821-3.908 8.729-8.729 8.729z" fill="#30579d"/><path d="m286.742 53.53c-4.821 0-8.729-3.908-8.729-8.729v-24.11c0-4.821 3.908-8.729 8.729-8.729 4.821 0 8.729 3.908 8.729 8.729v24.11c0 4.821-3.908 8.729-8.729 8.729z" fill="#30579d"/><path d="m371.149 468.936c-.177 10.713-8.862 19.294-19.492 19.492l-75.481 1.29-39.358.676-37.351.645c-34.261 1.799-73.474 3.744-91.759-31.703-15.622-27.397-6.677-64.779 19.492-82.336 18.618-12.128 67.16-12.721 109.618-12.253l14.165 26.445-14.165 25.384c-30.548-.218-62.397-.426-73.859-.624-8.747-.593-16.132 8.02-14.655 16.528.947 7.135 7.385 12.762 14.624 13.043 10.058.187 26.325.458 36.539.635l37.351.645 39.358.676 75.481 1.29c10.953.186 19.68 9.214 19.492 20.167z" fill="#95d6a4"/><path d="m135.97 459.336c-15.62-27.4-6.679-64.78 19.497-82.334 12.84-8.368 27.492-11.239 42.707-12.063-24.885-.652-50.279-1.423-70.972 12.063-26.176 17.554-35.117 54.935-19.497 82.334 16.928 32.809 51.791 33.581 84.055 32.087-22.736-1.657-43.779-8.807-55.79-32.087z" fill="#78c2a4"/><path d="m276.173 501.528h-39.351v-283.623h39.351v147.3l11.128 26.679-11.128 24.983z" fill="#f6e266"/><path d="m236.822 217.905h14.162v283.623h-14.162z" fill="#ffd064"/><path d="m256.498 325.821c-97.996 0-177.438-79.441-177.438-177.437v-19.715h354.875v19.715c0 97.995-79.442 177.437-177.437 177.437z" fill="#f6e266"/><path d="m304.225 319.316c-15.186 4.244-31.193 6.501-47.731 6.501-57.613 0-108.809-27.453-141.222-69.993-6.312-8.284-18.708-10.342-23.504-19.679-5.994-11.67-3.936-30.888-7.241-43.882-3.57-14.034-5.467-28.735-5.467-43.88v-19.71h95.462v19.71c0 81.462 54.887 150.1 129.703 170.933z" fill="#ffd064"/><path d="m366.439 486.997c-33.43 16.03-70.89 25-110.439 25h-85.929c-6.51 0-12.39-2.64-16.66-6.9-4.26-4.27-6.9-10.16-6.9-16.67 0-.32.01-.64.02-.96.5-12.57 10.85-22.6 23.54-22.6h172.849c6.51 0 12.4 2.64 16.67 6.9 3.939 3.95 6.499 9.29 6.849 15.23z" fill="#f6e266"/><path d="m221.749 505.093c4.265 4.265 10.162 6.907 16.663 6.907h-68.336c-6.501 0-12.398-2.642-16.663-6.907-4.265-4.264-6.906-10.151-6.906-16.663 0-13.012 10.557-23.559 23.569-23.559h68.336c-13.012 0-23.569 10.547-23.569 23.559 0 6.512 2.642 12.399 6.906 16.663z" fill="#ffd064"/><path d="m126.399 339.295c-82.096-7.083-93.517-107.829-42.042-147.717 5.908 23.652 16.569 45.422 30.912 64.238v.01c-2.174 10.88 5.929 23.008 18.639 23.371.874.052 1.831.104 2.871.156 18.826.863 63.634.52 100.038.458 15.55-.042 29.56-.021 39.358.166 2.756.052 5.18.115 7.208.198 12.679.499 25.088 1.622 36.779 3.983 11.337 3.63 20.522 9.33 27.657 16.382 38.942 38.443 17.141 116.889-48.137 116.576-4.795-.083-13.158-.166-23.507-.25v-51.663c9.788 0 18.088-.198 24.068-.832 16.86-1.3 16.788-26.7-.51-26.461-5.783.042-13.906.125-23.559.239-11.441.125-25.025.292-39.358.468-41.966.481-90.363.98-110.417.678z" fill="#95d6a4"/><path d="m154.618 339.285c-9.725.115-19.232.146-28.218.01-82.096-7.083-93.517-107.829-42.042-147.717 2.07 8.269 4.722 16.319 7.905 24.089-25.4 46.556-6.126 117.679 62.355 123.618z" fill="#78c2a4"/><path d="m239.974 96.885h-15.518c-7.25 0-13.148-5.899-13.148-13.148s5.899-13.148 13.148-13.148h19.398c3.452 0 6.25-2.798 6.25-6.25s-2.798-6.25-6.25-6.25h-19.398c-14.143 0-25.649 11.506-25.649 25.649s11.505 25.649 25.649 25.649h15.518c6.333 0 11.486 5.153 11.486 11.486s-5.153 11.486-11.486 11.486h-14.861c-2.485-6.164-8.518-10.531-15.561-10.531-3.452 0-6.25 2.799-6.25 6.25 0 3.452 2.798 6.25 6.25 6.25 2.361 0 4.281 1.92 4.281 4.28s-1.92 4.28-4.281 4.28c-3.452 0-6.25 2.799-6.25 6.25 0 3.452 2.798 6.25 6.25 6.25 7.043 0 13.076-4.367 15.561-10.531h14.861c13.225 0 23.986-10.76 23.986-23.986s-10.761-23.986-23.986-23.986z" fill="#da387d"/><path d="m314.765 364.373c-5.232.551-23.361.78-34.365.821 7.957-.062 14.749-.281 19.845-.821 16.122-1.248 16.767-24.536 1.643-26.346 4.816-.052 8.987-.094 12.367-.115 17.297-.239 17.37 25.161.51 26.461z" fill="#78c2a4"/><g><g fill="#f6e174"><path d="m433.306 212.275 1.181-2.088c4.164-7.363 13.318-10.245 20.948-6.595l23.472 11.227c8.407 4.021 11.65 14.322 7.063 22.435l-2.933 5.188c-4.587 8.112-15.086 10.643-22.865 5.511l-21.719-14.327c-7.062-4.658-9.311-13.988-5.147-21.351z"/><path d="m453.847 135.254-.022-2.398c-.076-8.458 6.411-15.531 14.844-16.186l25.941-2.013c9.292-.721 17.251 6.578 17.334 15.897l.053 5.959c.084 9.319-7.743 16.76-17.046 16.205l-25.973-1.548c-8.443-.502-15.056-7.458-15.131-15.916z"/><path d="m433.125 58.281-1.218-2.066c-4.295-7.287-2.214-16.656 4.763-21.439l21.459-14.714c7.686-5.27 18.228-2.928 22.96 5.101l3.026 5.134c4.732 8.029 1.674 18.386-6.66 22.557l-23.267 11.646c-7.564 3.786-16.768 1.069-21.063-6.219z"/></g></g><g fill="#f6e174"><path d="m78.694 55.902-1.181 2.088c-4.164 7.363-13.318 10.245-20.948 6.595l-23.472-11.227c-8.407-4.021-11.65-14.322-7.063-22.435l2.933-5.188c4.587-8.112 15.086-10.643 22.865-5.511l21.719 14.327c7.062 4.658 9.311 13.988 5.147 21.351z"/><path d="m58.153 132.923.021 2.398c.076 8.458-6.411 15.531-14.844 16.186l-25.94 2.013c-9.292.721-17.251-6.578-17.334-15.897l-.053-5.959c-.084-9.319 7.743-16.76 17.046-16.205l25.973 1.548c8.443.502 15.056 7.458 15.131 15.916z"/><path d="m78.875 209.896 1.218 2.066c4.295 7.287 2.214 16.656-4.763 21.439l-21.459 14.714c-7.686 5.27-18.228 2.928-22.96-5.101l-3.026-5.134c-4.732-8.029-1.674-18.386 6.66-22.557l23.267-11.646c7.564-3.786 16.768-1.068 21.063 6.219z"/></g><path d="m296.33 186.657h-19.852v-19.852c0-4.485-3.636-8.121-8.121-8.121h-23.719c-4.485 0-8.121 3.636-8.121 8.121v19.852h-19.852c-4.485 0-8.121 3.636-8.121 8.121v23.719c0 4.485 3.636 8.121 8.121 8.121h19.852v19.852c0 4.485 3.636 8.121 8.121 8.121h23.719c4.485 0 8.121-3.636 8.121-8.121v-19.852h19.852c4.485 0 8.121-3.636 8.121-8.121v-23.719c0-4.485-3.636-8.121-8.121-8.121z" fill="#ffd064"/></g></svg>