<svg id="Capa_1" enable-background="new 0 0 512 512" height="512" viewBox="0 0 512 512" width="512" xmlns="http://www.w3.org/2000/svg"><g><path d="m512 256c0 62.502-22.399 119.772-59.607 164.222-46.96 56.1-117.51-45.12-196.393-45.12s-149.433 101.22-196.393 45.12c-37.208-44.45-59.607-101.72-59.607-164.222 0-141.385 114.615-256 256-256s256 114.615 256 256z" fill="#95d6a4"/><g><path d="m296.328.5h-80.657c-34.422 0-62.326 27.904-62.326 62.326v142.983h205.309v-142.983c.001-34.422-27.904-62.326-62.326-62.326z" fill="#f9f6f9"/><path d="m277.526.496c-34.42 0-62.33 27.9-62.33 62.33v142.98h-61.85v-142.98c0-34.43 27.91-62.33 62.33-62.33h61.85z" fill="#e2d8ec"/><path d="m452.39 256.42v163.8c-46.96 56.1-117.51 91.78-196.39 91.78s-149.43-35.68-196.39-91.78v-163.8c0-65.85 53.39-119.24 119.24-119.24h154.3c65.85 0 119.24 53.39 119.24 119.24z" fill="#524798"/><path d="m284.22 137.18c-65.85 0-119.23 53.39-119.23 119.24v238.93c-41.31-15.72-77.5-41.83-105.38-75.13v-163.8c0-65.85 53.39-119.24 119.24-119.24z" fill="#543673"/></g><g fill="#e2d8ec"><path d="m235.186 116.564c-6.19 0-11.207-5.018-11.207-11.207v-62.892c0-6.19 5.018-11.207 11.207-11.207 6.19 0 11.207 5.018 11.207 11.207v62.891c.001 6.19-5.017 11.208-11.207 11.208z"/><path d="m276.814 116.564c-6.19 0-11.207-5.018-11.207-11.207v-62.892c0-6.19 5.018-11.207 11.207-11.207 6.19 0 11.207 5.018 11.207 11.207v62.891c0 6.19-5.017 11.208-11.207 11.208z"/><path d="m318.441 116.564c-6.19 0-11.207-5.018-11.207-11.207v-62.892c0-6.19 5.018-11.207 11.207-11.207 6.19 0 11.207 5.018 11.207 11.207v62.891c.001 6.19-5.017 11.208-11.207 11.208z"/></g><g><path d="m487.954 379.064h-216.437v-48.092h216.437c13.28 0 24.046 10.766 24.046 24.046 0 13.28-10.766 24.046-24.046 24.046z" fill="#f9f6f9"/><path d="m511.999 355.019c0 6.643-2.695 12.644-7.043 17.003-4.348 4.348-10.37 7.043-17.002 7.043h-216.438v-15.402h216.438c6.632 0 12.654-2.695 17.002-7.043 2.579-2.579 4.579-5.748 5.769-9.296.832 2.41 1.274 5 1.274 7.695z" fill="#e2d8ec"/><path d="m284.449 306.812h-152.288c-19.141 0-34.659 15.517-34.659 34.659h221.606c0-19.142-15.517-34.659-34.659-34.659z" fill="#f6e266"/><path d="m197.801 306.812c-19.139 0-34.657 15.518-34.657 34.667h-65.64c0-19.15 15.518-34.667 34.657-34.667z" fill="#ffd064"/><path d="m353.949 330.972c-15.669 59.322-69.711 103.057-133.958 103.057-64.259 0-118.301-43.735-133.97-103.057z" fill="#f9f6f9"/><path d="m262.359 427.429c-13.35 4.282-27.595 6.6-42.369 6.6-64.259 0-118.301-43.735-133.97-103.057h84.737c12.065 45.674 46.88 82.12 91.602 96.457z" fill="#e2d8ec"/></g></g></svg>