<svg id="Capa_1" enable-background="new 0 0 512 512" height="512" viewBox="0 0 512 512" width="512" xmlns="http://www.w3.org/2000/svg"><g><g><path d="m512 256c0 51.37-15.13 99.2-41.18 139.29-10.286 15.836-49.464 11.216-62.899 24.372-17.455 17.093-10.161 50.951-31.921 62.518-35.79 19.04-76.64 29.82-120 29.82s-84.21-10.78-120-29.82c-38.51-20.47-71.17-50.48-94.82-86.89-26.05-40.09-41.18-87.92-41.18-139.29s15.13-99.2 41.18-139.29c10.1-15.54 21.84-29.92 34.97-42.89 46.23-45.64 109.75-73.82 179.85-73.82s133.62 28.18 179.85 73.82c13.13 12.97 24.87 27.35 34.97 42.89 26.05 40.09 41.18 87.92 41.18 139.29z" fill="#80b4fb"/><path d="m470.82 73.82v321.47c-23.65 36.41-56.31 66.42-94.82 86.89h-302.894c-17.633 0-31.927-14.294-31.927-31.927v-376.433z" fill="#f9f6f9"/><path d="m41.178 73.82h429.643v55.867h-429.643z" fill="#c8cfd9"/><path d="m467.481 112.395h-422.962c-14.653 0-26.531-11.878-26.531-26.531v-36.059c0-14.653 11.878-26.531 26.531-26.531h422.962c14.653 0 26.531 11.878 26.531 26.531v36.058c.001 14.653-11.878 26.532-26.531 26.532z" fill="#f6e266"/><path d="m76.467 112.395h-31.94c-14.66 0-26.54-11.88-26.54-26.54v-36.05c0-14.66 11.88-26.54 26.54-26.54h31.94c-14.65 0-26.53 11.88-26.53 26.54v36.05c0 14.66 11.88 26.54 26.53 26.54z" fill="#ffd064"/><g><g><g fill="#e2d8ec"><circle cx="196.198" cy="170.189" r="20.618"/><circle cx="250.954" cy="170.189" r="20.618"/><circle cx="305.709" cy="170.189" r="20.618"/></g><circle cx="360.465" cy="170.189" fill="#da387d" r="20.618"/><circle cx="415.221" cy="170.189" fill="#da387d" r="20.618"/></g><g><g fill="#e2d8ec"><circle cx="86.686" cy="233.133" r="20.618"/><circle cx="141.442" cy="233.133" r="20.618"/><circle cx="196.198" cy="233.133" r="20.618"/><circle cx="250.954" cy="233.133" r="20.618"/><circle cx="305.709" cy="233.133" r="20.618"/></g><circle cx="360.465" cy="233.133" fill="#da387d" r="20.618"/><circle cx="415.221" cy="233.133" fill="#da387d" r="20.618"/></g><g><g fill="#e2d8ec"><circle cx="86.686" cy="296.077" r="20.618"/><circle cx="141.442" cy="296.077" r="20.618"/><circle cx="196.198" cy="296.077" r="20.618"/><circle cx="250.954" cy="296.077" r="20.618"/><circle cx="305.709" cy="296.077" r="20.618"/></g><circle cx="360.465" cy="296.077" fill="#da387d" r="20.618"/><circle cx="415.221" cy="296.077" fill="#da387d" r="20.618"/></g><g><g fill="#e2d8ec"><circle cx="86.686" cy="359.022" r="20.618"/><circle cx="141.442" cy="359.022" r="20.618"/><circle cx="196.198" cy="359.022" r="20.618"/><circle cx="250.954" cy="359.022" r="20.618"/><circle cx="305.709" cy="359.022" r="20.618"/></g><circle cx="360.465" cy="359.022" fill="#da387d" r="20.618"/><circle cx="415.221" cy="359.022" fill="#da387d" r="20.618"/></g><g fill="#e2d8ec"><circle cx="86.686" cy="421.966" r="20.618"/><circle cx="141.442" cy="421.966" r="20.618"/><circle cx="196.198" cy="421.966" r="20.618"/></g></g></g><g><g><path d="m182.075 336.57c-10.971-10.971-25.355-16.461-39.738-16.461-14.384 0-28.767 5.491-39.738 16.461l-29.543 29.543 26.019 48.167 53.457 31.309 29.543-29.543c21.941-21.941 21.952-57.524 0-79.476z" fill="#95d6a4"/><path d="m152.532 445.589-79.476-79.476-29.532 29.532c-21.952 21.952-21.941 57.534 0 79.476 10.981 10.981 25.354 16.462 39.738 16.462s28.767-5.491 39.738-16.462z" fill="#da387d"/><path d="m182.075 336.57c-10.971-10.971-25.354-16.461-39.738-16.461s-28.767 5.491-39.738 16.461l-29.543 29.543 8.777 20.251 20.217 8.742 29.543-29.543c10.971-10.971 25.354-16.461 39.738-16.461 7.687 0 15.363 1.561 22.512 4.683-2.736-6.244-6.654-12.101-11.768-17.215z" fill="#78c2a4"/><path d="m102.05 395.106-28.993-28.993-29.532 29.532c-21.952 21.952-21.941 57.534 0 79.476 5.114 5.114 10.971 9.033 17.226 11.778-8.99-20.574-5.071-45.422 11.767-62.261z" fill="#aa3684"/></g><g><path d="m70.2 455.802c0 15.515 6.288 29.568 16.459 39.739 10.17 10.171 24.224 16.459 39.738 16.459h41.779l15.661-52.457-15.661-59.939h-41.779c-31.029 0-56.197 25.153-56.197 56.198z" fill="#80b4fb"/><path d="m168.177 399.604v112.396h41.764c31.045 0 56.198-25.168 56.198-56.198 0-15.53-6.288-29.568-16.459-39.739s-24.224-16.459-39.739-16.459z" fill="#f6e266"/><path d="m70.2 455.802c0 15.515 6.288 29.568 16.459 39.739 10.17 10.171 24.224 16.459 39.738 16.459h41.779l8.114-20.526-8.114-20.477h-41.779c-15.515 0-29.568-6.288-39.739-16.459-5.436-5.436-9.76-11.967-12.607-19.23-2.481 6.35-3.851 13.262-3.851 20.494z" fill="#61a2f9"/><path d="m168.177 470.997v41.003h41.764c31.045 0 56.198-25.168 56.198-56.198 0-7.232-1.37-14.145-3.852-20.509-8.191 20.905-28.533 35.704-52.346 35.704z" fill="#ffd064"/></g></g></g></svg>