<svg xmlns="http://www.w3.org/2000/svg" width="45.687" height="45.687" viewBox="0 0 45.687 45.687">
  <g id="dashboard-24px" opacity="0.7">
    <path id="Path_444" data-name="Path 444" d="M5.538,28.382H20.767a2.546,2.546,0,0,0,2.538-2.538V5.538A2.546,2.546,0,0,0,20.767,3H5.538A2.546,2.546,0,0,0,3,5.538V25.844A2.546,2.546,0,0,0,5.538,28.382Zm0,20.305H20.767a2.546,2.546,0,0,0,2.538-2.538V36a2.546,2.546,0,0,0-2.538-2.538H5.538A2.546,2.546,0,0,0,3,36V46.149A2.546,2.546,0,0,0,5.538,48.687Zm25.382,0H46.149a2.546,2.546,0,0,0,2.538-2.538V25.844a2.546,2.546,0,0,0-2.538-2.538H30.92a2.546,2.546,0,0,0-2.538,2.538V46.149A2.546,2.546,0,0,0,30.92,48.687ZM28.382,5.538V15.691a2.546,2.546,0,0,0,2.538,2.538H46.149a2.546,2.546,0,0,0,2.538-2.538V5.538A2.546,2.546,0,0,0,46.149,3H30.92A2.546,2.546,0,0,0,28.382,5.538Z" transform="translate(-3 -3)" fill="#707070" opacity="0.7"/>
  </g>
</svg>
