<svg id="delete-24px" xmlns="http://www.w3.org/2000/svg" width="24" height="24" viewBox="0 0 24 24">
  <path id="Path_461" data-name="Path 461" d="M24,0H0V24H24Z" fill="none"/>
  <g id="Group_120" data-name="Group 120">
    <path id="Path_462" data-name="Path 462" d="M18,19a2.006,2.006,0,0,1-2,2H8a2.006,2.006,0,0,1-2-2V9A2.006,2.006,0,0,1,8,7h8a2.006,2.006,0,0,1,2,2ZM6,4H8.5l.71-.71A1.009,1.009,0,0,1,9.91,3h4.18a1.009,1.009,0,0,1,.7.29L15.5,4H18a1,1,0,0,1,0,2H6A1,1,0,0,1,6,4Z" fill="#fd5c65"/>
  </g>
</svg>
