<svg xmlns="http://www.w3.org/2000/svg" width="43.652" height="36.104" viewBox="0 0 43.652 36.104">
  <g id="Group_8" data-name="Group 8" transform="translate(0.5 0.662)">
    <path id="Path_382" data-name="Path 382" d="M31.879,27.189V23.334a7.709,7.709,0,0,0-7.709-7.709H8.751a7.709,7.709,0,0,0-7.709,7.709v3.855" transform="translate(-1.042 7.503)" fill="#707070" stroke="#707070" stroke-linecap="round" stroke-linejoin="round" stroke-width="1"/>
    <path id="Path_383" data-name="Path 383" d="M12.918,18.544a7.709,7.709,0,1,0-7.709-7.709A7.709,7.709,0,0,0,12.918,18.544Z" transform="translate(2.501 -3.125)" fill="#707070" stroke="#707070" stroke-linecap="round" stroke-linejoin="round" stroke-width="1"/>
    <path id="Path_384" data-name="Path 384" d="M26.615,27.074V23.219a7.71,7.71,0,0,0-5.782-7.459" transform="translate(15.786 7.618)" fill="none" stroke="#707070" stroke-linecap="round" stroke-linejoin="round" stroke-width="1.5"/>
    <path id="Path_385" data-name="Path 385" d="M16.667,3.26a7.71,7.71,0,0,1,0,14.937" transform="translate(12.244 -3.01)" fill="none" stroke="#707070" stroke-linecap="round" stroke-linejoin="round" stroke-width="1.5"/>
    <path id="Path_428" data-name="Path 428" d="M24.184,41.388H54.868" transform="translate(-24.061 -6.592)" fill="none" stroke="#707070" stroke-linecap="round" stroke-width="1"/>
  </g>
</svg>
