<svg xmlns="http://www.w3.org/2000/svg" xmlns:xlink="http://www.w3.org/1999/xlink" width="45.537" height="45.537" viewBox="0 0 45.537 45.537">
  <defs>
    <filter id="Rectangle_4" x="-22" y="-16" width="93.537" height="93.537" filterUnits="userSpaceOnUse">
      <feOffset dx="2" dy="8" input="SourceAlpha"/>
      <feGaussianBlur stdDeviation="8" result="blur"/>
      <feFlood flood-color="#183273" flood-opacity="0.169"/>
      <feComposite operator="in" in2="blur"/>
      <feComposite in="SourceGraphic"/>
    </filter>
    <clipPath id="clip-path">
      <g transform="matrix(1, 0, 0, 1, 0, 0)" filter="url(#Rectangle_4)">
        <rect id="Rectangle_4-2" data-name="Rectangle 4" width="45.537" height="45.537" rx="16" fill="#fff" stroke="rgba(42,70,112,0.06)" stroke-linecap="round" stroke-linejoin="round" stroke-width="1"/>
      </g>
    </clipPath>
  </defs>
  <g id="password_icon" data-name="password icon" clip-path="url(#clip-path)">
    <g id="vpn_key-24px" transform="translate(0.528 -0.886)">
      <path id="Path_6" data-name="Path 6" d="M0,0H45.183V45.509H0Z" fill="none"/>
      <path id="Path_7" data-name="Path 7" d="M45.68,149.79a11.378,11.378,0,1,0,0,7.585h8.189v3.792a3.765,3.765,0,1,0,7.531,0v-3.792a3.792,3.792,0,0,0,0-7.585Zm-10.637,7.585a3.792,3.792,0,1,1,3.765-3.792A3.79,3.79,0,0,1,35.043,157.374Z" transform="translate(-21.864 -130.828)" fill="#a8abae"/>
    </g>
  </g>
</svg>
